<?xml version="1.0" encoding="UTF-8" standalone="no"?>
<svg
   xmlns:dc="http://purl.org/dc/elements/1.1/"
   xmlns:cc="http://creativecommons.org/ns#"
   xmlns:rdf="http://www.w3.org/1999/02/22-rdf-syntax-ns#"
   xmlns:svg="http://www.w3.org/2000/svg"
   xmlns="http://www.w3.org/2000/svg"
   xmlns:sodipodi="http://sodipodi.sourceforge.net/DTD/sodipodi-0.dtd"
   xmlns:inkscape="http://www.inkscape.org/namespaces/inkscape"
   version="1.1"
   width="396.67529296875"
   height="421"
   id="svg528"
   sodipodi:docname="CC01.svg"
   inkscape:export-filename="/home/luisbarrera/SextoTrimestre/Sistemas/petcare/casos-de-uso/CC01.png"
   inkscape:export-xdpi="243.506"
   inkscape:export-ydpi="243.506"
   inkscape:version="1.0.1 (3bc2e813f5, 2020-09-07, custom)">
  <metadata
     id="metadata532">
    <rdf:RDF>
      <cc:Work
         rdf:about="">
        <dc:format>image/svg+xml</dc:format>
        <dc:type
           rdf:resource="http://purl.org/dc/dcmitype/StillImage" />
      </cc:Work>
    </rdf:RDF>
  </metadata>
  <sodipodi:namedview
     pagecolor="#ffffff"
     bordercolor="#666666"
     borderopacity="1"
     objecttolerance="10"
     gridtolerance="10"
     guidetolerance="10"
     inkscape:pageopacity="0"
     inkscape:pageshadow="2"
     inkscape:window-width="1568"
     inkscape:window-height="852"
     id="namedview530"
     showgrid="false"
     inkscape:zoom="1.5558195"
     inkscape:cx="198.33765"
     inkscape:cy="210.5"
     inkscape:window-x="16"
     inkscape:window-y="16"
     inkscape:window-maximized="0"
     inkscape:current-layer="g526" />
  <defs
     id="defs290" />
  <g
     id="g526">
    <g
       transform="translate(-177,-78) scale(1,1)"
       id="g354">
      <path
         fill="#C0C0C0"
         stroke="none"
         d="M 373 104.5 C 373 99.2532944 377.2532944 95 382.5 95 C 387.7467056 95 392 99.2532944 392 104.5 C 392 109.7467056 387.7467056 114 382.5 114 C 377.2532944 114 373 109.7467056 373 104.5 Z"
         opacity="0.2"
         id="path352" />
    </g>
    <g
       transform="translate(-177,-78) scale(1,1)"
       id="g358">
      <path
         fill="#000000"
         stroke="none"
         d="M 366 97.5 C 366 92.2532944 370.2532944 88 375.5 88 C 380.7467056 88 385 92.2532944 385 97.5 C 385 102.7467056 380.7467056 107 375.5 107 C 370.2532944 107 366 102.7467056 366 97.5 Z"
         id="path356" />
    </g>
    <g
       transform="translate(-177,-78) scale(1,1)"
       id="g362">
      <path
         fill="#C0C0C0"
         stroke="none"
         d="M 285 143 L 480.63525390625 143 Q 490.63525390625 143 490.63525390625 153 L 490.63525390625 172 Q 490.63525390625 182 480.63525390625 182 L 285 182 Q 275 182 275 172 L 275 153 Q 275 143 285 143 Z"
         opacity="0.2"
         id="path360" />
    </g>
    <g
       transform="translate(-177,-78) scale(1,1)"
       id="g366">
      <path
         fill="#ffffff"
         stroke="none"
         d="M 278 136 L 473.63525390625 136 Q 483.63525390625 136 483.63525390625 146 L 483.63525390625 165 Q 483.63525390625 175 473.63525390625 175 L 278 175 Q 268 175 268 165 L 268 146 Q 268 136 278 136 Z"
         id="path364" />
    </g>
    <g
       transform="translate(-177,-78) scale(1,1)"
       id="g370">
      <path
         fill="none"
         stroke="#000000"
         d="M 278 136 L 473.63525390625 136 Q 483.63525390625 136 483.63525390625 146 L 483.63525390625 165 Q 483.63525390625 175 473.63525390625 175 L 278 175 Q 268 175 268 165 L 268 146 Q 268 136 278 136 Z"
         stroke-miterlimit="10"
         id="path368" />
    </g>
    <g
       transform="translate(-177,-78) scale(1,1)"
       id="g378">
      <g
         id="g376"
         transform="matrix(0.92502829,0,0,1,21.00134,0)">
        <path
           fill="none"
           stroke="none"
           id="path372"
           d="" />
        <text
           fill="#000000"
           stroke="none"
           font-family="Arial"
           font-size="13px"
           font-style="normal"
           font-weight="bold"
           text-decoration="none"
           x="279.34277"
           y="155.5"
           id="text374"
           style="text-decoration:none;text-decoration-line:none">Usuario selecciona una categoría</text>
      </g>
    </g>
    <g
       transform="translate(-177,-78) scale(1,1)"
       id="g382">
      <path
         fill="#C0C0C0"
         stroke="none"
         d="M 206 207 L 559.8251953125 207 Q 569.8251953125 207 569.8251953125 217 L 569.8251953125 236 Q 569.8251953125 246 559.8251953125 246 L 206 246 Q 196 246 196 236 L 196 217 Q 196 207 206 207 Z"
         opacity="0.2"
         id="path380" />
    </g>
    <g
       transform="translate(-177,-78) scale(1,1)"
       id="g386">
      <path
         fill="#ffffff"
         stroke="none"
         d="M 199 200 L 552.8251953125 200 Q 562.8251953125 200 562.8251953125 210 L 562.8251953125 229 Q 562.8251953125 239 552.8251953125 239 L 199 239 Q 189 239 189 229 L 189 210 Q 189 200 199 200 Z"
         id="path384" />
    </g>
    <g
       transform="translate(-177,-78) scale(1,1)"
       id="g390">
      <path
         fill="none"
         stroke="#000000"
         d="M 199 200 L 552.8251953125 200 Q 562.8251953125 200 562.8251953125 210 L 562.8251953125 229 Q 562.8251953125 239 552.8251953125 239 L 199 239 Q 189 239 189 229 L 189 210 Q 189 200 199 200 Z"
         stroke-miterlimit="10"
         id="path388" />
    </g>
    <g
       transform="translate(-177,-78) scale(1,1)"
       id="g400">
      <g
         id="g398">
        <path
           fill="none"
           stroke="none"
           id="path392" />
        <text
           fill="#000000"
           stroke="none"
           font-family="Arial"
           font-size="13px"
           font-style="normal"
           font-weight="bold"
           text-decoration="none"
           x="234.629638671875"
           y="219.5"
           id="text394">Base de Datos busca todos los productos de esa</text>
        <text
           fill="#000000"
           stroke="none"
           font-family="Arial"
           font-size="13px"
           font-style="normal"
           font-weight="bold"
           text-decoration="none"
           x="348.811279296875"
           y="232.5"
           id="text396">categoría</text>
      </g>
    </g>
    <g
       transform="translate(-177,-78) scale(1,1)"
       id="g404">
      <path
         fill="#C0C0C0"
         stroke="none"
         d="M 204 271 L 560.67529296875 271 Q 570.67529296875 271 570.67529296875 281 L 570.67529296875 300 Q 570.67529296875 310 560.67529296875 310 L 204 310 Q 194 310 194 300 L 194 281 Q 194 271 204 271 Z"
         opacity="0.2"
         id="path402" />
    </g>
    <g
       transform="translate(-177,-78) scale(1,1)"
       id="g408">
      <path
         fill="#ffffff"
         stroke="none"
         d="M 197 264 L 553.67529296875 264 Q 563.67529296875 264 563.67529296875 274 L 563.67529296875 293 Q 563.67529296875 303 553.67529296875 303 L 197 303 Q 187 303 187 293 L 187 274 Q 187 264 197 264 Z"
         id="path406" />
    </g>
    <g
       transform="translate(-177,-78) scale(1,1)"
       id="g412">
      <path
         fill="none"
         stroke="#000000"
         d="M 197 264 L 553.67529296875 264 Q 563.67529296875 264 563.67529296875 274 L 563.67529296875 293 Q 563.67529296875 303 553.67529296875 303 L 197 303 Q 187 303 187 293 L 187 274 Q 187 264 197 264 Z"
         stroke-miterlimit="10"
         id="path410" />
    </g>
    <g
       transform="translate(-177,-78) scale(1,1)"
       id="g422">
      <g
         id="g420">
        <path
           fill="none"
           stroke="none"
           id="path414" />
        <text
           fill="#000000"
           stroke="none"
           font-family="Arial"
           font-size="13px"
           font-style="normal"
           font-weight="bold"
           text-decoration="none"
           x="232.959716796875"
           y="283.5"
           id="text416">Se ordenan los productos por fecha en la que fue</text>
        <text
           fill="#000000"
           stroke="none"
           font-family="Arial"
           font-size="13px"
           font-style="normal"
           font-weight="bold"
           text-decoration="none"
           x="347.8681640625"
           y="296.5"
           id="text418">agregado</text>
      </g>
    </g>
    <g
       transform="translate(-177,-78) scale(1,1)"
       id="g426">
      <path
         fill="#C0C0C0"
         stroke="none"
         d="M 245 335 L 519.35888671875 335 Q 529.35888671875 335 529.35888671875 345 L 529.35888671875 364 Q 529.35888671875 374 519.35888671875 374 L 245 374 Q 235 374 235 364 L 235 345 Q 235 335 245 335 Z"
         opacity="0.2"
         id="path424" />
    </g>
    <g
       transform="translate(-177,-78) scale(1,1)"
       id="g430">
      <path
         fill="#ffffff"
         stroke="none"
         d="M 238 328 L 512.35888671875 328 Q 522.35888671875 328 522.35888671875 338 L 522.35888671875 357 Q 522.35888671875 367 512.35888671875 367 L 238 367 Q 228 367 228 357 L 228 338 Q 228 328 238 328 Z"
         id="path428" />
    </g>
    <g
       transform="translate(-177,-78) scale(1,1)"
       id="g434">
      <path
         fill="none"
         stroke="#000000"
         d="M 238 328 L 512.35888671875 328 Q 522.35888671875 328 522.35888671875 338 L 522.35888671875 357 Q 522.35888671875 367 512.35888671875 367 L 238 367 Q 228 367 228 357 L 228 338 Q 228 328 238 328 Z"
         stroke-miterlimit="10"
         id="path432" />
    </g>
    <g
       transform="matrix(0.92779788,0,0,1,-159.43273,-78)"
       id="g442">
      <g
         id="g440">
        <path
           fill="none"
           stroke="none"
           id="path436"
           d="" />
        <text
           fill="#000000"
           stroke="none"
           font-family="Arial"
           font-size="13px"
           font-style="normal"
           font-weight="bold"
           text-decoration="none"
           x="242.93237"
           y="347.5"
           id="text438"
           style="text-decoration:none;text-decoration-line:none">Se descartan productos que tienen cero stock</text>
      </g>
    </g>
    <g
       transform="translate(-177,-78) scale(1,1)"
       id="g446">
      <path
         fill="#C0C0C0"
         stroke="none"
         d="M 255 399 L 509.83984375 399 Q 519.83984375 399 519.83984375 409 L 519.83984375 428 Q 519.83984375 438 509.83984375 438 L 255 438 Q 245 438 245 428 L 245 409 Q 245 399 255 399 Z"
         opacity="0.2"
         id="path444" />
    </g>
    <g
       transform="translate(-177,-78) scale(1,1)"
       id="g450">
      <path
         fill="#ffffff"
         stroke="none"
         d="M 248 392 L 502.83984375 392 Q 512.83984375 392 512.83984375 402 L 512.83984375 421 Q 512.83984375 431 502.83984375 431 L 248 431 Q 238 431 238 421 L 238 402 Q 238 392 248 392 Z"
         id="path448" />
    </g>
    <g
       transform="translate(-177,-78) scale(1,1)"
       id="g454">
      <path
         fill="none"
         stroke="#000000"
         d="M 248 392 L 502.83984375 392 Q 512.83984375 392 512.83984375 402 L 512.83984375 421 Q 512.83984375 431 502.83984375 431 L 248 431 Q 238 431 238 421 L 238 402 Q 238 392 248 392 Z"
         stroke-miterlimit="10"
         id="path452" />
    </g>
    <g
       transform="translate(-177,-78) scale(1,1)"
       id="g464">
      <g
         id="g462">
        <path
           fill="none"
           stroke="none"
           id="path456" />
        <text
           fill="#000000"
           stroke="none"
           font-family="Arial"
           font-size="13px"
           font-style="normal"
           font-weight="bold"
           text-decoration="none"
           x="276.41552734375"
           y="411.5"
           id="text458">Se muestran los productos en una</text>
        <text
           fill="#000000"
           stroke="none"
           font-family="Arial"
           font-size="13px"
           font-style="normal"
           font-weight="bold"
           text-decoration="none"
           x="352.2890625"
           y="424.5"
           id="text460">ventana</text>
      </g>
    </g>
    <g
       transform="translate(-177,-78) scale(1,1)"
       id="g468">
      <path
         fill="#C0C0C0"
         stroke="none"
         d="M 370 483.5 C 370 476.59644 375.59644 471 382.5 471 C 389.40356 471 395 476.59644 395 483.5 C 395 490.40356 389.40356 496 382.5 496 C 375.59644 496 370 490.40356 370 483.5 Z"
         opacity="0.2"
         id="path466" />
    </g>
    <g
       transform="translate(-177,-78) scale(1,1)"
       id="g472">
      <path
         fill="none"
         stroke="#000000"
         d="M 363 476.5 C 363 469.59644 368.59644 464 375.5 464 C 382.40356 464 388 469.59644 388 476.5 C 388 483.40356 382.40356 489 375.5 489 C 368.59644 489 363 483.40356 363 476.5 Z"
         stroke-miterlimit="10"
         id="path470" />
    </g>
    <g
       transform="translate(-177,-78) scale(1,1)"
       id="g476">
      <path
         fill="#000000"
         stroke="none"
         d="M 368 476.5 C 368 472.357864 371.357864 469 375.5 469 C 379.642136 469 383 472.357864 383 476.5 C 383 480.642136 379.642136 484 375.5 484 C 371.357864 484 368 480.642136 368 476.5 Z"
         id="path474" />
    </g>
    <g
       transform="translate(-177,-78) scale(1,1)"
       id="g480">
      <path
         fill="none"
         stroke="#000000"
         d="M 375 108 L 375 135"
         stroke-miterlimit="10"
         id="path478" />
    </g>
    <g
       transform="translate(-177,-78) scale(1,1)"
       id="g484">
      <path
         fill="none"
         stroke="#000000"
         d="M 370.790482243984 124.83732514237585 L 375 135 L 379.209517756016 124.83732514237585"
         stroke-miterlimit="10"
         id="path482" />
    </g>
    <g
       transform="translate(-177,-78) scale(1,1)"
       id="g488">
      <path
         fill="none"
         stroke="#000000"
         d="M 375 176 L 375 199"
         stroke-miterlimit="10"
         id="path486" />
    </g>
    <g
       transform="translate(-177,-78) scale(1,1)"
       id="g492">
      <path
         fill="none"
         stroke="#000000"
         d="M 370.790482243984 188.83732514237585 L 375 199 L 379.209517756016 188.83732514237585"
         stroke-miterlimit="10"
         id="path490" />
    </g>
    <g
       transform="translate(-177,-78) scale(1,1)"
       id="g496">
      <path
         fill="none"
         stroke="#000000"
         d="M 375 240 L 375 263"
         stroke-miterlimit="10"
         id="path494" />
    </g>
    <g
       transform="translate(-177,-78) scale(1,1)"
       id="g500">
      <path
         fill="none"
         stroke="#000000"
         d="M 370.790482243984 252.83732514237585 L 375 263 L 379.209517756016 252.83732514237585"
         stroke-miterlimit="10"
         id="path498" />
    </g>
    <g
       transform="translate(-177,-78) scale(1,1)"
       id="g504">
      <path
         fill="none"
         stroke="#000000"
         d="M 375 304 L 375 327"
         stroke-miterlimit="10"
         id="path502" />
    </g>
    <g
       transform="translate(-177,-78) scale(1,1)"
       id="g508">
      <path
         fill="none"
         stroke="#000000"
         d="M 370.790482243984 316.83732514237585 L 375 327 L 379.209517756016 316.83732514237585"
         stroke-miterlimit="10"
         id="path506" />
    </g>
    <g
       transform="translate(-177,-78) scale(1,1)"
       id="g512">
      <path
         fill="none"
         stroke="#000000"
         d="M 375 368 L 375 391"
         stroke-miterlimit="10"
         id="path510" />
    </g>
    <g
       transform="translate(-177,-78) scale(1,1)"
       id="g516">
      <path
         fill="none"
         stroke="#000000"
         d="M 370.790482243984 380.83732514237585 L 375 391 L 379.209517756016 380.83732514237585"
         stroke-miterlimit="10"
         id="path514" />
    </g>
    <g
       transform="translate(-177,-78) scale(1,1)"
       id="g520">
      <path
         fill="none"
         stroke="#000000"
         d="M 375 432 L 375 463"
         stroke-miterlimit="10"
         id="path518" />
    </g>
    <g
       transform="translate(-177,-78) scale(1,1)"
       id="g524">
      <path
         fill="none"
         stroke="#000000"
         d="M 370.790482243984 452.83732514237585 L 375 463 L 379.209517756016 452.83732514237585"
         stroke-miterlimit="10"
         id="path522" />
    </g>
  </g>
</svg>
