<?xml version="1.0" encoding="UTF-8" standalone="no"?>
<svg
   xmlns:dc="http://purl.org/dc/elements/1.1/"
   xmlns:cc="http://creativecommons.org/ns#"
   xmlns:rdf="http://www.w3.org/1999/02/22-rdf-syntax-ns#"
   xmlns:svg="http://www.w3.org/2000/svg"
   xmlns="http://www.w3.org/2000/svg"
   xmlns:sodipodi="http://sodipodi.sourceforge.net/DTD/sodipodi-0.dtd"
   xmlns:inkscape="http://www.inkscape.org/namespaces/inkscape"
   version="1.1"
   width="846.5908203125"
   height="403"
   id="svg834"
   sodipodi:docname="cons-cat.svg"
   inkscape:export-filename="/home/luisbarrera/SextoTrimestre/Sistemas/petcare/casos-de-uso/const-cat.png"
   inkscape:export-xdpi="243.506"
   inkscape:export-ydpi="243.506"
   inkscape:version="1.0.1 (3bc2e813f5, 2020-09-07, custom)">
  <metadata
     id="metadata838">
    <rdf:RDF>
      <cc:Work
         rdf:about="">
        <dc:format>image/svg+xml</dc:format>
        <dc:type
           rdf:resource="http://purl.org/dc/dcmitype/StillImage" />
      </cc:Work>
    </rdf:RDF>
  </metadata>
  <sodipodi:namedview
     pagecolor="#ffffff"
     bordercolor="#666666"
     borderopacity="1"
     objecttolerance="10"
     gridtolerance="10"
     guidetolerance="10"
     inkscape:pageopacity="0"
     inkscape:pageshadow="2"
     inkscape:window-width="1600"
     inkscape:window-height="884"
     id="namedview836"
     showgrid="false"
     inkscape:zoom="1.1623088"
     inkscape:cx="423.29541"
     inkscape:cy="201.5"
     inkscape:window-x="0"
     inkscape:window-y="0"
     inkscape:window-maximized="1"
     inkscape:current-layer="g832" />
  <defs
     id="defs434" />
  <g
     id="g832">
    <g
       transform="translate(-118,-110) scale(1,1)"
       id="g578">
      <rect
         fill="#C0C0C0"
         stroke="none"
         x="399"
         y="127"
         width="327"
         height="383"
         opacity="0.2"
         id="rect576" />
    </g>
    <g
       transform="translate(-118,-110) scale(1,1)"
       id="g582">
      <rect
         fill="#ffffff"
         stroke="none"
         x="392"
         y="120"
         width="327"
         height="383"
         id="rect580" />
    </g>
    <g
       transform="translate(-118,-110) scale(1,1)"
       id="g586">
      <path
         fill="none"
         stroke="#000000"
         d="M 392 120 L 719 120 L 719 503 L 392 503 L 392 120 Z Z"
         stroke-miterlimit="10"
         id="path584" />
    </g>
    <g
       transform="translate(-118,-110) scale(1,1)"
       id="g594">
      <g
         id="g592">
        <path
           fill="none"
           stroke="none"
           id="path588" />
        <text
           fill="#000000"
           stroke="none"
           font-family="Arial"
           font-size="13px"
           font-style="normal"
           font-weight="bold"
           text-decoration="none"
           x="502.02099609375"
           y="139.5"
           id="text590">Consulta Catálogo</text>
      </g>
    </g>
    <g
       transform="translate(-118,-110) scale(1,1)"
       id="g598">
      <path
         fill="#C0C0C0"
         stroke="none"
         d="M 477 216 C 477 206.6111584 515.055792 199 562 199 C 608.944208 199 647 206.6111584 647 216 C 647 225.3888416 608.944208 233 562 233 C 515.055792 233 477 225.3888416 477 216 Z"
         opacity="0.2"
         id="path596" />
    </g>
    <g
       transform="translate(-118,-110) scale(1,1)"
       id="g602">
      <path
         fill="#ffffff"
         stroke="none"
         d="M 470 209 C 470 199.6111584 508.055792 192 555 192 C 601.944208 192 640 199.6111584 640 209 C 640 218.3888416 601.944208 226 555 226 C 508.055792 226 470 218.3888416 470 209 Z"
         id="path600" />
    </g>
    <g
       transform="translate(-118,-110) scale(1,1)"
       id="g606">
      <path
         fill="none"
         stroke="#000000"
         d="M 470 209 C 470 199.6111584 508.055792 192 555 192 C 601.944208 192 640 199.6111584 640 209 C 640 218.3888416 601.944208 226 555 226 C 508.055792 226 470 218.3888416 470 209 Z"
         stroke-miterlimit="10"
         id="path604" />
    </g>
    <g
       transform="translate(-118,-110) scale(1,1)"
       id="g614">
      <g
         id="g612">
        <path
           fill="none"
           stroke="none"
           id="path608" />
        <text
           fill="#000000"
           stroke="none"
           font-family="Arial"
           font-size="13px"
           font-style="normal"
           font-weight="bold"
           text-decoration="none"
           x="502.619140625"
           y="216"
           id="text610">Mostrar Categoría</text>
      </g>
    </g>
    <g
       transform="translate(-118,-110) scale(1,1)"
       id="g618">
      <path
         fill="#C0C0C0"
         stroke="none"
         d="M 462 312 C 462 302.6111584 506.77152 295 562 295 C 617.22848 295 662 302.6111584 662 312 C 662 321.3888416 617.22848 329 562 329 C 506.77152 329 462 321.3888416 462 312 Z"
         opacity="0.2"
         id="path616" />
    </g>
    <g
       transform="translate(-118,-110) scale(1,1)"
       id="g622">
      <path
         fill="#ffffff"
         stroke="none"
         d="M 455 305 C 455 295.6111584 499.77152 288 555 288 C 610.22848 288 655 295.6111584 655 305 C 655 314.3888416 610.22848 322 555 322 C 499.77152 322 455 314.3888416 455 305 Z"
         id="path620" />
    </g>
    <g
       transform="translate(-118,-110) scale(1,1)"
       id="g626">
      <path
         fill="none"
         stroke="#000000"
         d="M 455 305 C 455 295.6111584 499.77152 288 555 288 C 610.22848 288 655 295.6111584 655 305 C 655 314.3888416 610.22848 322 555 322 C 499.77152 322 455 314.3888416 455 305 Z"
         stroke-miterlimit="10"
         id="path624" />
    </g>
    <g
       transform="translate(-118,-110) scale(1,1)"
       id="g634">
      <g
         id="g632">
        <path
           fill="none"
           stroke="none"
           id="path628" />
        <text
           fill="#000000"
           stroke="none"
           font-family="Arial"
           font-size="13px"
           font-style="normal"
           font-weight="bold"
           text-decoration="none"
           x="494.668701171875"
           y="312"
           id="text630">Mostrar por producto</text>
      </g>
    </g>
    <g
       transform="translate(-118,-110) scale(1,1)"
       id="g638">
      <path
         fill="#C0C0C0"
         stroke="none"
         d="M 480 416 C 480 406.6111584 516.7126464 399 562 399 C 607.2873536 399 644 406.6111584 644 416 C 644 425.3888416 607.2873536 433 562 433 C 516.7126464 433 480 425.3888416 480 416 Z"
         opacity="0.2"
         id="path636" />
    </g>
    <g
       transform="translate(-118,-110) scale(1,1)"
       id="g642">
      <path
         fill="#ffffff"
         stroke="none"
         d="M 473 409 C 473 399.6111584 509.7126464 392 555 392 C 600.2873536 392 637 399.6111584 637 409 C 637 418.3888416 600.2873536 426 555 426 C 509.7126464 426 473 418.3888416 473 409 Z"
         id="path640" />
    </g>
    <g
       transform="translate(-118,-110) scale(1,1)"
       id="g646">
      <path
         fill="none"
         stroke="#000000"
         d="M 473 409 C 473 399.6111584 509.7126464 392 555 392 C 600.2873536 392 637 399.6111584 637 409 C 637 418.3888416 600.2873536 426 555 426 C 509.7126464 426 473 418.3888416 473 409 Z"
         stroke-miterlimit="10"
         id="path644" />
    </g>
    <g
       transform="translate(-118,-110) scale(1,1)"
       id="g654">
      <g
         id="g652">
        <path
           fill="none"
           stroke="none"
           id="path648" />
        <text
           fill="#000000"
           stroke="none"
           font-family="Arial"
           font-size="13px"
           font-style="normal"
           font-weight="bold"
           text-decoration="none"
           x="505.1455078125"
           y="416"
           id="text650">Mostrar Catálogo</text>
      </g>
    </g>
    <g
       transform="translate(-118,-110) scale(1,1)"
       id="g658">
      <path
         fill="#ffffff"
         stroke="none"
         d="M 874.5965010653409 240.97 C 874.5965010653409 223.313454944 888.3408692887591 209 905.29541015625 209 C 922.2499510237409 209 935.9943192471591 223.313454944 935.9943192471591 240.97 C 935.9943192471591 258.626545056 922.2499510237409 272.94 905.29541015625 272.94 C 888.3408692887591 272.94 874.5965010653409 258.626545056 874.5965010653409 240.97 Z"
         id="path656" />
    </g>
    <g
       transform="translate(-118,-110) scale(1,1)"
       id="g662">
      <path
         fill="none"
         stroke="#000000"
         d="M 874.5965010653409 240.97 C 874.5965010653409 223.313454944 888.3408692887591 209 905.29541015625 209 C 922.2499510237409 209 935.9943192471591 223.313454944 935.9943192471591 240.97 C 935.9943192471591 258.626545056 922.2499510237409 272.94 905.29541015625 272.94 C 888.3408692887591 272.94 874.5965010653409 258.626545056 874.5965010653409 240.97 Z"
         stroke-miterlimit="10"
         id="path660" />
    </g>
    <g
       transform="translate(-118,-110) scale(1,1)"
       id="g666">
      <path
         fill="none"
         stroke="#000000"
         d="M 905.29541015625 272.94 L 905.29541015625 334.06"
         stroke-miterlimit="10"
         id="path664" />
    </g>
    <g
       transform="translate(-118,-110) scale(1,1)"
       id="g670">
      <path
         fill="none"
         stroke="#000000"
         d="M 872.7906828835228 295.86 L 937.8001374289772 295.86"
         stroke-miterlimit="10"
         id="path668" />
    </g>
    <g
       transform="translate(-118,-110) scale(1,1)"
       id="g674">
      <path
         fill="none"
         stroke="#000000"
         d="M 905.29541015625 334.06 L 860.1499556107955 398"
         stroke-miterlimit="10"
         id="path672" />
    </g>
    <g
       transform="translate(-118,-110) scale(1,1)"
       id="g678">
      <path
         fill="none"
         stroke="#000000"
         d="M 905.29541015625 334.06 L 950.4408647017045 398"
         stroke-miterlimit="10"
         id="path676" />
    </g>
    <g
       transform="translate(-118,-110) scale(1,1)"
       id="g686">
      <g
         id="g684">
        <path
           fill="none"
           stroke="none"
           id="path680" />
        <text
           fill="#000000"
           stroke="none"
           font-family="Arial"
           font-size="13px"
           font-style="normal"
           font-weight="bold"
           text-decoration="none"
           x="862.658203125"
           y="418.5"
           id="text682">Base de Datos</text>
      </g>
    </g>
    <g
       transform="translate(-118,-110) scale(1,1)"
       id="g690">
      <path
         fill="#ffffff"
         stroke="none"
         d="M 150.9746319247159 186.01 C 150.9746319247159 176.615635552 158.38651635933408 169 167.529541015625 169 C 176.67256567191592 169 184.0844501065341 176.615635552 184.0844501065341 186.01 C 184.0844501065341 195.404364448 176.67256567191592 203.02 167.529541015625 203.02 C 158.38651635933408 203.02 150.9746319247159 195.404364448 150.9746319247159 186.01 Z"
         id="path688" />
    </g>
    <g
       transform="translate(-118,-110) scale(1,1)"
       id="g694">
      <path
         fill="none"
         stroke="#000000"
         d="M 150.9746319247159 186.01 C 150.9746319247159 176.615635552 158.38651635933408 169 167.529541015625 169 C 176.67256567191592 169 184.0844501065341 176.615635552 184.0844501065341 186.01 C 184.0844501065341 195.404364448 176.67256567191592 203.02 167.529541015625 203.02 C 158.38651635933408 203.02 150.9746319247159 195.404364448 150.9746319247159 186.01 Z"
         stroke-miterlimit="10"
         id="path692" />
    </g>
    <g
       transform="translate(-118,-110) scale(1,1)"
       id="g698">
      <path
         fill="none"
         stroke="#000000"
         d="M 167.529541015625 203.02 L 167.529541015625 235.98000000000002"
         stroke-miterlimit="10"
         id="path696" />
    </g>
    <g
       transform="translate(-118,-110) scale(1,1)"
       id="g702">
      <path
         fill="none"
         stroke="#000000"
         d="M 150.00081374289772 215.38 L 185.05826828835228 215.38"
         stroke-miterlimit="10"
         id="path700" />
    </g>
    <g
       transform="translate(-118,-110) scale(1,1)"
       id="g706">
      <path
         fill="none"
         stroke="#000000"
         d="M 167.529541015625 235.98000000000002 L 143.18408647017046 270"
         stroke-miterlimit="10"
         id="path704" />
    </g>
    <g
       transform="translate(-118,-110) scale(1,1)"
       id="g710">
      <path
         fill="none"
         stroke="#000000"
         d="M 167.529541015625 235.98000000000002 L 191.87499556107954 270"
         stroke-miterlimit="10"
         id="path708" />
    </g>
    <g
       transform="translate(-118,-110) scale(1,1)"
       id="g718">
      <g
         id="g716">
        <path
           fill="none"
           stroke="none"
           id="path712" />
        <text
           fill="#000000"
           stroke="none"
           font-family="Arial"
           font-size="13px"
           font-style="normal"
           font-weight="bold"
           text-decoration="none"
           x="135.016845703125"
           y="290.5"
           id="text714">Comprador</text>
      </g>
    </g>
    <g
       transform="translate(-118,-110) scale(1,1)"
       id="g722">
      <path
         fill="#ffffff"
         stroke="none"
         d="M 150.9194561434659 354.01 C 150.9194561434659 344.615635552 158.33134057808408 337 167.474365234375 337 C 176.61738989066592 337 184.0292743252841 344.615635552 184.0292743252841 354.01 C 184.0292743252841 363.40436444799997 176.61738989066592 371.02 167.474365234375 371.02 C 158.33134057808408 371.02 150.9194561434659 363.40436444799997 150.9194561434659 354.01 Z"
         id="path720" />
    </g>
    <g
       transform="translate(-118,-110) scale(1,1)"
       id="g726">
      <path
         fill="none"
         stroke="#000000"
         d="M 150.9194561434659 354.01 C 150.9194561434659 344.615635552 158.33134057808408 337 167.474365234375 337 C 176.61738989066592 337 184.0292743252841 344.615635552 184.0292743252841 354.01 C 184.0292743252841 363.40436444799997 176.61738989066592 371.02 167.474365234375 371.02 C 158.33134057808408 371.02 150.9194561434659 363.40436444799997 150.9194561434659 354.01 Z"
         stroke-miterlimit="10"
         id="path724" />
    </g>
    <g
       transform="translate(-118,-110) scale(1,1)"
       id="g730">
      <path
         fill="none"
         stroke="#000000"
         d="M 167.474365234375 371.02 L 167.474365234375 403.98"
         stroke-miterlimit="10"
         id="path728" />
    </g>
    <g
       transform="translate(-118,-110) scale(1,1)"
       id="g734">
      <path
         fill="none"
         stroke="#000000"
         d="M 149.94563796164772 383.38 L 185.00309250710228 383.38"
         stroke-miterlimit="10"
         id="path732" />
    </g>
    <g
       transform="translate(-118,-110) scale(1,1)"
       id="g738">
      <path
         fill="none"
         stroke="#000000"
         d="M 167.474365234375 403.98 L 143.12891068892046 438"
         stroke-miterlimit="10"
         id="path736" />
    </g>
    <g
       transform="translate(-118,-110) scale(1,1)"
       id="g742">
      <path
         fill="none"
         stroke="#000000"
         d="M 167.474365234375 403.98 L 191.81981977982954 438"
         stroke-miterlimit="10"
         id="path740" />
    </g>
    <g
       transform="translate(-118,-110) scale(1,1)"
       id="g750">
      <g
         id="g748">
        <path
           fill="none"
           stroke="none"
           id="path744" />
        <text
           fill="#000000"
           stroke="none"
           font-family="Arial"
           font-size="13px"
           font-style="normal"
           font-weight="bold"
           text-decoration="none"
           x="142.661376953125"
           y="458.5"
           id="text746">Visitante</text>
      </g>
    </g>
    <g
       transform="translate(-118,-110) scale(1,1)"
       id="g754">
      <path
         fill="#ffffff"
         stroke="none"
         d="M 289.57389399857954 252.73 C 289.57389399857954 241.833420896 298.13713912207044 233 308.700439453125 233 C 319.26373978417956 233 327.82698490767046 241.833420896 327.82698490767046 252.73 C 327.82698490767046 263.626579104 319.26373978417956 272.46 308.700439453125 272.46 C 298.13713912207044 272.46 289.57389399857954 263.626579104 289.57389399857954 252.73 Z"
         id="path752" />
    </g>
    <g
       transform="translate(-118,-110) scale(1,1)"
       id="g758">
      <path
         fill="none"
         stroke="#000000"
         d="M 289.57389399857954 252.73 C 289.57389399857954 241.833420896 298.13713912207044 233 308.700439453125 233 C 319.26373978417956 233 327.82698490767046 241.833420896 327.82698490767046 252.73 C 327.82698490767046 263.626579104 319.26373978417956 272.46 308.700439453125 272.46 C 298.13713912207044 272.46 289.57389399857954 263.626579104 289.57389399857954 252.73 Z"
         stroke-miterlimit="10"
         id="path756" />
    </g>
    <g
       transform="translate(-118,-110) scale(1,1)"
       id="g762">
      <path
         fill="none"
         stroke="#000000"
         d="M 308.700439453125 272.46 L 308.700439453125 310.54"
         stroke-miterlimit="10"
         id="path760" />
    </g>
    <g
       transform="translate(-118,-110) scale(1,1)"
       id="g766">
      <path
         fill="none"
         stroke="#000000"
         d="M 288.44880308948865 286.74 L 328.95207581676135 286.74"
         stroke-miterlimit="10"
         id="path764" />
    </g>
    <g
       transform="translate(-118,-110) scale(1,1)"
       id="g770">
      <path
         fill="none"
         stroke="#000000"
         d="M 308.700439453125 310.54 L 280.5731667258523 350"
         stroke-miterlimit="10"
         id="path768" />
    </g>
    <g
       transform="translate(-118,-110) scale(1,1)"
       id="g774">
      <path
         fill="none"
         stroke="#000000"
         d="M 308.700439453125 310.54 L 336.8277121803977 350"
         stroke-miterlimit="10"
         id="path772" />
    </g>
    <g
       transform="translate(-118,-110) scale(1,1)"
       id="g782">
      <g
         id="g780">
        <path
           fill="none"
           stroke="none"
           id="path776" />
        <text
           fill="#000000"
           stroke="none"
           font-family="Arial"
           font-size="13px"
           font-style="normal"
           font-weight="bold"
           text-decoration="none"
           x="286.302734375"
           y="370.5"
           id="text778">Usuario</text>
      </g>
    </g>
    <g
       transform="translate(-118,-110) scale(1,1)"
       id="g786">
      <path
         fill="none"
         stroke="#000000"
         d="M 338 292 L 508 227"
         stroke-miterlimit="10"
         id="path784" />
    </g>
    <g
       transform="translate(-118,-110) scale(1,1)"
       id="g790">
      <path
         fill="none"
         stroke="#000000"
         d="M 338 304 L 454 305"
         stroke-miterlimit="10"
         id="path788" />
    </g>
    <g
       transform="translate(-118,-110) scale(1,1)"
       id="g794">
      <path
         fill="none"
         stroke="#000000"
         d="M 338 317 L 513 391"
         stroke-miterlimit="10"
         id="path792" />
    </g>
    <g
       transform="translate(-118,-110) scale(1,1)"
       id="g798">
      <path
         fill="none"
         stroke="#000000"
         d="M 200 378 L 279 324"
         stroke-miterlimit="10"
         id="path796" />
    </g>
    <g
       transform="translate(-118,-110) scale(1,1)"
       id="g802">
      <path
         fill="#FFFFFF"
         stroke="none"
         d="M 266.97107256233573 342.4202308535862 L 279 324 L 257.46919369083423 328.51933398601915"
         id="path800" />
    </g>
    <g
       transform="translate(-118,-110) scale(1,1)"
       id="g806">
      <path
         fill="none"
         stroke="#000000"
         d="M 266.97107256233573 342.4202308535862 L 279 324 L 257.46919369083423 328.51933398601915 L 266.97107256233573 342.4202308535862"
         stroke-miterlimit="10"
         id="path804" />
    </g>
    <g
       transform="translate(-118,-110) scale(1,1)"
       id="g810">
      <path
         fill="none"
         stroke="#000000"
         d="M 208 253 L 279 289"
         stroke-miterlimit="10"
         id="path808" />
    </g>
    <g
       transform="translate(-118,-110) scale(1,1)"
       id="g814">
      <path
         fill="#FFFFFF"
         stroke="none"
         d="M 257.0644551289022 287.3171835489114 L 279 289 L 264.679158396682 272.2992965485679"
         id="path812" />
    </g>
    <g
       transform="translate(-118,-110) scale(1,1)"
       id="g818">
      <path
         fill="none"
         stroke="#000000"
         d="M 257.0644551289022 287.3171835489114 L 279 289 L 264.679158396682 272.2992965485679 L 257.0644551289022 287.3171835489114"
         stroke-miterlimit="10"
         id="path816" />
    </g>
    <g
       transform="translate(-118,-110) scale(1,1)"
       id="g822">
      <path
         fill="none"
         stroke="#000000"
         d="M 614 227 L 855 301"
         stroke-miterlimit="10"
         id="path820" />
    </g>
    <g
       transform="translate(-118,-110) scale(1,1)"
       id="g826">
      <path
         fill="none"
         stroke="#000000"
         d="M 656 308 L 855 314"
         stroke-miterlimit="10"
         id="path824" />
    </g>
    <g
       transform="translate(-118,-110) scale(1,1)"
       id="g830">
      <path
         fill="none"
         stroke="#000000"
         d="M 623 391 L 855 329"
         stroke-miterlimit="10"
         id="path828" />
    </g>
  </g>
</svg>
