<svg version="1.1" xmlns="http://www.w3.org/2000/svg" xmlns:xlink="http://www.w3.org/1999/xlink" width="846.5908203125" height="403"><defs/><g><text fill="#eeeeee" stroke="none" font-family="Arial" font-size="24px" font-style="normal" font-weight="normal" text-decoration="none" x="0" y="0">UNREGISTERED</text><text fill="#eeeeee" stroke="none" font-family="Arial" font-size="24px" font-style="normal" font-weight="normal" text-decoration="none" x="0" y="30">UNREGISTERED</text><text fill="#eeeeee" stroke="none" font-family="Arial" font-size="24px" font-style="normal" font-weight="normal" text-decoration="none" x="0" y="60">UNREGISTERED</text><text fill="#eeeeee" stroke="none" font-family="Arial" font-size="24px" font-style="normal" font-weight="normal" text-decoration="none" x="0" y="90">UNREGISTERED</text><text fill="#eeeeee" stroke="none" font-family="Arial" font-size="24px" font-style="normal" font-weight="normal" text-decoration="none" x="0" y="120">UNREGISTERED</text><text fill="#eeeeee" stroke="none" font-family="Arial" font-size="24px" font-style="normal" font-weight="normal" text-decoration="none" x="0" y="150">UNREGISTERED</text><text fill="#eeeeee" stroke="none" font-family="Arial" font-size="24px" font-style="normal" font-weight="normal" text-decoration="none" x="0" y="180">UNREGISTERED</text><text fill="#eeeeee" stroke="none" font-family="Arial" font-size="24px" font-style="normal" font-weight="normal" text-decoration="none" x="0" y="210">UNREGISTERED</text><text fill="#eeeeee" stroke="none" font-family="Arial" font-size="24px" font-style="normal" font-weight="normal" text-decoration="none" x="0" y="240">UNREGISTERED</text><text fill="#eeeeee" stroke="none" font-family="Arial" font-size="24px" font-style="normal" font-weight="normal" text-decoration="none" x="0" y="270">UNREGISTERED</text><text fill="#eeeeee" stroke="none" font-family="Arial" font-size="24px" font-style="normal" font-weight="normal" text-decoration="none" x="0" y="300">UNREGISTERED</text><text fill="#eeeeee" stroke="none" font-family="Arial" font-size="24px" font-style="normal" font-weight="normal" text-decoration="none" x="0" y="330">UNREGISTERED</text><text fill="#eeeeee" stroke="none" font-family="Arial" font-size="24px" font-style="normal" font-weight="normal" text-decoration="none" x="0" y="360">UNREGISTERED</text><text fill="#eeeeee" stroke="none" font-family="Arial" font-size="24px" font-style="normal" font-weight="normal" text-decoration="none" x="0" y="390">UNREGISTERED</text><text fill="#eeeeee" stroke="none" font-family="Arial" font-size="24px" font-style="normal" font-weight="normal" text-decoration="none" x="200" y="0">UNREGISTERED</text><text fill="#eeeeee" stroke="none" font-family="Arial" font-size="24px" font-style="normal" font-weight="normal" text-decoration="none" x="200" y="30">UNREGISTERED</text><text fill="#eeeeee" stroke="none" font-family="Arial" font-size="24px" font-style="normal" font-weight="normal" text-decoration="none" x="200" y="60">UNREGISTERED</text><text fill="#eeeeee" stroke="none" font-family="Arial" font-size="24px" font-style="normal" font-weight="normal" text-decoration="none" x="200" y="90">UNREGISTERED</text><text fill="#eeeeee" stroke="none" font-family="Arial" font-size="24px" font-style="normal" font-weight="normal" text-decoration="none" x="200" y="120">UNREGISTERED</text><text fill="#eeeeee" stroke="none" font-family="Arial" font-size="24px" font-style="normal" font-weight="normal" text-decoration="none" x="200" y="150">UNREGISTERED</text><text fill="#eeeeee" stroke="none" font-family="Arial" font-size="24px" font-style="normal" font-weight="normal" text-decoration="none" x="200" y="180">UNREGISTERED</text><text fill="#eeeeee" stroke="none" font-family="Arial" font-size="24px" font-style="normal" font-weight="normal" text-decoration="none" x="200" y="210">UNREGISTERED</text><text fill="#eeeeee" stroke="none" font-family="Arial" font-size="24px" font-style="normal" font-weight="normal" text-decoration="none" x="200" y="240">UNREGISTERED</text><text fill="#eeeeee" stroke="none" font-family="Arial" font-size="24px" font-style="normal" font-weight="normal" text-decoration="none" x="200" y="270">UNREGISTERED</text><text fill="#eeeeee" stroke="none" font-family="Arial" font-size="24px" font-style="normal" font-weight="normal" text-decoration="none" x="200" y="300">UNREGISTERED</text><text fill="#eeeeee" stroke="none" font-family="Arial" font-size="24px" font-style="normal" font-weight="normal" text-decoration="none" x="200" y="330">UNREGISTERED</text><text fill="#eeeeee" stroke="none" font-family="Arial" font-size="24px" font-style="normal" font-weight="normal" text-decoration="none" x="200" y="360">UNREGISTERED</text><text fill="#eeeeee" stroke="none" font-family="Arial" font-size="24px" font-style="normal" font-weight="normal" text-decoration="none" x="200" y="390">UNREGISTERED</text><text fill="#eeeeee" stroke="none" font-family="Arial" font-size="24px" font-style="normal" font-weight="normal" text-decoration="none" x="400" y="0">UNREGISTERED</text><text fill="#eeeeee" stroke="none" font-family="Arial" font-size="24px" font-style="normal" font-weight="normal" text-decoration="none" x="400" y="30">UNREGISTERED</text><text fill="#eeeeee" stroke="none" font-family="Arial" font-size="24px" font-style="normal" font-weight="normal" text-decoration="none" x="400" y="60">UNREGISTERED</text><text fill="#eeeeee" stroke="none" font-family="Arial" font-size="24px" font-style="normal" font-weight="normal" text-decoration="none" x="400" y="90">UNREGISTERED</text><text fill="#eeeeee" stroke="none" font-family="Arial" font-size="24px" font-style="normal" font-weight="normal" text-decoration="none" x="400" y="120">UNREGISTERED</text><text fill="#eeeeee" stroke="none" font-family="Arial" font-size="24px" font-style="normal" font-weight="normal" text-decoration="none" x="400" y="150">UNREGISTERED</text><text fill="#eeeeee" stroke="none" font-family="Arial" font-size="24px" font-style="normal" font-weight="normal" text-decoration="none" x="400" y="180">UNREGISTERED</text><text fill="#eeeeee" stroke="none" font-family="Arial" font-size="24px" font-style="normal" font-weight="normal" text-decoration="none" x="400" y="210">UNREGISTERED</text><text fill="#eeeeee" stroke="none" font-family="Arial" font-size="24px" font-style="normal" font-weight="normal" text-decoration="none" x="400" y="240">UNREGISTERED</text><text fill="#eeeeee" stroke="none" font-family="Arial" font-size="24px" font-style="normal" font-weight="normal" text-decoration="none" x="400" y="270">UNREGISTERED</text><text fill="#eeeeee" stroke="none" font-family="Arial" font-size="24px" font-style="normal" font-weight="normal" text-decoration="none" x="400" y="300">UNREGISTERED</text><text fill="#eeeeee" stroke="none" font-family="Arial" font-size="24px" font-style="normal" font-weight="normal" text-decoration="none" x="400" y="330">UNREGISTERED</text><text fill="#eeeeee" stroke="none" font-family="Arial" font-size="24px" font-style="normal" font-weight="normal" text-decoration="none" x="400" y="360">UNREGISTERED</text><text fill="#eeeeee" stroke="none" font-family="Arial" font-size="24px" font-style="normal" font-weight="normal" text-decoration="none" x="400" y="390">UNREGISTERED</text><text fill="#eeeeee" stroke="none" font-family="Arial" font-size="24px" font-style="normal" font-weight="normal" text-decoration="none" x="600" y="0">UNREGISTERED</text><text fill="#eeeeee" stroke="none" font-family="Arial" font-size="24px" font-style="normal" font-weight="normal" text-decoration="none" x="600" y="30">UNREGISTERED</text><text fill="#eeeeee" stroke="none" font-family="Arial" font-size="24px" font-style="normal" font-weight="normal" text-decoration="none" x="600" y="60">UNREGISTERED</text><text fill="#eeeeee" stroke="none" font-family="Arial" font-size="24px" font-style="normal" font-weight="normal" text-decoration="none" x="600" y="90">UNREGISTERED</text><text fill="#eeeeee" stroke="none" font-family="Arial" font-size="24px" font-style="normal" font-weight="normal" text-decoration="none" x="600" y="120">UNREGISTERED</text><text fill="#eeeeee" stroke="none" font-family="Arial" font-size="24px" font-style="normal" font-weight="normal" text-decoration="none" x="600" y="150">UNREGISTERED</text><text fill="#eeeeee" stroke="none" font-family="Arial" font-size="24px" font-style="normal" font-weight="normal" text-decoration="none" x="600" y="180">UNREGISTERED</text><text fill="#eeeeee" stroke="none" font-family="Arial" font-size="24px" font-style="normal" font-weight="normal" text-decoration="none" x="600" y="210">UNREGISTERED</text><text fill="#eeeeee" stroke="none" font-family="Arial" font-size="24px" font-style="normal" font-weight="normal" text-decoration="none" x="600" y="240">UNREGISTERED</text><text fill="#eeeeee" stroke="none" font-family="Arial" font-size="24px" font-style="normal" font-weight="normal" text-decoration="none" x="600" y="270">UNREGISTERED</text><text fill="#eeeeee" stroke="none" font-family="Arial" font-size="24px" font-style="normal" font-weight="normal" text-decoration="none" x="600" y="300">UNREGISTERED</text><text fill="#eeeeee" stroke="none" font-family="Arial" font-size="24px" font-style="normal" font-weight="normal" text-decoration="none" x="600" y="330">UNREGISTERED</text><text fill="#eeeeee" stroke="none" font-family="Arial" font-size="24px" font-style="normal" font-weight="normal" text-decoration="none" x="600" y="360">UNREGISTERED</text><text fill="#eeeeee" stroke="none" font-family="Arial" font-size="24px" font-style="normal" font-weight="normal" text-decoration="none" x="600" y="390">UNREGISTERED</text><text fill="#eeeeee" stroke="none" font-family="Arial" font-size="24px" font-style="normal" font-weight="normal" text-decoration="none" x="800" y="0">UNREGISTERED</text><text fill="#eeeeee" stroke="none" font-family="Arial" font-size="24px" font-style="normal" font-weight="normal" text-decoration="none" x="800" y="30">UNREGISTERED</text><text fill="#eeeeee" stroke="none" font-family="Arial" font-size="24px" font-style="normal" font-weight="normal" text-decoration="none" x="800" y="60">UNREGISTERED</text><text fill="#eeeeee" stroke="none" font-family="Arial" font-size="24px" font-style="normal" font-weight="normal" text-decoration="none" x="800" y="90">UNREGISTERED</text><text fill="#eeeeee" stroke="none" font-family="Arial" font-size="24px" font-style="normal" font-weight="normal" text-decoration="none" x="800" y="120">UNREGISTERED</text><text fill="#eeeeee" stroke="none" font-family="Arial" font-size="24px" font-style="normal" font-weight="normal" text-decoration="none" x="800" y="150">UNREGISTERED</text><text fill="#eeeeee" stroke="none" font-family="Arial" font-size="24px" font-style="normal" font-weight="normal" text-decoration="none" x="800" y="180">UNREGISTERED</text><text fill="#eeeeee" stroke="none" font-family="Arial" font-size="24px" font-style="normal" font-weight="normal" text-decoration="none" x="800" y="210">UNREGISTERED</text><text fill="#eeeeee" stroke="none" font-family="Arial" font-size="24px" font-style="normal" font-weight="normal" text-decoration="none" x="800" y="240">UNREGISTERED</text><text fill="#eeeeee" stroke="none" font-family="Arial" font-size="24px" font-style="normal" font-weight="normal" text-decoration="none" x="800" y="270">UNREGISTERED</text><text fill="#eeeeee" stroke="none" font-family="Arial" font-size="24px" font-style="normal" font-weight="normal" text-decoration="none" x="800" y="300">UNREGISTERED</text><text fill="#eeeeee" stroke="none" font-family="Arial" font-size="24px" font-style="normal" font-weight="normal" text-decoration="none" x="800" y="330">UNREGISTERED</text><text fill="#eeeeee" stroke="none" font-family="Arial" font-size="24px" font-style="normal" font-weight="normal" text-decoration="none" x="800" y="360">UNREGISTERED</text><text fill="#eeeeee" stroke="none" font-family="Arial" font-size="24px" font-style="normal" font-weight="normal" text-decoration="none" x="800" y="390">UNREGISTERED</text><g transform="translate(-118,-110) scale(1,1)"><rect fill="#C0C0C0" stroke="none" x="399" y="127" width="327" height="383" opacity="0.2"/></g><g transform="translate(-118,-110) scale(1,1)"><rect fill="#ffffff" stroke="none" x="392" y="120" width="327" height="383"/></g><g transform="translate(-118,-110) scale(1,1)"><path fill="none" stroke="#000000" d="M 392 120 L 719 120 L 719 503 L 392 503 L 392 120 Z Z" stroke-miterlimit="10"/></g><g transform="translate(-118,-110) scale(1,1)"><g><path fill="none" stroke="none"/><text fill="#000000" stroke="none" font-family="Arial" font-size="13px" font-style="normal" font-weight="bold" text-decoration="none" x="502.02099609375" y="139.5">Consulta Catálogo</text></g></g><g transform="translate(-118,-110) scale(1,1)"><path fill="#C0C0C0" stroke="none" d="M 477 216 C 477 206.6111584 515.055792 199 562 199 C 608.944208 199 647 206.6111584 647 216 C 647 225.3888416 608.944208 233 562 233 C 515.055792 233 477 225.3888416 477 216 Z" opacity="0.2"/></g><g transform="translate(-118,-110) scale(1,1)"><path fill="#ffffff" stroke="none" d="M 470 209 C 470 199.6111584 508.055792 192 555 192 C 601.944208 192 640 199.6111584 640 209 C 640 218.3888416 601.944208 226 555 226 C 508.055792 226 470 218.3888416 470 209 Z"/></g><g transform="translate(-118,-110) scale(1,1)"><path fill="none" stroke="#000000" d="M 470 209 C 470 199.6111584 508.055792 192 555 192 C 601.944208 192 640 199.6111584 640 209 C 640 218.3888416 601.944208 226 555 226 C 508.055792 226 470 218.3888416 470 209 Z" stroke-miterlimit="10"/></g><g transform="translate(-118,-110) scale(1,1)"><g><path fill="none" stroke="none"/><text fill="#000000" stroke="none" font-family="Arial" font-size="13px" font-style="normal" font-weight="bold" text-decoration="none" x="502.619140625" y="216">Mostrar Categoría</text></g></g><g transform="translate(-118,-110) scale(1,1)"><path fill="#C0C0C0" stroke="none" d="M 462 312 C 462 302.6111584 506.77152 295 562 295 C 617.22848 295 662 302.6111584 662 312 C 662 321.3888416 617.22848 329 562 329 C 506.77152 329 462 321.3888416 462 312 Z" opacity="0.2"/></g><g transform="translate(-118,-110) scale(1,1)"><path fill="#ffffff" stroke="none" d="M 455 305 C 455 295.6111584 499.77152 288 555 288 C 610.22848 288 655 295.6111584 655 305 C 655 314.3888416 610.22848 322 555 322 C 499.77152 322 455 314.3888416 455 305 Z"/></g><g transform="translate(-118,-110) scale(1,1)"><path fill="none" stroke="#000000" d="M 455 305 C 455 295.6111584 499.77152 288 555 288 C 610.22848 288 655 295.6111584 655 305 C 655 314.3888416 610.22848 322 555 322 C 499.77152 322 455 314.3888416 455 305 Z" stroke-miterlimit="10"/></g><g transform="translate(-118,-110) scale(1,1)"><g><path fill="none" stroke="none"/><text fill="#000000" stroke="none" font-family="Arial" font-size="13px" font-style="normal" font-weight="bold" text-decoration="none" x="494.668701171875" y="312">Mostrar por producto</text></g></g><g transform="translate(-118,-110) scale(1,1)"><path fill="#C0C0C0" stroke="none" d="M 480 416 C 480 406.6111584 516.7126464 399 562 399 C 607.2873536 399 644 406.6111584 644 416 C 644 425.3888416 607.2873536 433 562 433 C 516.7126464 433 480 425.3888416 480 416 Z" opacity="0.2"/></g><g transform="translate(-118,-110) scale(1,1)"><path fill="#ffffff" stroke="none" d="M 473 409 C 473 399.6111584 509.7126464 392 555 392 C 600.2873536 392 637 399.6111584 637 409 C 637 418.3888416 600.2873536 426 555 426 C 509.7126464 426 473 418.3888416 473 409 Z"/></g><g transform="translate(-118,-110) scale(1,1)"><path fill="none" stroke="#000000" d="M 473 409 C 473 399.6111584 509.7126464 392 555 392 C 600.2873536 392 637 399.6111584 637 409 C 637 418.3888416 600.2873536 426 555 426 C 509.7126464 426 473 418.3888416 473 409 Z" stroke-miterlimit="10"/></g><g transform="translate(-118,-110) scale(1,1)"><g><path fill="none" stroke="none"/><text fill="#000000" stroke="none" font-family="Arial" font-size="13px" font-style="normal" font-weight="bold" text-decoration="none" x="505.1455078125" y="416">Mostrar Catálogo</text></g></g><g transform="translate(-118,-110) scale(1,1)"><path fill="#ffffff" stroke="none" d="M 874.5965010653409 240.97 C 874.5965010653409 223.313454944 888.3408692887591 209 905.29541015625 209 C 922.2499510237409 209 935.9943192471591 223.313454944 935.9943192471591 240.97 C 935.9943192471591 258.626545056 922.2499510237409 272.94 905.29541015625 272.94 C 888.3408692887591 272.94 874.5965010653409 258.626545056 874.5965010653409 240.97 Z"/></g><g transform="translate(-118,-110) scale(1,1)"><path fill="none" stroke="#000000" d="M 874.5965010653409 240.97 C 874.5965010653409 223.313454944 888.3408692887591 209 905.29541015625 209 C 922.2499510237409 209 935.9943192471591 223.313454944 935.9943192471591 240.97 C 935.9943192471591 258.626545056 922.2499510237409 272.94 905.29541015625 272.94 C 888.3408692887591 272.94 874.5965010653409 258.626545056 874.5965010653409 240.97 Z" stroke-miterlimit="10"/></g><g transform="translate(-118,-110) scale(1,1)"><path fill="none" stroke="#000000" d="M 905.29541015625 272.94 L 905.29541015625 334.06" stroke-miterlimit="10"/></g><g transform="translate(-118,-110) scale(1,1)"><path fill="none" stroke="#000000" d="M 872.7906828835228 295.86 L 937.8001374289772 295.86" stroke-miterlimit="10"/></g><g transform="translate(-118,-110) scale(1,1)"><path fill="none" stroke="#000000" d="M 905.29541015625 334.06 L 860.1499556107955 398" stroke-miterlimit="10"/></g><g transform="translate(-118,-110) scale(1,1)"><path fill="none" stroke="#000000" d="M 905.29541015625 334.06 L 950.4408647017045 398" stroke-miterlimit="10"/></g><g transform="translate(-118,-110) scale(1,1)"><g><path fill="none" stroke="none"/><text fill="#000000" stroke="none" font-family="Arial" font-size="13px" font-style="normal" font-weight="bold" text-decoration="none" x="862.658203125" y="418.5">Base de Datos</text></g></g><g transform="translate(-118,-110) scale(1,1)"><path fill="#ffffff" stroke="none" d="M 150.9746319247159 186.01 C 150.9746319247159 176.615635552 158.38651635933408 169 167.529541015625 169 C 176.67256567191592 169 184.0844501065341 176.615635552 184.0844501065341 186.01 C 184.0844501065341 195.404364448 176.67256567191592 203.02 167.529541015625 203.02 C 158.38651635933408 203.02 150.9746319247159 195.404364448 150.9746319247159 186.01 Z"/></g><g transform="translate(-118,-110) scale(1,1)"><path fill="none" stroke="#000000" d="M 150.9746319247159 186.01 C 150.9746319247159 176.615635552 158.38651635933408 169 167.529541015625 169 C 176.67256567191592 169 184.0844501065341 176.615635552 184.0844501065341 186.01 C 184.0844501065341 195.404364448 176.67256567191592 203.02 167.529541015625 203.02 C 158.38651635933408 203.02 150.9746319247159 195.404364448 150.9746319247159 186.01 Z" stroke-miterlimit="10"/></g><g transform="translate(-118,-110) scale(1,1)"><path fill="none" stroke="#000000" d="M 167.529541015625 203.02 L 167.529541015625 235.98000000000002" stroke-miterlimit="10"/></g><g transform="translate(-118,-110) scale(1,1)"><path fill="none" stroke="#000000" d="M 150.00081374289772 215.38 L 185.05826828835228 215.38" stroke-miterlimit="10"/></g><g transform="translate(-118,-110) scale(1,1)"><path fill="none" stroke="#000000" d="M 167.529541015625 235.98000000000002 L 143.18408647017046 270" stroke-miterlimit="10"/></g><g transform="translate(-118,-110) scale(1,1)"><path fill="none" stroke="#000000" d="M 167.529541015625 235.98000000000002 L 191.87499556107954 270" stroke-miterlimit="10"/></g><g transform="translate(-118,-110) scale(1,1)"><g><path fill="none" stroke="none"/><text fill="#000000" stroke="none" font-family="Arial" font-size="13px" font-style="normal" font-weight="bold" text-decoration="none" x="135.016845703125" y="290.5">Comprador</text></g></g><g transform="translate(-118,-110) scale(1,1)"><path fill="#ffffff" stroke="none" d="M 150.9194561434659 354.01 C 150.9194561434659 344.615635552 158.33134057808408 337 167.474365234375 337 C 176.61738989066592 337 184.0292743252841 344.615635552 184.0292743252841 354.01 C 184.0292743252841 363.40436444799997 176.61738989066592 371.02 167.474365234375 371.02 C 158.33134057808408 371.02 150.9194561434659 363.40436444799997 150.9194561434659 354.01 Z"/></g><g transform="translate(-118,-110) scale(1,1)"><path fill="none" stroke="#000000" d="M 150.9194561434659 354.01 C 150.9194561434659 344.615635552 158.33134057808408 337 167.474365234375 337 C 176.61738989066592 337 184.0292743252841 344.615635552 184.0292743252841 354.01 C 184.0292743252841 363.40436444799997 176.61738989066592 371.02 167.474365234375 371.02 C 158.33134057808408 371.02 150.9194561434659 363.40436444799997 150.9194561434659 354.01 Z" stroke-miterlimit="10"/></g><g transform="translate(-118,-110) scale(1,1)"><path fill="none" stroke="#000000" d="M 167.474365234375 371.02 L 167.474365234375 403.98" stroke-miterlimit="10"/></g><g transform="translate(-118,-110) scale(1,1)"><path fill="none" stroke="#000000" d="M 149.94563796164772 383.38 L 185.00309250710228 383.38" stroke-miterlimit="10"/></g><g transform="translate(-118,-110) scale(1,1)"><path fill="none" stroke="#000000" d="M 167.474365234375 403.98 L 143.12891068892046 438" stroke-miterlimit="10"/></g><g transform="translate(-118,-110) scale(1,1)"><path fill="none" stroke="#000000" d="M 167.474365234375 403.98 L 191.81981977982954 438" stroke-miterlimit="10"/></g><g transform="translate(-118,-110) scale(1,1)"><g><path fill="none" stroke="none"/><text fill="#000000" stroke="none" font-family="Arial" font-size="13px" font-style="normal" font-weight="bold" text-decoration="none" x="142.661376953125" y="458.5">Visitante</text></g></g><g transform="translate(-118,-110) scale(1,1)"><path fill="#ffffff" stroke="none" d="M 289.57389399857954 252.73 C 289.57389399857954 241.833420896 298.13713912207044 233 308.700439453125 233 C 319.26373978417956 233 327.82698490767046 241.833420896 327.82698490767046 252.73 C 327.82698490767046 263.626579104 319.26373978417956 272.46 308.700439453125 272.46 C 298.13713912207044 272.46 289.57389399857954 263.626579104 289.57389399857954 252.73 Z"/></g><g transform="translate(-118,-110) scale(1,1)"><path fill="none" stroke="#000000" d="M 289.57389399857954 252.73 C 289.57389399857954 241.833420896 298.13713912207044 233 308.700439453125 233 C 319.26373978417956 233 327.82698490767046 241.833420896 327.82698490767046 252.73 C 327.82698490767046 263.626579104 319.26373978417956 272.46 308.700439453125 272.46 C 298.13713912207044 272.46 289.57389399857954 263.626579104 289.57389399857954 252.73 Z" stroke-miterlimit="10"/></g><g transform="translate(-118,-110) scale(1,1)"><path fill="none" stroke="#000000" d="M 308.700439453125 272.46 L 308.700439453125 310.54" stroke-miterlimit="10"/></g><g transform="translate(-118,-110) scale(1,1)"><path fill="none" stroke="#000000" d="M 288.44880308948865 286.74 L 328.95207581676135 286.74" stroke-miterlimit="10"/></g><g transform="translate(-118,-110) scale(1,1)"><path fill="none" stroke="#000000" d="M 308.700439453125 310.54 L 280.5731667258523 350" stroke-miterlimit="10"/></g><g transform="translate(-118,-110) scale(1,1)"><path fill="none" stroke="#000000" d="M 308.700439453125 310.54 L 336.8277121803977 350" stroke-miterlimit="10"/></g><g transform="translate(-118,-110) scale(1,1)"><g><path fill="none" stroke="none"/><text fill="#000000" stroke="none" font-family="Arial" font-size="13px" font-style="normal" font-weight="bold" text-decoration="none" x="286.302734375" y="370.5">Usuario</text></g></g><g transform="translate(-118,-110) scale(1,1)"><path fill="none" stroke="#000000" d="M 338 292 L 508 227" stroke-miterlimit="10"/></g><g transform="translate(-118,-110) scale(1,1)"><path fill="none" stroke="#000000" d="M 338 304 L 454 305" stroke-miterlimit="10"/></g><g transform="translate(-118,-110) scale(1,1)"><path fill="none" stroke="#000000" d="M 338 317 L 513 391" stroke-miterlimit="10"/></g><g transform="translate(-118,-110) scale(1,1)"><path fill="none" stroke="#000000" d="M 200 378 L 279 324" stroke-miterlimit="10"/></g><g transform="translate(-118,-110) scale(1,1)"><path fill="#FFFFFF" stroke="none" d="M 266.97107256233573 342.4202308535862 L 279 324 L 257.46919369083423 328.51933398601915"/></g><g transform="translate(-118,-110) scale(1,1)"><path fill="none" stroke="#000000" d="M 266.97107256233573 342.4202308535862 L 279 324 L 257.46919369083423 328.51933398601915 L 266.97107256233573 342.4202308535862" stroke-miterlimit="10"/></g><g transform="translate(-118,-110) scale(1,1)"><path fill="none" stroke="#000000" d="M 208 253 L 279 289" stroke-miterlimit="10"/></g><g transform="translate(-118,-110) scale(1,1)"><path fill="#FFFFFF" stroke="none" d="M 257.0644551289022 287.3171835489114 L 279 289 L 264.679158396682 272.2992965485679"/></g><g transform="translate(-118,-110) scale(1,1)"><path fill="none" stroke="#000000" d="M 257.0644551289022 287.3171835489114 L 279 289 L 264.679158396682 272.2992965485679 L 257.0644551289022 287.3171835489114" stroke-miterlimit="10"/></g><g transform="translate(-118,-110) scale(1,1)"><path fill="none" stroke="#000000" d="M 614 227 L 855 301" stroke-miterlimit="10"/></g><g transform="translate(-118,-110) scale(1,1)"><path fill="none" stroke="#000000" d="M 656 308 L 855 314" stroke-miterlimit="10"/></g><g transform="translate(-118,-110) scale(1,1)"><path fill="none" stroke="#000000" d="M 623 391 L 855 329" stroke-miterlimit="10"/></g></g></svg>