<svg version="1.1" xmlns="http://www.w3.org/2000/svg" xmlns:xlink="http://www.w3.org/1999/xlink" width="632.236328125" height="480"><defs/><g><text fill="#eeeeee" stroke="none" font-family="Arial" font-size="24px" font-style="normal" font-weight="normal" text-decoration="none" x="0" y="0">UNREGISTERED</text><text fill="#eeeeee" stroke="none" font-family="Arial" font-size="24px" font-style="normal" font-weight="normal" text-decoration="none" x="0" y="30">UNREGISTERED</text><text fill="#eeeeee" stroke="none" font-family="Arial" font-size="24px" font-style="normal" font-weight="normal" text-decoration="none" x="0" y="60">UNREGISTERED</text><text fill="#eeeeee" stroke="none" font-family="Arial" font-size="24px" font-style="normal" font-weight="normal" text-decoration="none" x="0" y="90">UNREGISTERED</text><text fill="#eeeeee" stroke="none" font-family="Arial" font-size="24px" font-style="normal" font-weight="normal" text-decoration="none" x="0" y="120">UNREGISTERED</text><text fill="#eeeeee" stroke="none" font-family="Arial" font-size="24px" font-style="normal" font-weight="normal" text-decoration="none" x="0" y="150">UNREGISTERED</text><text fill="#eeeeee" stroke="none" font-family="Arial" font-size="24px" font-style="normal" font-weight="normal" text-decoration="none" x="0" y="180">UNREGISTERED</text><text fill="#eeeeee" stroke="none" font-family="Arial" font-size="24px" font-style="normal" font-weight="normal" text-decoration="none" x="0" y="210">UNREGISTERED</text><text fill="#eeeeee" stroke="none" font-family="Arial" font-size="24px" font-style="normal" font-weight="normal" text-decoration="none" x="0" y="240">UNREGISTERED</text><text fill="#eeeeee" stroke="none" font-family="Arial" font-size="24px" font-style="normal" font-weight="normal" text-decoration="none" x="0" y="270">UNREGISTERED</text><text fill="#eeeeee" stroke="none" font-family="Arial" font-size="24px" font-style="normal" font-weight="normal" text-decoration="none" x="0" y="300">UNREGISTERED</text><text fill="#eeeeee" stroke="none" font-family="Arial" font-size="24px" font-style="normal" font-weight="normal" text-decoration="none" x="0" y="330">UNREGISTERED</text><text fill="#eeeeee" stroke="none" font-family="Arial" font-size="24px" font-style="normal" font-weight="normal" text-decoration="none" x="0" y="360">UNREGISTERED</text><text fill="#eeeeee" stroke="none" font-family="Arial" font-size="24px" font-style="normal" font-weight="normal" text-decoration="none" x="0" y="390">UNREGISTERED</text><text fill="#eeeeee" stroke="none" font-family="Arial" font-size="24px" font-style="normal" font-weight="normal" text-decoration="none" x="0" y="420">UNREGISTERED</text><text fill="#eeeeee" stroke="none" font-family="Arial" font-size="24px" font-style="normal" font-weight="normal" text-decoration="none" x="0" y="450">UNREGISTERED</text><text fill="#eeeeee" stroke="none" font-family="Arial" font-size="24px" font-style="normal" font-weight="normal" text-decoration="none" x="200" y="0">UNREGISTERED</text><text fill="#eeeeee" stroke="none" font-family="Arial" font-size="24px" font-style="normal" font-weight="normal" text-decoration="none" x="200" y="30">UNREGISTERED</text><text fill="#eeeeee" stroke="none" font-family="Arial" font-size="24px" font-style="normal" font-weight="normal" text-decoration="none" x="200" y="60">UNREGISTERED</text><text fill="#eeeeee" stroke="none" font-family="Arial" font-size="24px" font-style="normal" font-weight="normal" text-decoration="none" x="200" y="90">UNREGISTERED</text><text fill="#eeeeee" stroke="none" font-family="Arial" font-size="24px" font-style="normal" font-weight="normal" text-decoration="none" x="200" y="120">UNREGISTERED</text><text fill="#eeeeee" stroke="none" font-family="Arial" font-size="24px" font-style="normal" font-weight="normal" text-decoration="none" x="200" y="150">UNREGISTERED</text><text fill="#eeeeee" stroke="none" font-family="Arial" font-size="24px" font-style="normal" font-weight="normal" text-decoration="none" x="200" y="180">UNREGISTERED</text><text fill="#eeeeee" stroke="none" font-family="Arial" font-size="24px" font-style="normal" font-weight="normal" text-decoration="none" x="200" y="210">UNREGISTERED</text><text fill="#eeeeee" stroke="none" font-family="Arial" font-size="24px" font-style="normal" font-weight="normal" text-decoration="none" x="200" y="240">UNREGISTERED</text><text fill="#eeeeee" stroke="none" font-family="Arial" font-size="24px" font-style="normal" font-weight="normal" text-decoration="none" x="200" y="270">UNREGISTERED</text><text fill="#eeeeee" stroke="none" font-family="Arial" font-size="24px" font-style="normal" font-weight="normal" text-decoration="none" x="200" y="300">UNREGISTERED</text><text fill="#eeeeee" stroke="none" font-family="Arial" font-size="24px" font-style="normal" font-weight="normal" text-decoration="none" x="200" y="330">UNREGISTERED</text><text fill="#eeeeee" stroke="none" font-family="Arial" font-size="24px" font-style="normal" font-weight="normal" text-decoration="none" x="200" y="360">UNREGISTERED</text><text fill="#eeeeee" stroke="none" font-family="Arial" font-size="24px" font-style="normal" font-weight="normal" text-decoration="none" x="200" y="390">UNREGISTERED</text><text fill="#eeeeee" stroke="none" font-family="Arial" font-size="24px" font-style="normal" font-weight="normal" text-decoration="none" x="200" y="420">UNREGISTERED</text><text fill="#eeeeee" stroke="none" font-family="Arial" font-size="24px" font-style="normal" font-weight="normal" text-decoration="none" x="200" y="450">UNREGISTERED</text><text fill="#eeeeee" stroke="none" font-family="Arial" font-size="24px" font-style="normal" font-weight="normal" text-decoration="none" x="400" y="0">UNREGISTERED</text><text fill="#eeeeee" stroke="none" font-family="Arial" font-size="24px" font-style="normal" font-weight="normal" text-decoration="none" x="400" y="30">UNREGISTERED</text><text fill="#eeeeee" stroke="none" font-family="Arial" font-size="24px" font-style="normal" font-weight="normal" text-decoration="none" x="400" y="60">UNREGISTERED</text><text fill="#eeeeee" stroke="none" font-family="Arial" font-size="24px" font-style="normal" font-weight="normal" text-decoration="none" x="400" y="90">UNREGISTERED</text><text fill="#eeeeee" stroke="none" font-family="Arial" font-size="24px" font-style="normal" font-weight="normal" text-decoration="none" x="400" y="120">UNREGISTERED</text><text fill="#eeeeee" stroke="none" font-family="Arial" font-size="24px" font-style="normal" font-weight="normal" text-decoration="none" x="400" y="150">UNREGISTERED</text><text fill="#eeeeee" stroke="none" font-family="Arial" font-size="24px" font-style="normal" font-weight="normal" text-decoration="none" x="400" y="180">UNREGISTERED</text><text fill="#eeeeee" stroke="none" font-family="Arial" font-size="24px" font-style="normal" font-weight="normal" text-decoration="none" x="400" y="210">UNREGISTERED</text><text fill="#eeeeee" stroke="none" font-family="Arial" font-size="24px" font-style="normal" font-weight="normal" text-decoration="none" x="400" y="240">UNREGISTERED</text><text fill="#eeeeee" stroke="none" font-family="Arial" font-size="24px" font-style="normal" font-weight="normal" text-decoration="none" x="400" y="270">UNREGISTERED</text><text fill="#eeeeee" stroke="none" font-family="Arial" font-size="24px" font-style="normal" font-weight="normal" text-decoration="none" x="400" y="300">UNREGISTERED</text><text fill="#eeeeee" stroke="none" font-family="Arial" font-size="24px" font-style="normal" font-weight="normal" text-decoration="none" x="400" y="330">UNREGISTERED</text><text fill="#eeeeee" stroke="none" font-family="Arial" font-size="24px" font-style="normal" font-weight="normal" text-decoration="none" x="400" y="360">UNREGISTERED</text><text fill="#eeeeee" stroke="none" font-family="Arial" font-size="24px" font-style="normal" font-weight="normal" text-decoration="none" x="400" y="390">UNREGISTERED</text><text fill="#eeeeee" stroke="none" font-family="Arial" font-size="24px" font-style="normal" font-weight="normal" text-decoration="none" x="400" y="420">UNREGISTERED</text><text fill="#eeeeee" stroke="none" font-family="Arial" font-size="24px" font-style="normal" font-weight="normal" text-decoration="none" x="400" y="450">UNREGISTERED</text><text fill="#eeeeee" stroke="none" font-family="Arial" font-size="24px" font-style="normal" font-weight="normal" text-decoration="none" x="600" y="0">UNREGISTERED</text><text fill="#eeeeee" stroke="none" font-family="Arial" font-size="24px" font-style="normal" font-weight="normal" text-decoration="none" x="600" y="30">UNREGISTERED</text><text fill="#eeeeee" stroke="none" font-family="Arial" font-size="24px" font-style="normal" font-weight="normal" text-decoration="none" x="600" y="60">UNREGISTERED</text><text fill="#eeeeee" stroke="none" font-family="Arial" font-size="24px" font-style="normal" font-weight="normal" text-decoration="none" x="600" y="90">UNREGISTERED</text><text fill="#eeeeee" stroke="none" font-family="Arial" font-size="24px" font-style="normal" font-weight="normal" text-decoration="none" x="600" y="120">UNREGISTERED</text><text fill="#eeeeee" stroke="none" font-family="Arial" font-size="24px" font-style="normal" font-weight="normal" text-decoration="none" x="600" y="150">UNREGISTERED</text><text fill="#eeeeee" stroke="none" font-family="Arial" font-size="24px" font-style="normal" font-weight="normal" text-decoration="none" x="600" y="180">UNREGISTERED</text><text fill="#eeeeee" stroke="none" font-family="Arial" font-size="24px" font-style="normal" font-weight="normal" text-decoration="none" x="600" y="210">UNREGISTERED</text><text fill="#eeeeee" stroke="none" font-family="Arial" font-size="24px" font-style="normal" font-weight="normal" text-decoration="none" x="600" y="240">UNREGISTERED</text><text fill="#eeeeee" stroke="none" font-family="Arial" font-size="24px" font-style="normal" font-weight="normal" text-decoration="none" x="600" y="270">UNREGISTERED</text><text fill="#eeeeee" stroke="none" font-family="Arial" font-size="24px" font-style="normal" font-weight="normal" text-decoration="none" x="600" y="300">UNREGISTERED</text><text fill="#eeeeee" stroke="none" font-family="Arial" font-size="24px" font-style="normal" font-weight="normal" text-decoration="none" x="600" y="330">UNREGISTERED</text><text fill="#eeeeee" stroke="none" font-family="Arial" font-size="24px" font-style="normal" font-weight="normal" text-decoration="none" x="600" y="360">UNREGISTERED</text><text fill="#eeeeee" stroke="none" font-family="Arial" font-size="24px" font-style="normal" font-weight="normal" text-decoration="none" x="600" y="390">UNREGISTERED</text><text fill="#eeeeee" stroke="none" font-family="Arial" font-size="24px" font-style="normal" font-weight="normal" text-decoration="none" x="600" y="420">UNREGISTERED</text><text fill="#eeeeee" stroke="none" font-family="Arial" font-size="24px" font-style="normal" font-weight="normal" text-decoration="none" x="600" y="450">UNREGISTERED</text><g transform="translate(-246,-309) scale(1,1)"><rect fill="#C0C0C0" stroke="none" x="579" y="335" width="64.61181640625" height="44" opacity="0.2"/></g><g transform="translate(-246,-309) scale(1,1)"><rect fill="#ffffff" stroke="none" x="572" y="328" width="64.61181640625" height="44"/></g><g transform="translate(-246,-309) scale(1,1)"><path fill="none" stroke="#000000" d="M 572 328 L 636.61181640625 328 L 636.61181640625 372 L 572 372 L 572 328 Z Z" stroke-miterlimit="10"/></g><g transform="translate(-246,-309) scale(1,1)"><path fill="none" stroke="#000000" d="M 572 353 L 636.61181640625 353" stroke-miterlimit="10"/></g><g transform="translate(-246,-309) scale(1,1)"><path fill="none" stroke="#000000" d="M 572 363 L 636.61181640625 363" stroke-miterlimit="10"/></g><g transform="translate(-246,-309) scale(1,1)"><g><path fill="none" stroke="none"/><text fill="#000000" stroke="none" font-family="Arial" font-size="13px" font-style="normal" font-weight="bold" text-decoration="none" x="578.286865234375" y="347.5">Catálogo</text></g></g><g transform="translate(-246,-309) scale(1,1)"><rect fill="#C0C0C0" stroke="none" x="586" y="447" width="50.919921875" height="44" opacity="0.2"/></g><g transform="translate(-246,-309) scale(1,1)"><rect fill="#ffffff" stroke="none" x="579" y="440" width="50.919921875" height="44"/></g><g transform="translate(-246,-309) scale(1,1)"><path fill="none" stroke="#000000" d="M 579 440 L 629.919921875 440 L 629.919921875 484 L 579 484 L 579 440 Z Z" stroke-miterlimit="10"/></g><g transform="translate(-246,-309) scale(1,1)"><path fill="none" stroke="#000000" d="M 579 465 L 629.919921875 465" stroke-miterlimit="10"/></g><g transform="translate(-246,-309) scale(1,1)"><path fill="none" stroke="#000000" d="M 579 475 L 629.919921875 475" stroke-miterlimit="10"/></g><g transform="translate(-246,-309) scale(1,1)"><g><path fill="none" stroke="none"/><text fill="#000000" stroke="none" font-family="Arial" font-size="13px" font-style="normal" font-weight="bold" text-decoration="none" x="584.82666015625" y="459.5">Tienda</text></g></g><g transform="translate(-246,-309) scale(1,1)"><rect fill="#C0C0C0" stroke="none" x="345" y="447" width="52.341796875" height="44" opacity="0.2"/></g><g transform="translate(-246,-309) scale(1,1)"><rect fill="#ffffff" stroke="none" x="338" y="440" width="52.341796875" height="44"/></g><g transform="translate(-246,-309) scale(1,1)"><path fill="none" stroke="#000000" d="M 338 440 L 390.341796875 440 L 390.341796875 484 L 338 484 L 338 440 Z Z" stroke-miterlimit="10"/></g><g transform="translate(-246,-309) scale(1,1)"><path fill="none" stroke="#000000" d="M 338 465 L 390.341796875 465" stroke-miterlimit="10"/></g><g transform="translate(-246,-309) scale(1,1)"><path fill="none" stroke="#000000" d="M 338 475 L 390.341796875 475" stroke-miterlimit="10"/></g><g transform="translate(-246,-309) scale(1,1)"><g><path fill="none" stroke="none"/><text fill="#000000" stroke="none" font-family="Arial" font-size="13px" font-style="normal" font-weight="bold" text-decoration="none" x="343.937744140625" y="459.5">Cliente</text></g></g><g transform="translate(-246,-309) scale(1,1)"><rect fill="#C0C0C0" stroke="none" x="807" y="447" width="68.236328125" height="44" opacity="0.2"/></g><g transform="translate(-246,-309) scale(1,1)"><rect fill="#ffffff" stroke="none" x="800" y="440" width="68.236328125" height="44"/></g><g transform="translate(-246,-309) scale(1,1)"><path fill="none" stroke="#000000" d="M 800 440 L 868.236328125 440 L 868.236328125 484 L 800 484 L 800 440 Z Z" stroke-miterlimit="10"/></g><g transform="translate(-246,-309) scale(1,1)"><path fill="none" stroke="#000000" d="M 800 465 L 868.236328125 465" stroke-miterlimit="10"/></g><g transform="translate(-246,-309) scale(1,1)"><path fill="none" stroke="#000000" d="M 800 475 L 868.236328125 475" stroke-miterlimit="10"/></g><g transform="translate(-246,-309) scale(1,1)"><g><path fill="none" stroke="none"/><text fill="#000000" stroke="none" font-family="Arial" font-size="13px" font-style="normal" font-weight="bold" text-decoration="none" x="806.286865234375" y="459.5">Vendedor</text></g></g><g transform="translate(-246,-309) scale(1,1)"><rect fill="#C0C0C0" stroke="none" x="575" y="575" width="73.28271484375" height="44" opacity="0.2"/></g><g transform="translate(-246,-309) scale(1,1)"><rect fill="#ffffff" stroke="none" x="568" y="568" width="73.28271484375" height="44"/></g><g transform="translate(-246,-309) scale(1,1)"><path fill="none" stroke="#000000" d="M 568 568 L 641.28271484375 568 L 641.28271484375 612 L 568 612 L 568 568 Z Z" stroke-miterlimit="10"/></g><g transform="translate(-246,-309) scale(1,1)"><path fill="none" stroke="#000000" d="M 568 593 L 641.28271484375 593" stroke-miterlimit="10"/></g><g transform="translate(-246,-309) scale(1,1)"><path fill="none" stroke="#000000" d="M 568 603 L 641.28271484375 603" stroke-miterlimit="10"/></g><g transform="translate(-246,-309) scale(1,1)"><g><path fill="none" stroke="none"/><text fill="#000000" stroke="none" font-family="Arial" font-size="13px" font-style="normal" font-weight="bold" text-decoration="none" x="578.62548828125" y="587.5">Producto</text></g></g><g transform="translate(-246,-309) scale(1,1)"><rect fill="#C0C0C0" stroke="none" x="293" y="562" width="156.3798828125" height="57" opacity="0.2"/></g><g transform="translate(-246,-309) scale(1,1)"><rect fill="#ffffff" stroke="none" x="286" y="555" width="156.3798828125" height="57"/></g><g transform="translate(-246,-309) scale(1,1)"><path fill="none" stroke="#000000" d="M 286 555 L 442.3798828125 555 L 442.3798828125 612 L 286 612 L 286 555 Z Z" stroke-miterlimit="10"/></g><g transform="translate(-246,-309) scale(1,1)"><path fill="none" stroke="#000000" d="M 286 593 L 442.3798828125 593" stroke-miterlimit="10"/></g><g transform="translate(-246,-309) scale(1,1)"><path fill="none" stroke="#000000" d="M 286 603 L 442.3798828125 603" stroke-miterlimit="10"/></g><g transform="translate(-246,-309) scale(1,1)"><g><path fill="none" stroke="none"/><text fill="#000000" stroke="none" font-family="Arial" font-size="13px" font-style="normal" font-weight="bold" text-decoration="none" x="319.9912109375" y="574.5">Transacción de</text><text fill="#000000" stroke="none" font-family="Arial" font-size="13px" font-style="normal" font-weight="bold" text-decoration="none" x="341.07177734375" y="587.5">Compra</text></g></g><g transform="translate(-246,-309) scale(1,1)"><rect fill="#C0C0C0" stroke="none" x="345" y="687" width="52.33544921875" height="44" opacity="0.2"/></g><g transform="translate(-246,-309) scale(1,1)"><rect fill="#ffffff" stroke="none" x="338" y="680" width="52.33544921875" height="44"/></g><g transform="translate(-246,-309) scale(1,1)"><path fill="none" stroke="#000000" d="M 338 680 L 390.33544921875 680 L 390.33544921875 724 L 338 724 L 338 680 Z Z" stroke-miterlimit="10"/></g><g transform="translate(-246,-309) scale(1,1)"><path fill="none" stroke="#000000" d="M 338 705 L 390.33544921875 705" stroke-miterlimit="10"/></g><g transform="translate(-246,-309) scale(1,1)"><path fill="none" stroke="#000000" d="M 338 715 L 390.33544921875 715" stroke-miterlimit="10"/></g><g transform="translate(-246,-309) scale(1,1)"><g><path fill="none" stroke="none"/><text fill="#000000" stroke="none" font-family="Arial" font-size="13px" font-style="normal" font-weight="bold" text-decoration="none" x="343.92822265625" y="699.5">Pedido</text></g></g><g transform="translate(-246,-309) scale(1,1)"><rect fill="#C0C0C0" stroke="none" x="543" y="687" width="141.9453125" height="44" opacity="0.2"/></g><g transform="translate(-246,-309) scale(1,1)"><rect fill="#ffffff" stroke="none" x="536" y="680" width="141.9453125" height="44"/></g><g transform="translate(-246,-309) scale(1,1)"><path fill="none" stroke="#000000" d="M 536 680 L 677.9453125 680 L 677.9453125 724 L 536 724 L 536 680 Z Z" stroke-miterlimit="10"/></g><g transform="translate(-246,-309) scale(1,1)"><path fill="none" stroke="#000000" d="M 536 705 L 677.9453125 705" stroke-miterlimit="10"/></g><g transform="translate(-246,-309) scale(1,1)"><path fill="none" stroke="#000000" d="M 536 715 L 677.9453125 715" stroke-miterlimit="10"/></g><g transform="translate(-246,-309) scale(1,1)"><g><path fill="none" stroke="none"/><text fill="#000000" stroke="none" font-family="Arial" font-size="13px" font-style="normal" font-weight="bold" text-decoration="none" x="544.34033203125" y="699.5">Transacción de Venta</text></g></g><g transform="translate(-246,-309) scale(1,1)"><path fill="none" stroke="#000000" d="M 360 440 L 360 352 L 572 352" stroke-miterlimit="10"/></g><g transform="translate(-246,-309) scale(1,1)"><path fill="none" stroke="#000000" d="M 561.8373251423759 356.209517756016 L 572 352 L 561.8373251423758 347.790482243984" stroke-miterlimit="10"/></g><g transform="translate(-246,-309) scale(1,1)"><g><path fill="none" stroke="none"/><text fill="#000000" stroke="none" font-family="Arial" font-size="13px" font-style="normal" font-weight="normal" text-decoration="none" x="390.5" y="348.5">+Consulta en</text></g></g><g transform="translate(-246,-309) scale(1,1)"><path fill="none" stroke="#000000" d="M 832 440 L 832 336 L 637 336" stroke-miterlimit="10"/></g><g transform="translate(-246,-309) scale(1,1)"><path fill="none" stroke="#000000" d="M 647.1626748576241 331.790482243984 L 637 336 L 647.1626748576241 340.209517756016" stroke-miterlimit="10"/></g><g transform="translate(-246,-309) scale(1,1)"><g><path fill="none" stroke="none"/><text fill="#000000" stroke="none" font-family="Arial" font-size="13px" font-style="normal" font-weight="normal" text-decoration="none" x="710.5" y="331.5">+Consulta en</text></g></g><g transform="translate(-246,-309) scale(1,1)"><path fill="none" stroke="#000000" d="M 604 439 L 604 373" stroke-miterlimit="10"/></g><g transform="translate(-246,-309) scale(1,1)"><path fill="none" stroke="#000000" d="M 608.209517756016 383.16267485762415 L 604 373 L 599.790482243984 383.16267485762415" stroke-miterlimit="10"/></g><g transform="translate(-246,-309) scale(1,1)"><g><path fill="none" stroke="none"/><text fill="#000000" stroke="none" font-family="Arial" font-size="13px" font-style="normal" font-weight="normal" text-decoration="none" x="539.5" y="412.5">+Contiene</text></g></g><g transform="translate(-246,-309) scale(1,1)"><path fill="none" stroke="#000000" d="M 800 472 L 752 472 L 752 352 L 637 352" stroke-miterlimit="10"/></g><g transform="translate(-246,-309) scale(1,1)"><path fill="none" stroke="#000000" d="M 647.1626748576241 347.790482243984 L 637 352 L 647.1626748576241 356.209517756016" stroke-miterlimit="10"/></g><g transform="translate(-246,-309) scale(1,1)"><g><path fill="none" stroke="none"/><text fill="#000000" stroke="none" font-family="Arial" font-size="13px" font-style="normal" font-weight="normal" text-decoration="none" x="757.5" y="407.5">+Administra</text></g></g><g transform="translate(-246,-309) scale(1,1)"><path fill="none" stroke="#000000" d="M 391 462 L 578 462" stroke-miterlimit="10"/></g><g transform="translate(-246,-309) scale(1,1)"><path fill="none" stroke="#000000" d="M 567.8373251423759 466.209517756016 L 578 462 L 567.8373251423758 457.790482243984" stroke-miterlimit="10"/></g><g transform="translate(-246,-309) scale(1,1)"><g><path fill="none" stroke="none"/><text fill="#000000" stroke="none" font-family="Arial" font-size="13px" font-style="normal" font-weight="normal" text-decoration="none" x="448.5" y="453.5">+Compra en</text></g></g><g transform="translate(-246,-309) scale(1,1)"><path fill="none" stroke="#000000" d="M 637 360 L 696 360 L 696 592 L 641 592" stroke-miterlimit="10"/></g><g transform="translate(-246,-309) scale(1,1)"><path fill="none" stroke="#000000" d="M 651.1626748576241 587.790482243984 L 641 592 L 651.1626748576241 596.209517756016" stroke-miterlimit="10"/></g><g transform="translate(-246,-309) scale(1,1)"><g><path fill="none" stroke="none"/><text fill="#000000" stroke="none" font-family="Arial" font-size="13px" font-style="normal" font-weight="normal" text-decoration="none" x="623.5" y="508.5">+Contiene</text></g></g><g transform="translate(-246,-309) scale(1,1)"><path fill="none" stroke="#000000" d="M 832 484 L 832 702 L 678 702" stroke-miterlimit="10"/></g><g transform="translate(-246,-309) scale(1,1)"><path fill="none" stroke="#000000" d="M 688.1626748576241 697.790482243984 L 678 702 L 688.1626748576241 706.209517756016" stroke-miterlimit="10"/></g><g transform="translate(-246,-309) scale(1,1)"><g><path fill="none" stroke="none"/><text fill="#000000" stroke="none" font-family="Arial" font-size="13px" font-style="normal" font-weight="normal" text-decoration="none" x="766.5" y="587.5">+Realiza</text></g></g><g transform="translate(-246,-309) scale(1,1)"><path fill="none" stroke="#000000" d="M 535 702 L 391 702" stroke-miterlimit="10"/></g><g transform="translate(-246,-309) scale(1,1)"><path fill="none" stroke="#000000" d="M 401.16267485762415 697.790482243984 L 391 702 L 401.16267485762415 706.209517756016" stroke-miterlimit="10"/></g><g transform="translate(-246,-309) scale(1,1)"><g><path fill="none" stroke="none"/><text fill="#000000" stroke="none" font-family="Arial" font-size="13px" font-style="normal" font-weight="normal" text-decoration="none" x="430.5" y="723.5">+Venta por</text></g></g><g transform="translate(-246,-309) scale(1,1)"><path fill="none" stroke="#000000" d="M 364 613 L 364 679" stroke-miterlimit="10"/></g><g transform="translate(-246,-309) scale(1,1)"><path fill="none" stroke="#000000" d="M 359.790482243984 668.8373251423759 L 364 679 L 368.209517756016 668.8373251423759" stroke-miterlimit="10"/></g><g transform="translate(-246,-309) scale(1,1)"><g><path fill="none" stroke="none"/><text fill="#000000" stroke="none" font-family="Arial" font-size="13px" font-style="normal" font-weight="normal" text-decoration="none" x="289.5" y="651.5">+Pago por</text></g></g><g transform="translate(-246,-309) scale(1,1)"><path fill="none" stroke="#000000" d="M 390 689 L 512 689 L 512 612 L 568 612" stroke-miterlimit="10"/></g><g transform="translate(-246,-309) scale(1,1)"><path fill="none" stroke="#000000" d="M 557.8373251423759 616.209517756016 L 568 612 L 557.8373251423758 607.790482243984" stroke-miterlimit="10"/></g><g transform="translate(-246,-309) scale(1,1)"><g><path fill="none" stroke="none"/><text fill="#000000" stroke="none" font-family="Arial" font-size="13px" font-style="normal" font-weight="normal" text-decoration="none" x="518.5" y="654.5">+Contiene</text></g></g><g transform="translate(-246,-309) scale(1,1)"><path fill="none" stroke="#000000" d="M 364 485 L 364 554" stroke-miterlimit="10"/></g><g transform="translate(-246,-309) scale(1,1)"><path fill="none" stroke="#000000" d="M 359.790482243984 543.8373251423759 L 364 554 L 368.209517756016 543.8373251423759" stroke-miterlimit="10"/></g><g transform="translate(-246,-309) scale(1,1)"><g><path fill="none" stroke="none"/><text fill="#000000" stroke="none" font-family="Arial" font-size="13px" font-style="normal" font-weight="normal" text-decoration="none" x="374.5" y="524.5">+Realiza</text></g></g><g transform="translate(-246,-309) scale(1,1)"><path fill="none" stroke="#000000" d="M 864 484 L 864 760 L 256 760 L 256 456 L 338 456" stroke-miterlimit="10"/></g><g transform="translate(-246,-309) scale(1,1)"><path fill="none" stroke="#000000" d="M 327.83732514237585 460.209517756016 L 338 456 L 327.83732514237585 451.790482243984" stroke-miterlimit="10"/></g><g transform="translate(-246,-309) scale(1,1)"><g><path fill="none" stroke="none"/><text fill="#000000" stroke="none" font-family="Arial" font-size="13px" font-style="normal" font-weight="normal" text-decoration="none" x="542.5" y="779.5">+Atiende a</text></g></g></g></svg>