<?xml version="1.0" encoding="UTF-8" standalone="no"?>
<svg
   xmlns:dc="http://purl.org/dc/elements/1.1/"
   xmlns:cc="http://creativecommons.org/ns#"
   xmlns:rdf="http://www.w3.org/1999/02/22-rdf-syntax-ns#"
   xmlns:svg="http://www.w3.org/2000/svg"
   xmlns="http://www.w3.org/2000/svg"
   xmlns:sodipodi="http://sodipodi.sourceforge.net/DTD/sodipodi-0.dtd"
   xmlns:inkscape="http://www.inkscape.org/namespaces/inkscape"
   version="1.1"
   width="732"
   height="829"
   id="svg2041"
   sodipodi:docname="MS01.svg"
   inkscape:export-filename="/home/luisbarrera/SextoTrimestre/Sistemas/petcare/casos-de-uso/MS01.png"
   inkscape:export-xdpi="182.82832"
   inkscape:export-ydpi="182.82832"
   inkscape:version="1.0.1 (3bc2e813f5, 2020-09-07, custom)">
  <metadata
     id="metadata2045">
    <rdf:RDF>
      <cc:Work
         rdf:about="">
        <dc:format>image/svg+xml</dc:format>
        <dc:type
           rdf:resource="http://purl.org/dc/dcmitype/StillImage" />
      </cc:Work>
    </rdf:RDF>
  </metadata>
  <sodipodi:namedview
     pagecolor="#ffffff"
     bordercolor="#666666"
     borderopacity="1"
     objecttolerance="10"
     gridtolerance="10"
     guidetolerance="10"
     inkscape:pageopacity="0"
     inkscape:pageshadow="2"
     inkscape:window-width="1600"
     inkscape:window-height="884"
     id="namedview2043"
     showgrid="false"
     inkscape:zoom="0.82870929"
     inkscape:cx="366"
     inkscape:cy="414.5"
     inkscape:window-x="0"
     inkscape:window-y="0"
     inkscape:window-maximized="1"
     inkscape:current-layer="g2039" />
  <defs
     id="defs1425" />
  <g
     id="g2039">
    <g
       transform="translate(-85,-54) scale(1,1)"
       id="g1653">
      <path
         fill="#C0C0C0"
         stroke="none"
         d="M 435 80.5 C 435 75.2532944 439.2532944 71 444.5 71 C 449.7467056 71 454 75.2532944 454 80.5 C 454 85.7467056 449.7467056 90 444.5 90 C 439.2532944 90 435 85.7467056 435 80.5 Z"
         opacity="0.2"
         id="path1651" />
    </g>
    <g
       transform="translate(-85,-54) scale(1,1)"
       id="g1657">
      <path
         fill="#000000"
         stroke="none"
         d="M 428 73.5 C 428 68.2532944 432.2532944 64 437.5 64 C 442.7467056 64 447 68.2532944 447 73.5 C 447 78.7467056 442.7467056 83 437.5 83 C 432.2532944 83 428 78.7467056 428 73.5 Z"
         id="path1655" />
    </g>
    <g
       transform="translate(-85,-54) scale(1,1)"
       id="g1661">
      <path
         fill="#C0C0C0"
         stroke="none"
         d="M 349 215 L 539.6142578125 215 Q 549.6142578125 215 549.6142578125 225 L 549.6142578125 244 Q 549.6142578125 254 539.6142578125 254 L 349 254 Q 339 254 339 244 L 339 225 Q 339 215 349 215 Z"
         opacity="0.2"
         id="path1659" />
    </g>
    <g
       transform="translate(-85,-54) scale(1,1)"
       id="g1665">
      <path
         fill="#ffffff"
         stroke="none"
         d="M 342 208 L 532.6142578125 208 Q 542.6142578125 208 542.6142578125 218 L 542.6142578125 237 Q 542.6142578125 247 532.6142578125 247 L 342 247 Q 332 247 332 237 L 332 218 Q 332 208 342 208 Z"
         id="path1663" />
    </g>
    <g
       transform="translate(-85,-54) scale(1,1)"
       id="g1669">
      <path
         fill="none"
         stroke="#000000"
         d="M 342 208 L 532.6142578125 208 Q 542.6142578125 208 542.6142578125 218 L 542.6142578125 237 Q 542.6142578125 247 532.6142578125 247 L 342 247 Q 332 247 332 237 L 332 218 Q 332 208 342 208 Z"
         stroke-miterlimit="10"
         id="path1667" />
    </g>
    <g
       transform="translate(-85,-54) scale(1,1)"
       id="g1679">
      <g
         id="g1677">
        <path
           fill="none"
           stroke="none"
           id="path1671" />
        <text
           fill="#000000"
           stroke="none"
           font-family="Arial"
           font-size="13px"
           font-style="normal"
           font-weight="bold"
           text-decoration="none"
           x="368.162109375"
           y="227.5"
           id="text1673">Mostrar Ventana &quot;Iniciar</text>
        <text
           fill="#000000"
           stroke="none"
           font-family="Arial"
           font-size="13px"
           font-style="normal"
           font-weight="bold"
           text-decoration="none"
           x="415.125244140625"
           y="240.5"
           id="text1675">Sesión&quot;</text>
      </g>
    </g>
    <g
       transform="translate(-85,-54) scale(1,1)"
       id="g1683">
      <path
         fill="#C0C0C0"
         stroke="none"
         d="M 338 287 L 550.9580078125 287 Q 560.9580078125 287 560.9580078125 297 L 560.9580078125 316 Q 560.9580078125 326 550.9580078125 326 L 338 326 Q 328 326 328 316 L 328 297 Q 328 287 338 287 Z"
         opacity="0.2"
         id="path1681" />
    </g>
    <g
       transform="translate(-85,-54) scale(1,1)"
       id="g1687">
      <path
         fill="#ffffff"
         stroke="none"
         d="M 331 280 L 543.9580078125 280 Q 553.9580078125 280 553.9580078125 290 L 553.9580078125 309 Q 553.9580078125 319 543.9580078125 319 L 331 319 Q 321 319 321 309 L 321 290 Q 321 280 331 280 Z"
         id="path1685" />
    </g>
    <g
       transform="translate(-85,-54) scale(1,1)"
       id="g1691">
      <path
         fill="none"
         stroke="#000000"
         d="M 331 280 L 543.9580078125 280 Q 553.9580078125 280 553.9580078125 290 L 553.9580078125 309 Q 553.9580078125 319 543.9580078125 319 L 331 319 Q 321 319 321 309 L 321 290 Q 321 280 331 280 Z"
         stroke-miterlimit="10"
         id="path1689" />
    </g>
    <g
       transform="translate(-85,-54) scale(1,1)"
       id="g1701">
      <g
         id="g1699">
        <path
           fill="none"
           stroke="none"
           id="path1693" />
        <text
           fill="#000000"
           stroke="none"
           font-family="Arial"
           font-size="13px"
           font-style="normal"
           font-weight="bold"
           text-decoration="none"
           x="367.38818359375"
           y="299.5"
           id="text1695">Usuario Introduce Datos</text>
        <text
           fill="#000000"
           stroke="none"
           font-family="Arial"
           font-size="13px"
           font-style="normal"
           font-weight="bold"
           text-decoration="none"
           x="404.96630859375"
           y="312.5"
           id="text1697">Necesarios</text>
      </g>
    </g>
    <g
       transform="translate(-85,-54) scale(1,1)"
       id="g1705">
      <path
         fill="none"
         stroke="#000000"
         d="M 437 248 L 437 279"
         stroke-miterlimit="10"
         id="path1703" />
    </g>
    <g
       transform="translate(-85,-54) scale(1,1)"
       id="g1709">
      <path
         fill="none"
         stroke="#000000"
         d="M 432.790482243984 268.83732514237585 L 437 279 L 441.209517756016 268.83732514237585"
         stroke-miterlimit="10"
         id="path1707" />
    </g>
    <g
       transform="translate(-85,-54) scale(1,1)"
       id="g1713">
      <path
         fill="#C0C0C0"
         stroke="none"
         d="M 368 383 L 521.77880859375 383 Q 531.77880859375 383 531.77880859375 393 L 531.77880859375 412 Q 531.77880859375 422 521.77880859375 422 L 368 422 Q 358 422 358 412 L 358 393 Q 358 383 368 383 Z"
         opacity="0.2"
         id="path1711" />
    </g>
    <g
       transform="translate(-85,-54) scale(1,1)"
       id="g1717">
      <path
         fill="#ffffff"
         stroke="none"
         d="M 361 376 L 514.77880859375 376 Q 524.77880859375 376 524.77880859375 386 L 524.77880859375 405 Q 524.77880859375 415 514.77880859375 415 L 361 415 Q 351 415 351 405 L 351 386 Q 351 376 361 376 Z"
         id="path1715" />
    </g>
    <g
       transform="translate(-85,-54) scale(1,1)"
       id="g1721">
      <path
         fill="none"
         stroke="#000000"
         d="M 361 376 L 514.77880859375 376 Q 524.77880859375 376 524.77880859375 386 L 524.77880859375 405 Q 524.77880859375 415 514.77880859375 415 L 361 415 Q 351 415 351 405 L 351 386 Q 351 376 361 376 Z"
         stroke-miterlimit="10"
         id="path1719" />
    </g>
    <g
       transform="translate(-85,-54) scale(1,1)"
       id="g1731">
      <g
         id="g1729">
        <path
           fill="none"
           stroke="none"
           id="path1723" />
        <text
           fill="#000000"
           stroke="none"
           font-family="Arial"
           font-size="13px"
           font-style="normal"
           font-weight="bold"
           text-decoration="none"
           x="386.5908203125"
           y="395.5"
           id="text1725">Usuario da click a</text>
        <text
           fill="#000000"
           stroke="none"
           font-family="Arial"
           font-size="13px"
           font-style="normal"
           font-weight="bold"
           text-decoration="none"
           x="415.57421875"
           y="408.5"
           id="text1727">&quot;Entrar&quot;</text>
      </g>
    </g>
    <g
       transform="translate(-85,-54) scale(1,1)"
       id="g1735">
      <path
         fill="none"
         stroke="#000000"
         d="M 437 320 L 437 375"
         stroke-miterlimit="10"
         id="path1733" />
    </g>
    <g
       transform="translate(-85,-54) scale(1,1)"
       id="g1739">
      <path
         fill="none"
         stroke="#000000"
         d="M 432.790482243984 364.83732514237585 L 437 375 L 441.209517756016 364.83732514237585"
         stroke-miterlimit="10"
         id="path1737" />
    </g>
    <g
       transform="translate(-85,-54) scale(1,1)"
       id="g1743">
      <path
         fill="#C0C0C0"
         stroke="none"
         d="M 318 135 L 570.00244140625 135 Q 580.00244140625 135 580.00244140625 145 L 580.00244140625 164 Q 580.00244140625 174 570.00244140625 174 L 318 174 Q 308 174 308 164 L 308 145 Q 308 135 318 135 Z"
         opacity="0.2"
         id="path1741" />
    </g>
    <g
       transform="translate(-85,-54) scale(1,1)"
       id="g1747">
      <path
         fill="#ffffff"
         stroke="none"
         d="M 311 128 L 563.00244140625 128 Q 573.00244140625 128 573.00244140625 138 L 573.00244140625 157 Q 573.00244140625 167 563.00244140625 167 L 311 167 Q 301 167 301 157 L 301 138 Q 301 128 311 128 Z"
         id="path1745" />
    </g>
    <g
       transform="translate(-85,-54) scale(1,1)"
       id="g1751">
      <path
         fill="none"
         stroke="#000000"
         d="M 311 128 L 563.00244140625 128 Q 573.00244140625 128 573.00244140625 138 L 573.00244140625 157 Q 573.00244140625 167 563.00244140625 167 L 311 167 Q 301 167 301 157 L 301 138 Q 301 128 311 128 Z"
         stroke-miterlimit="10"
         id="path1749" />
    </g>
    <g
       transform="translate(-85,-54) scale(1,1)"
       id="g1761">
      <g
         id="g1759">
        <path
           fill="none"
           stroke="none"
           id="path1753" />
        <text
           fill="#000000"
           stroke="none"
           font-family="Arial"
           font-size="13px"
           font-style="normal"
           font-weight="bold"
           text-decoration="none"
           x="340.034423828125"
           y="147.5"
           id="text1755">Usuario Presiona el Botón &quot;Iniciar</text>
        <text
           fill="#000000"
           stroke="none"
           font-family="Arial"
           font-size="13px"
           font-style="normal"
           font-weight="bold"
           text-decoration="none"
           x="414.8193359375"
           y="160.5"
           id="text1757">Sesión&quot;</text>
      </g>
    </g>
    <g
       transform="translate(-85,-54) scale(1,1)"
       id="g1765">
      <path
         fill="none"
         stroke="#000000"
         d="M 437 84 L 437 127"
         stroke-miterlimit="10"
         id="path1763" />
    </g>
    <g
       transform="translate(-85,-54) scale(1,1)"
       id="g1769">
      <path
         fill="none"
         stroke="#000000"
         d="M 432.790482243984 116.83732514237585 L 437 127 L 441.209517756016 116.83732514237585"
         stroke-miterlimit="10"
         id="path1767" />
    </g>
    <g
       transform="translate(-85,-54) scale(1,1)"
       id="g1773">
      <path
         fill="none"
         stroke="#000000"
         d="M 437 168 L 437 207"
         stroke-miterlimit="10"
         id="path1771" />
    </g>
    <g
       transform="translate(-85,-54) scale(1,1)"
       id="g1777">
      <path
         fill="none"
         stroke="#000000"
         d="M 432.790482243984 196.83732514237585 L 437 207 L 441.209517756016 196.83732514237585"
         stroke-miterlimit="10"
         id="path1775" />
    </g>
    <g
       transform="translate(-85,-54) scale(1,1)"
       id="g1781">
      <path
         fill="#C0C0C0"
         stroke="none"
         d="M 313 463 L 576.55517578125 463 Q 586.55517578125 463 586.55517578125 473 L 586.55517578125 492 Q 586.55517578125 502 576.55517578125 502 L 313 502 Q 303 502 303 492 L 303 473 Q 303 463 313 463 Z"
         opacity="0.2"
         id="path1779" />
    </g>
    <g
       transform="translate(-85,-54) scale(1,1)"
       id="g1785">
      <path
         fill="#ffffff"
         stroke="none"
         d="M 306 456 L 569.55517578125 456 Q 579.55517578125 456 579.55517578125 466 L 579.55517578125 485 Q 579.55517578125 495 569.55517578125 495 L 306 495 Q 296 495 296 485 L 296 466 Q 296 456 306 456 Z"
         id="path1783" />
    </g>
    <g
       transform="translate(-85,-54) scale(1,1)"
       id="g1789">
      <path
         fill="none"
         stroke="#000000"
         d="M 306 456 L 569.55517578125 456 Q 579.55517578125 456 579.55517578125 466 L 579.55517578125 485 Q 579.55517578125 495 569.55517578125 495 L 306 495 Q 296 495 296 485 L 296 466 Q 296 456 306 456 Z"
         stroke-miterlimit="10"
         id="path1787" />
    </g>
    <g
       transform="translate(-85,-54) scale(1,1)"
       id="g1799">
      <g
         id="g1797">
        <path
           fill="none"
           stroke="none"
           id="path1791" />
        <text
           fill="#000000"
           stroke="none"
           font-family="Arial"
           font-size="13px"
           font-style="normal"
           font-weight="bold"
           text-decoration="none"
           x="338.531982421875"
           y="475.5"
           id="text1793">Sistema Valida que los datos sean</text>
        <text
           fill="#000000"
           stroke="none"
           font-family="Arial"
           font-size="13px"
           font-style="normal"
           font-weight="bold"
           text-decoration="none"
           x="411.047607421875"
           y="488.5"
           id="text1795">correctos</text>
      </g>
    </g>
    <g
       transform="translate(-85,-54) scale(1,1)"
       id="g1803">
      <path
         fill="#C0C0C0"
         stroke="none"
         d="M 368 703 L 521.74072265625 703 Q 531.74072265625 703 531.74072265625 713 L 531.74072265625 732 Q 531.74072265625 742 521.74072265625 742 L 368 742 Q 358 742 358 732 L 358 713 Q 358 703 368 703 Z"
         opacity="0.2"
         id="path1801" />
    </g>
    <g
       transform="translate(-85,-54) scale(1,1)"
       id="g1807">
      <path
         fill="#ffffff"
         stroke="none"
         d="M 361 696 L 514.74072265625 696 Q 524.74072265625 696 524.74072265625 706 L 524.74072265625 725 Q 524.74072265625 735 514.74072265625 735 L 361 735 Q 351 735 351 725 L 351 706 Q 351 696 361 696 Z"
         id="path1805" />
    </g>
    <g
       transform="translate(-85,-54) scale(1,1)"
       id="g1811">
      <path
         fill="none"
         stroke="#000000"
         d="M 361 696 L 514.74072265625 696 Q 524.74072265625 696 524.74072265625 706 L 524.74072265625 725 Q 524.74072265625 735 514.74072265625 735 L 361 735 Q 351 735 351 725 L 351 706 Q 351 696 361 696 Z"
         stroke-miterlimit="10"
         id="path1809" />
    </g>
    <g
       transform="translate(-85,-54) scale(1,1)"
       id="g1821">
      <g
         id="g1819">
        <path
           fill="none"
           stroke="none"
           id="path1813" />
        <text
           fill="#000000"
           stroke="none"
           font-family="Arial"
           font-size="13px"
           font-style="normal"
           font-weight="bold"
           text-decoration="none"
           x="385.121337890625"
           y="715.5"
           id="text1815">Usuario Ingresa al</text>
        <text
           fill="#000000"
           stroke="none"
           font-family="Arial"
           font-size="13px"
           font-style="normal"
           font-weight="bold"
           text-decoration="none"
           x="415.475830078125"
           y="728.5"
           id="text1817">sistema</text>
      </g>
    </g>
    <g
       transform="translate(-85,-54) scale(1,1)"
       id="g1825">
      <path
         fill="#C0C0C0"
         stroke="none"
         d="M 329 775 L 560.0361328125 775 Q 570.0361328125 775 570.0361328125 785 L 570.0361328125 804 Q 570.0361328125 814 560.0361328125 814 L 329 814 Q 319 814 319 804 L 319 785 Q 319 775 329 775 Z"
         opacity="0.2"
         id="path1823" />
    </g>
    <g
       transform="translate(-85,-54) scale(1,1)"
       id="g1829">
      <path
         fill="#ffffff"
         stroke="none"
         d="M 322 768 L 553.0361328125 768 Q 563.0361328125 768 563.0361328125 778 L 563.0361328125 797 Q 563.0361328125 807 553.0361328125 807 L 322 807 Q 312 807 312 797 L 312 778 Q 312 768 322 768 Z"
         id="path1827" />
    </g>
    <g
       transform="translate(-85,-54) scale(1,1)"
       id="g1833">
      <path
         fill="none"
         stroke="#000000"
         d="M 322 768 L 553.0361328125 768 Q 563.0361328125 768 563.0361328125 778 L 563.0361328125 797 Q 563.0361328125 807 553.0361328125 807 L 322 807 Q 312 807 312 797 L 312 778 Q 312 768 322 768 Z"
         stroke-miterlimit="10"
         id="path1831" />
    </g>
    <g
       transform="translate(-85,-54) scale(1,1)"
       id="g1843">
      <g
         id="g1841">
        <path
           fill="none"
           stroke="none"
           id="path1835" />
        <text
           fill="#000000"
           stroke="none"
           font-family="Arial"
           font-size="13px"
           font-style="normal"
           font-weight="bold"
           text-decoration="none"
           x="345.3818359375"
           y="787.5"
           id="text1837">Se muestra ventana inicial de la</text>
        <text
           fill="#000000"
           stroke="none"
           font-family="Arial"
           font-size="13px"
           font-style="normal"
           font-weight="bold"
           text-decoration="none"
           x="417.9990234375"
           y="800.5"
           id="text1839">página</text>
      </g>
    </g>
    <g
       transform="translate(-85,-54) scale(1,1)"
       id="g1847">
      <path
         fill="none"
         stroke="#000000"
         d="M 437 416 L 437 455"
         stroke-miterlimit="10"
         id="path1845" />
    </g>
    <g
       transform="translate(-85,-54) scale(1,1)"
       id="g1851">
      <path
         fill="none"
         stroke="#000000"
         d="M 432.790482243984 444.83732514237585 L 437 455 L 441.209517756016 444.83732514237585"
         stroke-miterlimit="10"
         id="path1849" />
    </g>
    <g
       transform="translate(-85,-54) scale(1,1)"
       id="g1855">
      <path
         fill="none"
         stroke="#000000"
         d="M 437 736 L 437 767"
         stroke-miterlimit="10"
         id="path1853" />
    </g>
    <g
       transform="translate(-85,-54) scale(1,1)"
       id="g1859">
      <path
         fill="none"
         stroke="#000000"
         d="M 432.790482243984 756.8373251423759 L 437 767 L 441.209517756016 756.8373251423759"
         stroke-miterlimit="10"
         id="path1857" />
    </g>
    <g
       transform="translate(-85,-54) scale(1,1)"
       id="g1863">
      <path
         fill="#C0C0C0"
         stroke="none"
         d="M 432 867.5 C 432 860.59644 437.59644 855 444.5 855 C 451.40356 855 457 860.59644 457 867.5 C 457 874.40356 451.40356 880 444.5 880 C 437.59644 880 432 874.40356 432 867.5 Z"
         opacity="0.2"
         id="path1861" />
    </g>
    <g
       transform="translate(-85,-54) scale(1,1)"
       id="g1867">
      <path
         fill="none"
         stroke="#000000"
         d="M 425 860.5 C 425 853.59644 430.59644 848 437.5 848 C 444.40356 848 450 853.59644 450 860.5 C 450 867.40356 444.40356 873 437.5 873 C 430.59644 873 425 867.40356 425 860.5 Z"
         stroke-miterlimit="10"
         id="path1865" />
    </g>
    <g
       transform="translate(-85,-54) scale(1,1)"
       id="g1871">
      <path
         fill="#000000"
         stroke="none"
         d="M 430 860.5 C 430 856.357864 433.357864 853 437.5 853 C 441.642136 853 445 856.357864 445 860.5 C 445 864.642136 441.642136 868 437.5 868 C 433.357864 868 430 864.642136 430 860.5 Z"
         id="path1869" />
    </g>
    <g
       transform="translate(-85,-54) scale(1,1)"
       id="g1875">
      <path
         fill="none"
         stroke="#000000"
         d="M 437 808 L 437 847"
         stroke-miterlimit="10"
         id="path1873" />
    </g>
    <g
       transform="translate(-85,-54) scale(1,1)"
       id="g1879">
      <path
         fill="none"
         stroke="#000000"
         d="M 432.790482243984 836.8373251423759 L 437 847 L 441.209517756016 836.8373251423759"
         stroke-miterlimit="10"
         id="path1877" />
    </g>
    <g
       transform="translate(-85,-54) scale(1,1)"
       id="g1883">
      <path
         fill="#C0C0C0"
         stroke="none"
         d="M 332 571.5 L 444.5 543 L 556 571.5 L 444.5 599 L 332 571.5"
         opacity="0.2"
         id="path1881" />
    </g>
    <g
       transform="translate(-85,-54) scale(1,1)"
       id="g1887">
      <path
         fill="#ffffff"
         stroke="none"
         d="M 325 564 L 437 536 L 549 564 L 437 592 L 325 564"
         id="path1885" />
    </g>
    <g
       transform="translate(-85,-54) scale(1,1)"
       id="g1891">
      <path
         fill="none"
         stroke="#000000"
         d="M 325 564 L 437 536 L 549 564 L 437 592 L 325 564 L 325 564"
         stroke-miterlimit="10"
         id="path1889" />
    </g>
    <g
       transform="translate(-85,-54) scale(1,1)"
       id="g1895">
      <path
         fill="#C0C0C0"
         stroke="none"
         d="M 399 631 L 489.13720703125 631 Q 499.13720703125 631 499.13720703125 641 L 499.13720703125 660 Q 499.13720703125 670 489.13720703125 670 L 399 670 Q 389 670 389 660 L 389 641 Q 389 631 399 631 Z"
         opacity="0.2"
         id="path1893" />
    </g>
    <g
       transform="translate(-85,-54) scale(1,1)"
       id="g1899">
      <path
         fill="#ffffff"
         stroke="none"
         d="M 392 624 L 482.13720703125 624 Q 492.13720703125 624 492.13720703125 634 L 492.13720703125 653 Q 492.13720703125 663 482.13720703125 663 L 392 663 Q 382 663 382 653 L 382 634 Q 382 624 392 624 Z"
         id="path1897" />
    </g>
    <g
       transform="translate(-85,-54) scale(1,1)"
       id="g1903">
      <path
         fill="none"
         stroke="#000000"
         d="M 392 624 L 482.13720703125 624 Q 492.13720703125 624 492.13720703125 634 L 492.13720703125 653 Q 492.13720703125 663 482.13720703125 663 L 392 663 Q 382 663 382 653 L 382 634 Q 382 624 392 624 Z"
         stroke-miterlimit="10"
         id="path1901" />
    </g>
    <g
       transform="translate(-85,-54) scale(1,1)"
       id="g1913">
      <g
         id="g1911">
        <path
           fill="none"
           stroke="none"
           id="path1905" />
        <text
           fill="#000000"
           stroke="none"
           font-family="Arial"
           font-size="13px"
           font-style="normal"
           font-weight="bold"
           text-decoration="none"
           x="420.088623046875"
           y="643.5"
           id="text1907">Datos</text>
        <text
           fill="#000000"
           stroke="none"
           font-family="Arial"
           font-size="13px"
           font-style="normal"
           font-weight="bold"
           text-decoration="none"
           x="408.89453125"
           y="656.5"
           id="text1909">Correctos</text>
      </g>
    </g>
    <g
       transform="translate(-85,-54) scale(1,1)"
       id="g1917">
      <path
         fill="#C0C0C0"
         stroke="none"
         d="M 657 559 L 756.53173828125 559 Q 766.53173828125 559 766.53173828125 569 L 766.53173828125 588 Q 766.53173828125 598 756.53173828125 598 L 657 598 Q 647 598 647 588 L 647 569 Q 647 559 657 559 Z"
         opacity="0.2"
         id="path1915" />
    </g>
    <g
       transform="translate(-85,-54) scale(1,1)"
       id="g1921">
      <path
         fill="#ffffff"
         stroke="none"
         d="M 650 552 L 749.53173828125 552 Q 759.53173828125 552 759.53173828125 562 L 759.53173828125 581 Q 759.53173828125 591 749.53173828125 591 L 650 591 Q 640 591 640 581 L 640 562 Q 640 552 650 552 Z"
         id="path1919" />
    </g>
    <g
       transform="translate(-85,-54) scale(1,1)"
       id="g1925">
      <path
         fill="none"
         stroke="#000000"
         d="M 650 552 L 749.53173828125 552 Q 759.53173828125 552 759.53173828125 562 L 759.53173828125 581 Q 759.53173828125 591 749.53173828125 591 L 650 591 Q 640 591 640 581 L 640 562 Q 640 552 650 552 Z"
         stroke-miterlimit="10"
         id="path1923" />
    </g>
    <g
       transform="translate(-85,-54) scale(1,1)"
       id="g1935">
      <g
         id="g1933">
        <path
           fill="none"
           stroke="none"
           id="path1927" />
        <text
           fill="#000000"
           stroke="none"
           font-family="Arial"
           font-size="13px"
           font-style="normal"
           font-weight="bold"
           text-decoration="none"
           x="682.785888671875"
           y="571.5"
           id="text1929">Datos</text>
        <text
           fill="#000000"
           stroke="none"
           font-family="Arial"
           font-size="13px"
           font-style="normal"
           font-weight="bold"
           text-decoration="none"
           x="667.614990234375"
           y="584.5"
           id="text1931">Incorrectos</text>
      </g>
    </g>
    <g
       transform="translate(-85,-54) scale(1,1)"
       id="g1939">
      <path
         fill="none"
         stroke="#000000"
         d="M 550 567 L 639 569"
         stroke-miterlimit="10"
         id="path1937" />
    </g>
    <g
       transform="translate(-85,-54) scale(1,1)"
       id="g1943">
      <path
         fill="none"
         stroke="#000000"
         d="M 628.7453181501455 572.9801382084376 L 639 569 L 628.9344622078114 564.5632276423031"
         stroke-miterlimit="10"
         id="path1941" />
    </g>
    <g
       transform="translate(-85,-54) scale(1,1)"
       id="g1947">
      <path
         fill="none"
         stroke="#000000"
         d="M 704 552 L 704 432 L 437 432 L 437 456"
         stroke-miterlimit="10"
         id="path1945" />
    </g>
    <g
       transform="translate(-85,-54) scale(1,1)"
       id="g1951">
      <path
         fill="none"
         stroke="#000000"
         d="M 432.790482243984 445.83732514237585 L 437 456 L 441.209517756016 445.83732514237585"
         stroke-miterlimit="10"
         id="path1949" />
    </g>
    <g
       transform="translate(-85,-54) scale(1,1)"
       id="g1955">
      <path
         fill="none"
         stroke="#000000"
         d="M 437 496 L 437 535"
         stroke-miterlimit="10"
         id="path1953" />
    </g>
    <g
       transform="translate(-85,-54) scale(1,1)"
       id="g1959">
      <path
         fill="none"
         stroke="#000000"
         d="M 432.790482243984 524.8373251423759 L 437 535 L 441.209517756016 524.8373251423759"
         stroke-miterlimit="10"
         id="path1957" />
    </g>
    <g
       transform="translate(-85,-54) scale(1,1)"
       id="g1963">
      <path
         fill="none"
         stroke="#000000"
         d="M 437 593 L 437 623"
         stroke-miterlimit="10"
         id="path1961" />
    </g>
    <g
       transform="translate(-85,-54) scale(1,1)"
       id="g1967">
      <path
         fill="none"
         stroke="#000000"
         d="M 432.790482243984 612.8373251423759 L 437 623 L 441.209517756016 612.8373251423759"
         stroke-miterlimit="10"
         id="path1965" />
    </g>
    <g
       transform="translate(-85,-54) scale(1,1)"
       id="g1971">
      <path
         fill="#C0C0C0"
         stroke="none"
         d="M 112 278 L 260 278 Q 270 278 270 288 L 270 318 Q 270 328 260 328 L 112 328 Q 102 328 102 318 L 102 288 Q 102 278 112 278 Z"
         opacity="0.2"
         id="path1969" />
    </g>
    <g
       transform="translate(-85,-54) scale(1,1)"
       id="g1975">
      <path
         fill="#ffffff"
         stroke="none"
         d="M 105 271 L 253 271 Q 263 271 263 281 L 263 311 Q 263 321 253 321 L 105 321 Q 95 321 95 311 L 95 281 Q 95 271 105 271 Z"
         id="path1973" />
    </g>
    <g
       transform="translate(-85,-54) scale(1,1)"
       id="g1979">
      <path
         fill="none"
         stroke="#000000"
         d="M 105 271 L 253 271 Q 263 271 263 281 L 263 311 Q 263 321 253 321 L 105 321 Q 95 321 95 311 L 95 281 Q 95 271 105 271 Z"
         stroke-miterlimit="10"
         id="path1977" />
    </g>
    <g
       transform="translate(-85,-54) scale(1,1)"
       id="g1991">
      <g
         id="g1989">
        <path
           fill="none"
           stroke="none"
           id="path1981" />
        <text
           fill="#000000"
           stroke="none"
           font-family="Arial"
           font-size="13px"
           font-style="normal"
           font-weight="bold"
           text-decoration="none"
           x="119.74462890625"
           y="290.5"
           id="text1983">Usuario Pulsa Botón</text>
        <text
           fill="#000000"
           stroke="none"
           font-family="Arial"
           font-size="13px"
           font-style="normal"
           font-weight="bold"
           text-decoration="none"
           x="138.400390625"
           y="303.5"
           id="text1985">&quot;¿Olvidaste tu</text>
        <text
           fill="#000000"
           stroke="none"
           font-family="Arial"
           font-size="13px"
           font-style="normal"
           font-weight="bold"
           text-decoration="none"
           x="139.47314453125"
           y="316.5"
           id="text1987">Contraseña?&quot;</text>
      </g>
    </g>
    <g
       transform="translate(-85,-54) scale(1,1)"
       id="g1995">
      <path
         fill="#C0C0C0"
         stroke="none"
         d="M 624 279 L 804 279 Q 814 279 814 289 L 814 317 Q 814 327 804 327 L 624 327 Q 614 327 614 317 L 614 289 Q 614 279 624 279 Z"
         opacity="0.2"
         id="path1993" />
    </g>
    <g
       transform="translate(-85,-54) scale(1,1)"
       id="g1999">
      <path
         fill="#ffffff"
         stroke="none"
         d="M 617 272 L 797 272 Q 807 272 807 282 L 807 310 Q 807 320 797 320 L 617 320 Q 607 320 607 310 L 607 282 Q 607 272 617 272 Z"
         id="path1997" />
    </g>
    <g
       transform="translate(-85,-54) scale(1,1)"
       id="g2003">
      <path
         fill="none"
         stroke="#000000"
         d="M 617 272 L 797 272 Q 807 272 807 282 L 807 310 Q 807 320 797 320 L 617 320 Q 607 320 607 310 L 607 282 Q 607 272 617 272 Z"
         stroke-miterlimit="10"
         id="path2001" />
    </g>
    <g
       transform="translate(-85,-54) scale(1,1)"
       id="g2013">
      <g
         id="g2011">
        <path
           fill="none"
           stroke="none"
           id="path2005" />
        <text
           fill="#000000"
           stroke="none"
           font-family="Arial"
           font-size="13px"
           font-style="normal"
           font-weight="bold"
           text-decoration="none"
           x="621.23046875"
           y="291.5"
           id="text2007">El usuario pulsa botón &quot;¿Eres</text>
        <text
           fill="#000000"
           stroke="none"
           font-family="Arial"
           font-size="13px"
           font-style="normal"
           font-weight="bold"
           text-decoration="none"
           x="651.937255859375"
           y="304.5"
           id="text2009">nuevo? Registrate&quot;</text>
      </g>
    </g>
    <g
       transform="translate(-85,-54) scale(1,1)"
       id="g2017">
      <path
         fill="none"
         stroke="#000000"
         d="M 332 224 L 176 224 L 176 271"
         stroke-miterlimit="10"
         id="path2015" />
    </g>
    <g
       transform="translate(-85,-54) scale(1,1)"
       id="g2021">
      <path
         fill="none"
         stroke="#000000"
         d="M 171.790482243984 260.83732514237585 L 176 271 L 180.209517756016 260.83732514237585"
         stroke-miterlimit="10"
         id="path2019" />
    </g>
    <g
       transform="translate(-85,-54) scale(1,1)"
       id="g2025">
      <path
         fill="none"
         stroke="#000000"
         d="M 543 224 L 704 224 L 704 272"
         stroke-miterlimit="10"
         id="path2023" />
    </g>
    <g
       transform="translate(-85,-54) scale(1,1)"
       id="g2029">
      <path
         fill="none"
         stroke="#000000"
         d="M 699.790482243984 261.83732514237585 L 704 272 L 708.209517756016 261.83732514237585"
         stroke-miterlimit="10"
         id="path2027" />
    </g>
    <g
       transform="translate(-85,-54) scale(1,1)"
       id="g2033">
      <path
         fill="none"
         stroke="#000000"
         d="M 437 664 L 437 695"
         stroke-miterlimit="10"
         id="path2031" />
    </g>
    <g
       transform="translate(-85,-54) scale(1,1)"
       id="g2037">
      <path
         fill="none"
         stroke="#000000"
         d="M 432.790482243984 684.8373251423759 L 437 695 L 441.209517756016 684.8373251423759"
         stroke-miterlimit="10"
         id="path2035" />
    </g>
  </g>
</svg>
