<?xml version="1.0" encoding="UTF-8" standalone="no"?>
<svg
   xmlns:dc="http://purl.org/dc/elements/1.1/"
   xmlns:cc="http://creativecommons.org/ns#"
   xmlns:rdf="http://www.w3.org/1999/02/22-rdf-syntax-ns#"
   xmlns:svg="http://www.w3.org/2000/svg"
   xmlns="http://www.w3.org/2000/svg"
   xmlns:sodipodi="http://sodipodi.sourceforge.net/DTD/sodipodi-0.dtd"
   xmlns:inkscape="http://www.inkscape.org/namespaces/inkscape"
   version="1.1"
   width="553.56640625"
   height="453"
   id="svg702"
   sodipodi:docname="MS02.svg"
   inkscape:export-filename="/home/luisbarrera/SextoTrimestre/Sistemas/petcare/casos-de-uso/MS02.png"
   inkscape:export-xdpi="245.02818"
   inkscape:export-ydpi="245.02818"
   inkscape:version="1.0.1 (3bc2e813f5, 2020-09-07, custom)">
  <metadata
     id="metadata706">
    <rdf:RDF>
      <cc:Work
         rdf:about="">
        <dc:format>image/svg+xml</dc:format>
        <dc:type
           rdf:resource="http://purl.org/dc/dcmitype/StillImage" />
      </cc:Work>
    </rdf:RDF>
  </metadata>
  <sodipodi:namedview
     pagecolor="#ffffff"
     bordercolor="#666666"
     borderopacity="1"
     objecttolerance="10"
     gridtolerance="10"
     guidetolerance="10"
     inkscape:pageopacity="0"
     inkscape:pageshadow="2"
     inkscape:window-width="1572"
     inkscape:window-height="856"
     id="namedview704"
     showgrid="false"
     inkscape:zoom="1.4547461"
     inkscape:cx="276.7832"
     inkscape:cy="226.5"
     inkscape:window-x="14"
     inkscape:window-y="14"
     inkscape:window-maximized="0"
     inkscape:current-layer="g700" />
  <defs
     id="defs368" />
  <g
     id="g700">
    <g
       transform="translate(-310,-78) scale(1,1)"
       id="g468">
      <path
         fill="#C0C0C0"
         stroke="none"
         d="M 453 104.5 C 453 99.2532944 457.2532944 95 462.5 95 C 467.7467056 95 472 99.2532944 472 104.5 C 472 109.7467056 467.7467056 114 462.5 114 C 457.2532944 114 453 109.7467056 453 104.5 Z"
         opacity="0.2"
         id="path466" />
    </g>
    <g
       transform="translate(-310,-78) scale(1,1)"
       id="g472">
      <path
         fill="#000000"
         stroke="none"
         d="M 446 97.5 C 446 92.2532944 450.2532944 88 455.5 88 C 460.7467056 88 465 92.2532944 465 97.5 C 465 102.7467056 460.7467056 107 455.5 107 C 450.2532944 107 446 102.7467056 446 97.5 Z"
         id="path470" />
    </g>
    <g
       transform="translate(-310,-78) scale(1,1)"
       id="g476">
      <path
         fill="#C0C0C0"
         stroke="none"
         d="M 337 151 L 588.22802734375 151 Q 598.22802734375 151 598.22802734375 161 L 598.22802734375 180 Q 598.22802734375 190 588.22802734375 190 L 337 190 Q 327 190 327 180 L 327 161 Q 327 151 337 151 Z"
         opacity="0.2"
         id="path474" />
    </g>
    <g
       transform="translate(-310,-78) scale(1,1)"
       id="g480">
      <path
         fill="#ffffff"
         stroke="none"
         d="M 330 144 L 581.22802734375 144 Q 591.22802734375 144 591.22802734375 154 L 591.22802734375 173 Q 591.22802734375 183 581.22802734375 183 L 330 183 Q 320 183 320 173 L 320 154 Q 320 144 330 144 Z"
         id="path478" />
    </g>
    <g
       transform="translate(-310,-78) scale(1,1)"
       id="g484">
      <path
         fill="none"
         stroke="#000000"
         d="M 330 144 L 581.22802734375 144 Q 591.22802734375 144 591.22802734375 154 L 591.22802734375 173 Q 591.22802734375 183 581.22802734375 183 L 330 183 Q 320 183 320 173 L 320 154 Q 320 144 330 144 Z"
         stroke-miterlimit="10"
         id="path482" />
    </g>
    <g
       transform="translate(-310,-78) scale(1,1)"
       id="g494">
      <g
         id="g492">
        <path
           fill="none"
           stroke="none"
           id="path486" />
        <text
           fill="#000000"
           stroke="none"
           font-family="Arial"
           font-size="13px"
           font-style="normal"
           font-weight="bold"
           text-decoration="none"
           x="359.15185546875"
           y="163.5"
           id="text488">Usuario presiona el botón “Cerrar</text>
        <text
           fill="#000000"
           stroke="none"
           font-family="Arial"
           font-size="13px"
           font-style="normal"
           font-weight="bold"
           text-decoration="none"
           x="433.574951171875"
           y="176.5"
           id="text490">Sesión”</text>
      </g>
    </g>
    <g
       transform="translate(-310,-78) scale(1,1)"
       id="g498">
      <path
         fill="#C0C0C0"
         stroke="none"
         d="M 364 215 L 560.33984375 215 Q 570.33984375 215 570.33984375 225 L 570.33984375 244 Q 570.33984375 254 560.33984375 254 L 364 254 Q 354 254 354 244 L 354 225 Q 354 215 364 215 Z"
         opacity="0.2"
         id="path496" />
    </g>
    <g
       transform="translate(-310,-78) scale(1,1)"
       id="g502">
      <path
         fill="#ffffff"
         stroke="none"
         d="M 357 208 L 553.33984375 208 Q 563.33984375 208 563.33984375 218 L 563.33984375 237 Q 563.33984375 247 553.33984375 247 L 357 247 Q 347 247 347 237 L 347 218 Q 347 208 357 208 Z"
         id="path500" />
    </g>
    <g
       transform="translate(-310,-78) scale(1,1)"
       id="g506">
      <path
         fill="none"
         stroke="#000000"
         d="M 357 208 L 553.33984375 208 Q 563.33984375 208 563.33984375 218 L 563.33984375 237 Q 563.33984375 247 553.33984375 247 L 357 247 Q 347 247 347 237 L 347 218 Q 347 208 357 208 Z"
         stroke-miterlimit="10"
         id="path504" />
    </g>
    <g
       transform="translate(-310,-78) scale(1,1)"
       id="g516">
      <g
         id="g514">
        <path
           fill="none"
           stroke="none"
           id="path508" />
        <text
           fill="#000000"
           stroke="none"
           font-family="Arial"
           font-size="13px"
           font-style="normal"
           font-weight="bold"
           text-decoration="none"
           x="397.72998046875"
           y="227.5"
           id="text510">Mostrar mensaje de</text>
        <text
           fill="#000000"
           stroke="none"
           font-family="Arial"
           font-size="13px"
           font-style="normal"
           font-weight="bold"
           text-decoration="none"
           x="418.32177734375"
           y="240.5"
           id="text512">confirmación</text>
      </g>
    </g>
    <g
       transform="translate(-310,-78) scale(1,1)"
       id="g520">
      <path
         fill="#C0C0C0"
         stroke="none"
         d="M 397 375 L 528.33349609375 375 Q 538.33349609375 375 538.33349609375 385 L 538.33349609375 404 Q 538.33349609375 414 528.33349609375 414 L 397 414 Q 387 414 387 404 L 387 385 Q 387 375 397 375 Z"
         opacity="0.2"
         id="path518" />
    </g>
    <g
       transform="translate(-310,-78) scale(1,1)"
       id="g524">
      <path
         fill="#ffffff"
         stroke="none"
         d="M 390 368 L 521.33349609375 368 Q 531.33349609375 368 531.33349609375 378 L 531.33349609375 397 Q 531.33349609375 407 521.33349609375 407 L 390 407 Q 380 407 380 397 L 380 378 Q 380 368 390 368 Z"
         id="path522" />
    </g>
    <g
       transform="translate(-310,-78) scale(1,1)"
       id="g528">
      <path
         fill="none"
         stroke="#000000"
         d="M 390 368 L 521.33349609375 368 Q 531.33349609375 368 531.33349609375 378 L 531.33349609375 397 Q 531.33349609375 407 521.33349609375 407 L 390 407 Q 380 407 380 397 L 380 378 Q 380 368 390 368 Z"
         stroke-miterlimit="10"
         id="path526" />
    </g>
    <g
       transform="translate(-310,-78) scale(1,1)"
       id="g538">
      <g
         id="g536">
        <path
           fill="none"
           stroke="none"
           id="path530" />
        <text
           fill="#000000"
           stroke="none"
           font-family="Arial"
           font-size="13px"
           font-style="normal"
           font-weight="bold"
           text-decoration="none"
           x="410.51904296875"
           y="387.5"
           id="text532">Confirma cerrar</text>
        <text
           fill="#000000"
           stroke="none"
           font-family="Arial"
           font-size="13px"
           font-style="normal"
           font-weight="bold"
           text-decoration="none"
           x="436.877685546875"
           y="400.5"
           id="text534">sesión</text>
      </g>
    </g>
    <g
       transform="translate(-310,-78) scale(1,1)"
       id="g542">
      <path
         fill="#C0C0C0"
         stroke="none"
         d="M 388 439 L 536.6689453125 439 Q 546.6689453125 439 546.6689453125 449 L 546.6689453125 468 Q 546.6689453125 478 536.6689453125 478 L 388 478 Q 378 478 378 468 L 378 449 Q 378 439 388 439 Z"
         opacity="0.2"
         id="path540" />
    </g>
    <g
       transform="translate(-310,-78) scale(1,1)"
       id="g546">
      <path
         fill="#ffffff"
         stroke="none"
         d="M 381 432 L 529.6689453125 432 Q 539.6689453125 432 539.6689453125 442 L 539.6689453125 461 Q 539.6689453125 471 529.6689453125 471 L 381 471 Q 371 471 371 461 L 371 442 Q 371 432 381 432 Z"
         id="path544" />
    </g>
    <g
       transform="translate(-310,-78) scale(1,1)"
       id="g550">
      <path
         fill="none"
         stroke="#000000"
         d="M 381 432 L 529.6689453125 432 Q 539.6689453125 432 539.6689453125 442 L 539.6689453125 461 Q 539.6689453125 471 529.6689453125 471 L 381 471 Q 371 471 371 461 L 371 442 Q 371 432 381 432 Z"
         stroke-miterlimit="10"
         id="path548" />
    </g>
    <g
       transform="translate(-310,-78) scale(1,1)"
       id="g558">
      <g
         id="g556">
        <path
           fill="none"
           stroke="none"
           id="path552" />
        <text
           fill="#000000"
           stroke="none"
           font-family="Arial"
           font-size="13px"
           font-style="normal"
           font-weight="bold"
           text-decoration="none"
           x="385.9609375"
           y="451.5"
           id="text554">Enviar ventana principal</text>
      </g>
    </g>
    <g
       transform="translate(-310,-78) scale(1,1)"
       id="g562">
      <path
         fill="#C0C0C0"
         stroke="none"
         d="M 394 316 L 462.5 279 L 530 316 L 462.5 352 L 394 316"
         opacity="0.2"
         id="path560" />
    </g>
    <g
       transform="translate(-310,-78) scale(1,1)"
       id="g566">
      <path
         fill="#ffffff"
         stroke="none"
         d="M 387 308.5 L 455 272 L 523 308.5 L 455 345 L 387 308.5"
         id="path564" />
    </g>
    <g
       transform="translate(-310,-78) scale(1,1)"
       id="g570">
      <path
         fill="none"
         stroke="#000000"
         d="M 387 308.5 L 455 272 L 523 308.5 L 455 345 L 387 308.5 L 387 308.5"
         stroke-miterlimit="10"
         id="path568" />
    </g>
    <g
       transform="translate(-310,-78) scale(1,1)"
       id="g574">
      <path
         fill="#C0C0C0"
         stroke="none"
         d="M 666 295 L 816.1162109375 295 Q 826.1162109375 295 826.1162109375 305 L 826.1162109375 324 Q 826.1162109375 334 816.1162109375 334 L 666 334 Q 656 334 656 324 L 656 305 Q 656 295 666 295 Z"
         opacity="0.2"
         id="path572" />
    </g>
    <g
       transform="translate(-310,-78) scale(1,1)"
       id="g578">
      <path
         fill="#ffffff"
         stroke="none"
         d="M 659 288 L 809.1162109375 288 Q 819.1162109375 288 819.1162109375 298 L 819.1162109375 317 Q 819.1162109375 327 809.1162109375 327 L 659 327 Q 649 327 649 317 L 649 298 Q 649 288 659 288 Z"
         id="path576" />
    </g>
    <g
       transform="translate(-310,-78) scale(1,1)"
       id="g582">
      <path
         fill="none"
         stroke="#000000"
         d="M 659 288 L 809.1162109375 288 Q 819.1162109375 288 819.1162109375 298 L 819.1162109375 317 Q 819.1162109375 327 809.1162109375 327 L 659 327 Q 649 327 649 317 L 649 298 Q 649 288 659 288 Z"
         stroke-miterlimit="10"
         id="path580" />
    </g>
    <g
       transform="translate(-310,-78) scale(1,1)"
       id="g592">
      <g
         id="g590">
        <path
           fill="none"
           stroke="none"
           id="path584" />
        <text
           fill="#000000"
           stroke="none"
           font-family="Arial"
           font-size="13px"
           font-style="normal"
           font-weight="bold"
           text-decoration="none"
           x="680.239501953125"
           y="307.5"
           id="text586">No confirma cerrar</text>
        <text
           fill="#000000"
           stroke="none"
           font-family="Arial"
           font-size="13px"
           font-style="normal"
           font-weight="bold"
           text-decoration="none"
           x="715.26904296875"
           y="320.5"
           id="text588">sesión</text>
      </g>
    </g>
    <g
       transform="translate(-310,-78) scale(1,1)"
       id="g596">
      <path
         fill="#C0C0C0"
         stroke="none"
         d="M 633 367 L 850.56640625 367 Q 860.56640625 367 860.56640625 377 L 860.56640625 396 Q 860.56640625 406 850.56640625 406 L 633 406 Q 623 406 623 396 L 623 377 Q 623 367 633 367 Z"
         opacity="0.2"
         id="path594" />
    </g>
    <g
       transform="translate(-310,-78) scale(1,1)"
       id="g600">
      <path
         fill="#ffffff"
         stroke="none"
         d="M 626 360 L 843.56640625 360 Q 853.56640625 360 853.56640625 370 L 853.56640625 389 Q 853.56640625 399 843.56640625 399 L 626 399 Q 616 399 616 389 L 616 370 Q 616 360 626 360 Z"
         id="path598" />
    </g>
    <g
       transform="translate(-310,-78) scale(1,1)"
       id="g604">
      <path
         fill="none"
         stroke="#000000"
         d="M 626 360 L 843.56640625 360 Q 853.56640625 360 853.56640625 370 L 853.56640625 389 Q 853.56640625 399 843.56640625 399 L 626 399 Q 616 399 616 389 L 616 370 Q 616 360 626 360 Z"
         stroke-miterlimit="10"
         id="path602" />
    </g>
    <g
       transform="translate(-310,-78) scale(1,1)"
       id="g614">
      <g
         id="g612">
        <path
           fill="none"
           stroke="none"
           id="path606" />
        <text
           fill="#000000"
           stroke="none"
           font-family="Arial"
           font-size="13px"
           font-style="normal"
           font-weight="bold"
           text-decoration="none"
           x="643.95458984375"
           y="379.5"
           id="text608">Vuelve a la ventana que estaba</text>
        <text
           fill="#000000"
           stroke="none"
           font-family="Arial"
           font-size="13px"
           font-style="normal"
           font-weight="bold"
           text-decoration="none"
           x="718.88232421875"
           y="392.5"
           id="text610">antes</text>
      </g>
    </g>
    <g
       transform="translate(-310,-78) scale(1,1)"
       id="g618">
      <path
         fill="none"
         stroke="#000000"
         d="M 455 108 L 455 143"
         stroke-miterlimit="10"
         id="path616" />
    </g>
    <g
       transform="translate(-310,-78) scale(1,1)"
       id="g622">
      <path
         fill="none"
         stroke="#000000"
         d="M 450.790482243984 132.83732514237585 L 455 143 L 459.209517756016 132.83732514237585"
         stroke-miterlimit="10"
         id="path620" />
    </g>
    <g
       transform="translate(-310,-78) scale(1,1)"
       id="g626">
      <path
         fill="none"
         stroke="#000000"
         d="M 455 184 L 455 207"
         stroke-miterlimit="10"
         id="path624" />
    </g>
    <g
       transform="translate(-310,-78) scale(1,1)"
       id="g630">
      <path
         fill="none"
         stroke="#000000"
         d="M 450.790482243984 196.83732514237585 L 455 207 L 459.209517756016 196.83732514237585"
         stroke-miterlimit="10"
         id="path628" />
    </g>
    <g
       transform="translate(-310,-78) scale(1,1)"
       id="g634">
      <path
         fill="none"
         stroke="#000000"
         d="M 455 248 L 455 271"
         stroke-miterlimit="10"
         id="path632" />
    </g>
    <g
       transform="translate(-310,-78) scale(1,1)"
       id="g638">
      <path
         fill="none"
         stroke="#000000"
         d="M 450.790482243984 260.83732514237585 L 455 271 L 459.209517756016 260.83732514237585"
         stroke-miterlimit="10"
         id="path636" />
    </g>
    <g
       transform="translate(-310,-78) scale(1,1)"
       id="g642">
      <path
         fill="none"
         stroke="#000000"
         d="M 455 346 L 455 367"
         stroke-miterlimit="10"
         id="path640" />
    </g>
    <g
       transform="translate(-310,-78) scale(1,1)"
       id="g646">
      <path
         fill="none"
         stroke="#000000"
         d="M 450.790482243984 356.83732514237585 L 455 367 L 459.209517756016 356.83732514237585"
         stroke-miterlimit="10"
         id="path644" />
    </g>
    <g
       transform="translate(-310,-78) scale(1,1)"
       id="g650">
      <path
         fill="none"
         stroke="#000000"
         d="M 455 408 L 455 431"
         stroke-miterlimit="10"
         id="path648" />
    </g>
    <g
       transform="translate(-310,-78) scale(1,1)"
       id="g654">
      <path
         fill="none"
         stroke="#000000"
         d="M 450.790482243984 420.83732514237585 L 455 431 L 459.209517756016 420.83732514237585"
         stroke-miterlimit="10"
         id="path652" />
    </g>
    <g
       transform="translate(-310,-78) scale(1,1)"
       id="g658">
      <path
         fill="none"
         stroke="#000000"
         d="M 524 308 L 648 307"
         stroke-miterlimit="10"
         id="path656" />
    </g>
    <g
       transform="translate(-310,-78) scale(1,1)"
       id="g662">
      <path
         fill="none"
         stroke="#000000"
         d="M 637.8716022182278 311.291335267046 L 648 307 L 637.803708978281 302.87257351362734"
         stroke-miterlimit="10"
         id="path660" />
    </g>
    <g
       transform="translate(-310,-78) scale(1,1)"
       id="g666">
      <path
         fill="none"
         stroke="#000000"
         d="M 734 328 L 734 359"
         stroke-miterlimit="10"
         id="path664" />
    </g>
    <g
       transform="translate(-310,-78) scale(1,1)"
       id="g670">
      <path
         fill="none"
         stroke="#000000"
         d="M 729.790482243984 348.83732514237585 L 734 359 L 738.209517756016 348.83732514237585"
         stroke-miterlimit="10"
         id="path668" />
    </g>
    <g
       transform="translate(-310,-78) scale(1,1)"
       id="g674">
      <path
         fill="#C0C0C0"
         stroke="none"
         d="M 450 515.5 C 450 508.59644 455.59644 503 462.5 503 C 469.40356 503 475 508.59644 475 515.5 C 475 522.40356 469.40356 528 462.5 528 C 455.59644 528 450 522.40356 450 515.5 Z"
         opacity="0.2"
         id="path672" />
    </g>
    <g
       transform="translate(-310,-78) scale(1,1)"
       id="g678">
      <path
         fill="none"
         stroke="#000000"
         d="M 443 508.5 C 443 501.59644 448.59644 496 455.5 496 C 462.40356 496 468 501.59644 468 508.5 C 468 515.40356 462.40356 521 455.5 521 C 448.59644 521 443 515.40356 443 508.5 Z"
         stroke-miterlimit="10"
         id="path676" />
    </g>
    <g
       transform="translate(-310,-78) scale(1,1)"
       id="g682">
      <path
         fill="#000000"
         stroke="none"
         d="M 448 508.5 C 448 504.357864 451.357864 501 455.5 501 C 459.642136 501 463 504.357864 463 508.5 C 463 512.642136 459.642136 516 455.5 516 C 451.357864 516 448 512.642136 448 508.5 Z"
         id="path680" />
    </g>
    <g
       transform="translate(-310,-78) scale(1,1)"
       id="g686">
      <path
         fill="none"
         stroke="#000000"
         d="M 455 472 L 455 495"
         stroke-miterlimit="10"
         id="path684" />
    </g>
    <g
       transform="translate(-310,-78) scale(1,1)"
       id="g690">
      <path
         fill="none"
         stroke="#000000"
         d="M 450.790482243984 484.83732514237585 L 455 495 L 459.209517756016 484.83732514237585"
         stroke-miterlimit="10"
         id="path688" />
    </g>
    <g
       transform="translate(-310,-78) scale(1,1)"
       id="g694">
      <path
         fill="none"
         stroke="#000000"
         d="M 736 399 L 736 516 L 468 516"
         stroke-miterlimit="10"
         id="path692" />
    </g>
    <g
       transform="translate(-310,-78) scale(1,1)"
       id="g698">
      <path
         fill="none"
         stroke="#000000"
         d="M 478.16267485762415 511.790482243984 L 468 516 L 478.16267485762415 520.209517756016"
         stroke-miterlimit="10"
         id="path696" />
    </g>
  </g>
</svg>
