<svg version="1.1" xmlns="http://www.w3.org/2000/svg" xmlns:xlink="http://www.w3.org/1999/xlink" width="629" height="829"><defs/><g><text fill="#eeeeee" stroke="none" font-family="Arial" font-size="24px" font-style="normal" font-weight="normal" text-decoration="none" x="0" y="0">UNREGISTERED</text><text fill="#eeeeee" stroke="none" font-family="Arial" font-size="24px" font-style="normal" font-weight="normal" text-decoration="none" x="0" y="30">UNREGISTERED</text><text fill="#eeeeee" stroke="none" font-family="Arial" font-size="24px" font-style="normal" font-weight="normal" text-decoration="none" x="0" y="60">UNREGISTERED</text><text fill="#eeeeee" stroke="none" font-family="Arial" font-size="24px" font-style="normal" font-weight="normal" text-decoration="none" x="0" y="90">UNREGISTERED</text><text fill="#eeeeee" stroke="none" font-family="Arial" font-size="24px" font-style="normal" font-weight="normal" text-decoration="none" x="0" y="120">UNREGISTERED</text><text fill="#eeeeee" stroke="none" font-family="Arial" font-size="24px" font-style="normal" font-weight="normal" text-decoration="none" x="0" y="150">UNREGISTERED</text><text fill="#eeeeee" stroke="none" font-family="Arial" font-size="24px" font-style="normal" font-weight="normal" text-decoration="none" x="0" y="180">UNREGISTERED</text><text fill="#eeeeee" stroke="none" font-family="Arial" font-size="24px" font-style="normal" font-weight="normal" text-decoration="none" x="0" y="210">UNREGISTERED</text><text fill="#eeeeee" stroke="none" font-family="Arial" font-size="24px" font-style="normal" font-weight="normal" text-decoration="none" x="0" y="240">UNREGISTERED</text><text fill="#eeeeee" stroke="none" font-family="Arial" font-size="24px" font-style="normal" font-weight="normal" text-decoration="none" x="0" y="270">UNREGISTERED</text><text fill="#eeeeee" stroke="none" font-family="Arial" font-size="24px" font-style="normal" font-weight="normal" text-decoration="none" x="0" y="300">UNREGISTERED</text><text fill="#eeeeee" stroke="none" font-family="Arial" font-size="24px" font-style="normal" font-weight="normal" text-decoration="none" x="0" y="330">UNREGISTERED</text><text fill="#eeeeee" stroke="none" font-family="Arial" font-size="24px" font-style="normal" font-weight="normal" text-decoration="none" x="0" y="360">UNREGISTERED</text><text fill="#eeeeee" stroke="none" font-family="Arial" font-size="24px" font-style="normal" font-weight="normal" text-decoration="none" x="0" y="390">UNREGISTERED</text><text fill="#eeeeee" stroke="none" font-family="Arial" font-size="24px" font-style="normal" font-weight="normal" text-decoration="none" x="0" y="420">UNREGISTERED</text><text fill="#eeeeee" stroke="none" font-family="Arial" font-size="24px" font-style="normal" font-weight="normal" text-decoration="none" x="0" y="450">UNREGISTERED</text><text fill="#eeeeee" stroke="none" font-family="Arial" font-size="24px" font-style="normal" font-weight="normal" text-decoration="none" x="0" y="480">UNREGISTERED</text><text fill="#eeeeee" stroke="none" font-family="Arial" font-size="24px" font-style="normal" font-weight="normal" text-decoration="none" x="0" y="510">UNREGISTERED</text><text fill="#eeeeee" stroke="none" font-family="Arial" font-size="24px" font-style="normal" font-weight="normal" text-decoration="none" x="0" y="540">UNREGISTERED</text><text fill="#eeeeee" stroke="none" font-family="Arial" font-size="24px" font-style="normal" font-weight="normal" text-decoration="none" x="0" y="570">UNREGISTERED</text><text fill="#eeeeee" stroke="none" font-family="Arial" font-size="24px" font-style="normal" font-weight="normal" text-decoration="none" x="0" y="600">UNREGISTERED</text><text fill="#eeeeee" stroke="none" font-family="Arial" font-size="24px" font-style="normal" font-weight="normal" text-decoration="none" x="0" y="630">UNREGISTERED</text><text fill="#eeeeee" stroke="none" font-family="Arial" font-size="24px" font-style="normal" font-weight="normal" text-decoration="none" x="0" y="660">UNREGISTERED</text><text fill="#eeeeee" stroke="none" font-family="Arial" font-size="24px" font-style="normal" font-weight="normal" text-decoration="none" x="0" y="690">UNREGISTERED</text><text fill="#eeeeee" stroke="none" font-family="Arial" font-size="24px" font-style="normal" font-weight="normal" text-decoration="none" x="0" y="720">UNREGISTERED</text><text fill="#eeeeee" stroke="none" font-family="Arial" font-size="24px" font-style="normal" font-weight="normal" text-decoration="none" x="0" y="750">UNREGISTERED</text><text fill="#eeeeee" stroke="none" font-family="Arial" font-size="24px" font-style="normal" font-weight="normal" text-decoration="none" x="0" y="780">UNREGISTERED</text><text fill="#eeeeee" stroke="none" font-family="Arial" font-size="24px" font-style="normal" font-weight="normal" text-decoration="none" x="0" y="810">UNREGISTERED</text><text fill="#eeeeee" stroke="none" font-family="Arial" font-size="24px" font-style="normal" font-weight="normal" text-decoration="none" x="200" y="0">UNREGISTERED</text><text fill="#eeeeee" stroke="none" font-family="Arial" font-size="24px" font-style="normal" font-weight="normal" text-decoration="none" x="200" y="30">UNREGISTERED</text><text fill="#eeeeee" stroke="none" font-family="Arial" font-size="24px" font-style="normal" font-weight="normal" text-decoration="none" x="200" y="60">UNREGISTERED</text><text fill="#eeeeee" stroke="none" font-family="Arial" font-size="24px" font-style="normal" font-weight="normal" text-decoration="none" x="200" y="90">UNREGISTERED</text><text fill="#eeeeee" stroke="none" font-family="Arial" font-size="24px" font-style="normal" font-weight="normal" text-decoration="none" x="200" y="120">UNREGISTERED</text><text fill="#eeeeee" stroke="none" font-family="Arial" font-size="24px" font-style="normal" font-weight="normal" text-decoration="none" x="200" y="150">UNREGISTERED</text><text fill="#eeeeee" stroke="none" font-family="Arial" font-size="24px" font-style="normal" font-weight="normal" text-decoration="none" x="200" y="180">UNREGISTERED</text><text fill="#eeeeee" stroke="none" font-family="Arial" font-size="24px" font-style="normal" font-weight="normal" text-decoration="none" x="200" y="210">UNREGISTERED</text><text fill="#eeeeee" stroke="none" font-family="Arial" font-size="24px" font-style="normal" font-weight="normal" text-decoration="none" x="200" y="240">UNREGISTERED</text><text fill="#eeeeee" stroke="none" font-family="Arial" font-size="24px" font-style="normal" font-weight="normal" text-decoration="none" x="200" y="270">UNREGISTERED</text><text fill="#eeeeee" stroke="none" font-family="Arial" font-size="24px" font-style="normal" font-weight="normal" text-decoration="none" x="200" y="300">UNREGISTERED</text><text fill="#eeeeee" stroke="none" font-family="Arial" font-size="24px" font-style="normal" font-weight="normal" text-decoration="none" x="200" y="330">UNREGISTERED</text><text fill="#eeeeee" stroke="none" font-family="Arial" font-size="24px" font-style="normal" font-weight="normal" text-decoration="none" x="200" y="360">UNREGISTERED</text><text fill="#eeeeee" stroke="none" font-family="Arial" font-size="24px" font-style="normal" font-weight="normal" text-decoration="none" x="200" y="390">UNREGISTERED</text><text fill="#eeeeee" stroke="none" font-family="Arial" font-size="24px" font-style="normal" font-weight="normal" text-decoration="none" x="200" y="420">UNREGISTERED</text><text fill="#eeeeee" stroke="none" font-family="Arial" font-size="24px" font-style="normal" font-weight="normal" text-decoration="none" x="200" y="450">UNREGISTERED</text><text fill="#eeeeee" stroke="none" font-family="Arial" font-size="24px" font-style="normal" font-weight="normal" text-decoration="none" x="200" y="480">UNREGISTERED</text><text fill="#eeeeee" stroke="none" font-family="Arial" font-size="24px" font-style="normal" font-weight="normal" text-decoration="none" x="200" y="510">UNREGISTERED</text><text fill="#eeeeee" stroke="none" font-family="Arial" font-size="24px" font-style="normal" font-weight="normal" text-decoration="none" x="200" y="540">UNREGISTERED</text><text fill="#eeeeee" stroke="none" font-family="Arial" font-size="24px" font-style="normal" font-weight="normal" text-decoration="none" x="200" y="570">UNREGISTERED</text><text fill="#eeeeee" stroke="none" font-family="Arial" font-size="24px" font-style="normal" font-weight="normal" text-decoration="none" x="200" y="600">UNREGISTERED</text><text fill="#eeeeee" stroke="none" font-family="Arial" font-size="24px" font-style="normal" font-weight="normal" text-decoration="none" x="200" y="630">UNREGISTERED</text><text fill="#eeeeee" stroke="none" font-family="Arial" font-size="24px" font-style="normal" font-weight="normal" text-decoration="none" x="200" y="660">UNREGISTERED</text><text fill="#eeeeee" stroke="none" font-family="Arial" font-size="24px" font-style="normal" font-weight="normal" text-decoration="none" x="200" y="690">UNREGISTERED</text><text fill="#eeeeee" stroke="none" font-family="Arial" font-size="24px" font-style="normal" font-weight="normal" text-decoration="none" x="200" y="720">UNREGISTERED</text><text fill="#eeeeee" stroke="none" font-family="Arial" font-size="24px" font-style="normal" font-weight="normal" text-decoration="none" x="200" y="750">UNREGISTERED</text><text fill="#eeeeee" stroke="none" font-family="Arial" font-size="24px" font-style="normal" font-weight="normal" text-decoration="none" x="200" y="780">UNREGISTERED</text><text fill="#eeeeee" stroke="none" font-family="Arial" font-size="24px" font-style="normal" font-weight="normal" text-decoration="none" x="200" y="810">UNREGISTERED</text><text fill="#eeeeee" stroke="none" font-family="Arial" font-size="24px" font-style="normal" font-weight="normal" text-decoration="none" x="400" y="0">UNREGISTERED</text><text fill="#eeeeee" stroke="none" font-family="Arial" font-size="24px" font-style="normal" font-weight="normal" text-decoration="none" x="400" y="30">UNREGISTERED</text><text fill="#eeeeee" stroke="none" font-family="Arial" font-size="24px" font-style="normal" font-weight="normal" text-decoration="none" x="400" y="60">UNREGISTERED</text><text fill="#eeeeee" stroke="none" font-family="Arial" font-size="24px" font-style="normal" font-weight="normal" text-decoration="none" x="400" y="90">UNREGISTERED</text><text fill="#eeeeee" stroke="none" font-family="Arial" font-size="24px" font-style="normal" font-weight="normal" text-decoration="none" x="400" y="120">UNREGISTERED</text><text fill="#eeeeee" stroke="none" font-family="Arial" font-size="24px" font-style="normal" font-weight="normal" text-decoration="none" x="400" y="150">UNREGISTERED</text><text fill="#eeeeee" stroke="none" font-family="Arial" font-size="24px" font-style="normal" font-weight="normal" text-decoration="none" x="400" y="180">UNREGISTERED</text><text fill="#eeeeee" stroke="none" font-family="Arial" font-size="24px" font-style="normal" font-weight="normal" text-decoration="none" x="400" y="210">UNREGISTERED</text><text fill="#eeeeee" stroke="none" font-family="Arial" font-size="24px" font-style="normal" font-weight="normal" text-decoration="none" x="400" y="240">UNREGISTERED</text><text fill="#eeeeee" stroke="none" font-family="Arial" font-size="24px" font-style="normal" font-weight="normal" text-decoration="none" x="400" y="270">UNREGISTERED</text><text fill="#eeeeee" stroke="none" font-family="Arial" font-size="24px" font-style="normal" font-weight="normal" text-decoration="none" x="400" y="300">UNREGISTERED</text><text fill="#eeeeee" stroke="none" font-family="Arial" font-size="24px" font-style="normal" font-weight="normal" text-decoration="none" x="400" y="330">UNREGISTERED</text><text fill="#eeeeee" stroke="none" font-family="Arial" font-size="24px" font-style="normal" font-weight="normal" text-decoration="none" x="400" y="360">UNREGISTERED</text><text fill="#eeeeee" stroke="none" font-family="Arial" font-size="24px" font-style="normal" font-weight="normal" text-decoration="none" x="400" y="390">UNREGISTERED</text><text fill="#eeeeee" stroke="none" font-family="Arial" font-size="24px" font-style="normal" font-weight="normal" text-decoration="none" x="400" y="420">UNREGISTERED</text><text fill="#eeeeee" stroke="none" font-family="Arial" font-size="24px" font-style="normal" font-weight="normal" text-decoration="none" x="400" y="450">UNREGISTERED</text><text fill="#eeeeee" stroke="none" font-family="Arial" font-size="24px" font-style="normal" font-weight="normal" text-decoration="none" x="400" y="480">UNREGISTERED</text><text fill="#eeeeee" stroke="none" font-family="Arial" font-size="24px" font-style="normal" font-weight="normal" text-decoration="none" x="400" y="510">UNREGISTERED</text><text fill="#eeeeee" stroke="none" font-family="Arial" font-size="24px" font-style="normal" font-weight="normal" text-decoration="none" x="400" y="540">UNREGISTERED</text><text fill="#eeeeee" stroke="none" font-family="Arial" font-size="24px" font-style="normal" font-weight="normal" text-decoration="none" x="400" y="570">UNREGISTERED</text><text fill="#eeeeee" stroke="none" font-family="Arial" font-size="24px" font-style="normal" font-weight="normal" text-decoration="none" x="400" y="600">UNREGISTERED</text><text fill="#eeeeee" stroke="none" font-family="Arial" font-size="24px" font-style="normal" font-weight="normal" text-decoration="none" x="400" y="630">UNREGISTERED</text><text fill="#eeeeee" stroke="none" font-family="Arial" font-size="24px" font-style="normal" font-weight="normal" text-decoration="none" x="400" y="660">UNREGISTERED</text><text fill="#eeeeee" stroke="none" font-family="Arial" font-size="24px" font-style="normal" font-weight="normal" text-decoration="none" x="400" y="690">UNREGISTERED</text><text fill="#eeeeee" stroke="none" font-family="Arial" font-size="24px" font-style="normal" font-weight="normal" text-decoration="none" x="400" y="720">UNREGISTERED</text><text fill="#eeeeee" stroke="none" font-family="Arial" font-size="24px" font-style="normal" font-weight="normal" text-decoration="none" x="400" y="750">UNREGISTERED</text><text fill="#eeeeee" stroke="none" font-family="Arial" font-size="24px" font-style="normal" font-weight="normal" text-decoration="none" x="400" y="780">UNREGISTERED</text><text fill="#eeeeee" stroke="none" font-family="Arial" font-size="24px" font-style="normal" font-weight="normal" text-decoration="none" x="400" y="810">UNREGISTERED</text><text fill="#eeeeee" stroke="none" font-family="Arial" font-size="24px" font-style="normal" font-weight="normal" text-decoration="none" x="600" y="0">UNREGISTERED</text><text fill="#eeeeee" stroke="none" font-family="Arial" font-size="24px" font-style="normal" font-weight="normal" text-decoration="none" x="600" y="30">UNREGISTERED</text><text fill="#eeeeee" stroke="none" font-family="Arial" font-size="24px" font-style="normal" font-weight="normal" text-decoration="none" x="600" y="60">UNREGISTERED</text><text fill="#eeeeee" stroke="none" font-family="Arial" font-size="24px" font-style="normal" font-weight="normal" text-decoration="none" x="600" y="90">UNREGISTERED</text><text fill="#eeeeee" stroke="none" font-family="Arial" font-size="24px" font-style="normal" font-weight="normal" text-decoration="none" x="600" y="120">UNREGISTERED</text><text fill="#eeeeee" stroke="none" font-family="Arial" font-size="24px" font-style="normal" font-weight="normal" text-decoration="none" x="600" y="150">UNREGISTERED</text><text fill="#eeeeee" stroke="none" font-family="Arial" font-size="24px" font-style="normal" font-weight="normal" text-decoration="none" x="600" y="180">UNREGISTERED</text><text fill="#eeeeee" stroke="none" font-family="Arial" font-size="24px" font-style="normal" font-weight="normal" text-decoration="none" x="600" y="210">UNREGISTERED</text><text fill="#eeeeee" stroke="none" font-family="Arial" font-size="24px" font-style="normal" font-weight="normal" text-decoration="none" x="600" y="240">UNREGISTERED</text><text fill="#eeeeee" stroke="none" font-family="Arial" font-size="24px" font-style="normal" font-weight="normal" text-decoration="none" x="600" y="270">UNREGISTERED</text><text fill="#eeeeee" stroke="none" font-family="Arial" font-size="24px" font-style="normal" font-weight="normal" text-decoration="none" x="600" y="300">UNREGISTERED</text><text fill="#eeeeee" stroke="none" font-family="Arial" font-size="24px" font-style="normal" font-weight="normal" text-decoration="none" x="600" y="330">UNREGISTERED</text><text fill="#eeeeee" stroke="none" font-family="Arial" font-size="24px" font-style="normal" font-weight="normal" text-decoration="none" x="600" y="360">UNREGISTERED</text><text fill="#eeeeee" stroke="none" font-family="Arial" font-size="24px" font-style="normal" font-weight="normal" text-decoration="none" x="600" y="390">UNREGISTERED</text><text fill="#eeeeee" stroke="none" font-family="Arial" font-size="24px" font-style="normal" font-weight="normal" text-decoration="none" x="600" y="420">UNREGISTERED</text><text fill="#eeeeee" stroke="none" font-family="Arial" font-size="24px" font-style="normal" font-weight="normal" text-decoration="none" x="600" y="450">UNREGISTERED</text><text fill="#eeeeee" stroke="none" font-family="Arial" font-size="24px" font-style="normal" font-weight="normal" text-decoration="none" x="600" y="480">UNREGISTERED</text><text fill="#eeeeee" stroke="none" font-family="Arial" font-size="24px" font-style="normal" font-weight="normal" text-decoration="none" x="600" y="510">UNREGISTERED</text><text fill="#eeeeee" stroke="none" font-family="Arial" font-size="24px" font-style="normal" font-weight="normal" text-decoration="none" x="600" y="540">UNREGISTERED</text><text fill="#eeeeee" stroke="none" font-family="Arial" font-size="24px" font-style="normal" font-weight="normal" text-decoration="none" x="600" y="570">UNREGISTERED</text><text fill="#eeeeee" stroke="none" font-family="Arial" font-size="24px" font-style="normal" font-weight="normal" text-decoration="none" x="600" y="600">UNREGISTERED</text><text fill="#eeeeee" stroke="none" font-family="Arial" font-size="24px" font-style="normal" font-weight="normal" text-decoration="none" x="600" y="630">UNREGISTERED</text><text fill="#eeeeee" stroke="none" font-family="Arial" font-size="24px" font-style="normal" font-weight="normal" text-decoration="none" x="600" y="660">UNREGISTERED</text><text fill="#eeeeee" stroke="none" font-family="Arial" font-size="24px" font-style="normal" font-weight="normal" text-decoration="none" x="600" y="690">UNREGISTERED</text><text fill="#eeeeee" stroke="none" font-family="Arial" font-size="24px" font-style="normal" font-weight="normal" text-decoration="none" x="600" y="720">UNREGISTERED</text><text fill="#eeeeee" stroke="none" font-family="Arial" font-size="24px" font-style="normal" font-weight="normal" text-decoration="none" x="600" y="750">UNREGISTERED</text><text fill="#eeeeee" stroke="none" font-family="Arial" font-size="24px" font-style="normal" font-weight="normal" text-decoration="none" x="600" y="780">UNREGISTERED</text><text fill="#eeeeee" stroke="none" font-family="Arial" font-size="24px" font-style="normal" font-weight="normal" text-decoration="none" x="600" y="810">UNREGISTERED</text><g transform="translate(-222,-38) scale(1,1)"><path fill="#C0C0C0" stroke="none" d="M 401 64.5 C 401 59.2532944 405.2532944 55 410.5 55 C 415.7467056 55 420 59.2532944 420 64.5 C 420 69.7467056 415.7467056 74 410.5 74 C 405.2532944 74 401 69.7467056 401 64.5 Z" opacity="0.2"/></g><g transform="translate(-222,-38) scale(1,1)"><path fill="#000000" stroke="none" d="M 394 57.5 C 394 52.2532944 398.2532944 48 403.5 48 C 408.7467056 48 413 52.2532944 413 57.5 C 413 62.7467056 408.7467056 67 403.5 67 C 398.2532944 67 394 62.7467056 394 57.5 Z"/></g><g transform="translate(-222,-38) scale(1,1)"><path fill="#C0C0C0" stroke="none" d="M 272 103 L 549.98974609375 103 Q 559.98974609375 103 559.98974609375 113 L 559.98974609375 132 Q 559.98974609375 142 549.98974609375 142 L 272 142 Q 262 142 262 132 L 262 113 Q 262 103 272 103 Z" opacity="0.2"/></g><g transform="translate(-222,-38) scale(1,1)"><path fill="#ffffff" stroke="none" d="M 265 96 L 542.98974609375 96 Q 552.98974609375 96 552.98974609375 106 L 552.98974609375 125 Q 552.98974609375 135 542.98974609375 135 L 265 135 Q 255 135 255 125 L 255 106 Q 255 96 265 96 Z"/></g><g transform="translate(-222,-38) scale(1,1)"><path fill="none" stroke="#000000" d="M 265 96 L 542.98974609375 96 Q 552.98974609375 96 552.98974609375 106 L 552.98974609375 125 Q 552.98974609375 135 542.98974609375 135 L 265 135 Q 255 135 255 125 L 255 106 Q 255 96 265 96 Z" stroke-miterlimit="10"/></g><g transform="translate(-222,-38) scale(1,1)"><g><path fill="none" stroke="none"/><text fill="#000000" stroke="none" font-family="Arial" font-size="13px" font-style="normal" font-weight="bold" text-decoration="none" x="308.1103515625" y="115.5">Usuario presiona botón "Cambiar</text><text fill="#000000" stroke="none" font-family="Arial" font-size="13px" font-style="normal" font-weight="bold" text-decoration="none" x="368.0830078125" y="128.5">Contraseña"</text></g></g><g transform="translate(-222,-38) scale(1,1)"><path fill="#C0C0C0" stroke="none" d="M 305 247 L 515.0634765625 247 Q 525.0634765625 247 525.0634765625 257 L 525.0634765625 276 Q 525.0634765625 286 515.0634765625 286 L 305 286 Q 295 286 295 276 L 295 257 Q 295 247 305 247 Z" opacity="0.2"/></g><g transform="translate(-222,-38) scale(1,1)"><path fill="#ffffff" stroke="none" d="M 298 240 L 508.0634765625 240 Q 518.0634765625 240 518.0634765625 250 L 518.0634765625 269 Q 518.0634765625 279 508.0634765625 279 L 298 279 Q 288 279 288 269 L 288 250 Q 288 240 298 240 Z"/></g><g transform="translate(-222,-38) scale(1,1)"><path fill="none" stroke="#000000" d="M 298 240 L 508.0634765625 240 Q 518.0634765625 240 518.0634765625 250 L 518.0634765625 269 Q 518.0634765625 279 508.0634765625 279 L 298 279 Q 288 279 288 269 L 288 250 Q 288 240 298 240 Z" stroke-miterlimit="10"/></g><g transform="translate(-222,-38) scale(1,1)"><g><path fill="none" stroke="none"/><text fill="#000000" stroke="none" font-family="Arial" font-size="13px" font-style="normal" font-weight="bold" text-decoration="none" x="301.142333984375" y="259.5">Usuario introduce datos necesarios</text></g></g><g transform="translate(-222,-38) scale(1,1)"><path fill="#C0C0C0" stroke="none" d="M 256 183 L 564.33154296875 183 Q 574.33154296875 183 574.33154296875 193 L 574.33154296875 212 Q 574.33154296875 222 564.33154296875 222 L 256 222 Q 246 222 246 212 L 246 193 Q 246 183 256 183 Z" opacity="0.2"/></g><g transform="translate(-222,-38) scale(1,1)"><path fill="#ffffff" stroke="none" d="M 249 176 L 557.33154296875 176 Q 567.33154296875 176 567.33154296875 186 L 567.33154296875 205 Q 567.33154296875 215 557.33154296875 215 L 249 215 Q 239 215 239 205 L 239 186 Q 239 176 249 176 Z"/></g><g transform="translate(-222,-38) scale(1,1)"><path fill="none" stroke="#000000" d="M 249 176 L 557.33154296875 176 Q 567.33154296875 176 567.33154296875 186 L 567.33154296875 205 Q 567.33154296875 215 557.33154296875 215 L 249 215 Q 239 215 239 205 L 239 186 Q 239 176 249 176 Z" stroke-miterlimit="10"/></g><g transform="translate(-222,-38) scale(1,1)"><g><path fill="none" stroke="none"/><text fill="#000000" stroke="none" font-family="Arial" font-size="13px" font-style="normal" font-weight="bold" text-decoration="none" x="255.024169921875" y="195.5">Nueva ventana para introducir los datos necesarios</text></g></g><g transform="translate(-222,-38) scale(1,1)"><path fill="#C0C0C0" stroke="none" d="M 249 311 L 572.5595703125 311 Q 582.5595703125 311 582.5595703125 321 L 582.5595703125 340 Q 582.5595703125 350 572.5595703125 350 L 249 350 Q 239 350 239 340 L 239 321 Q 239 311 249 311 Z" opacity="0.2"/></g><g transform="translate(-222,-38) scale(1,1)"><path fill="#ffffff" stroke="none" d="M 242 304 L 565.5595703125 304 Q 575.5595703125 304 575.5595703125 314 L 575.5595703125 333 Q 575.5595703125 343 565.5595703125 343 L 242 343 Q 232 343 232 333 L 232 314 Q 232 304 242 304 Z"/></g><g transform="translate(-222,-38) scale(1,1)"><path fill="none" stroke="#000000" d="M 242 304 L 565.5595703125 304 Q 575.5595703125 304 575.5595703125 314 L 575.5595703125 333 Q 575.5595703125 343 565.5595703125 343 L 242 343 Q 232 343 232 333 L 232 314 Q 232 304 242 304 Z" stroke-miterlimit="10"/></g><g transform="translate(-222,-38) scale(1,1)"><g><path fill="none" stroke="none"/><text fill="#000000" stroke="none" font-family="Arial" font-size="13px" font-style="normal" font-weight="bold" text-decoration="none" x="272.986328125" y="323.5">Sistema verifica que la actual contraseña sea</text><text fill="#000000" stroke="none" font-family="Arial" font-size="13px" font-style="normal" font-weight="bold" text-decoration="none" x="380.2998046875" y="336.5">correcta</text></g></g><g transform="translate(-222,-38) scale(1,1)"><path fill="#C0C0C0" stroke="none" d="M 256 447 L 565.10595703125 447 Q 575.10595703125 447 575.10595703125 457 L 575.10595703125 476 Q 575.10595703125 486 565.10595703125 486 L 256 486 Q 246 486 246 476 L 246 457 Q 246 447 256 447 Z" opacity="0.2"/></g><g transform="translate(-222,-38) scale(1,1)"><path fill="#ffffff" stroke="none" d="M 249 440 L 558.10595703125 440 Q 568.10595703125 440 568.10595703125 450 L 568.10595703125 469 Q 568.10595703125 479 558.10595703125 479 L 249 479 Q 239 479 239 469 L 239 450 Q 239 440 249 440 Z"/></g><g transform="translate(-222,-38) scale(1,1)"><path fill="none" stroke="#000000" d="M 249 440 L 558.10595703125 440 Q 568.10595703125 440 568.10595703125 450 L 568.10595703125 469 Q 568.10595703125 479 558.10595703125 479 L 249 479 Q 239 479 239 469 L 239 450 Q 239 440 249 440 Z" stroke-miterlimit="10"/></g><g transform="translate(-222,-38) scale(1,1)"><g><path fill="none" stroke="none"/><text fill="#000000" stroke="none" font-family="Arial" font-size="13px" font-style="normal" font-weight="bold" text-decoration="none" x="272.39453125" y="459.5">Sistema verifica que la nueva contraseña sea</text><text fill="#000000" stroke="none" font-family="Arial" font-size="13px" font-style="normal" font-weight="bold" text-decoration="none" x="386.56982421875" y="472.5">valida</text></g></g><g transform="translate(-222,-38) scale(1,1)"><path fill="#C0C0C0" stroke="none" d="M 316 583 L 504 583 Q 514 583 514 593 L 514 636 Q 514 646 504 646 L 316 646 Q 306 646 306 636 L 306 593 Q 306 583 316 583 Z" opacity="0.2"/></g><g transform="translate(-222,-38) scale(1,1)"><path fill="#ffffff" stroke="none" d="M 309 576 L 497 576 Q 507 576 507 586 L 507 629 Q 507 639 497 639 L 309 639 Q 299 639 299 629 L 299 586 Q 299 576 309 576 Z"/></g><g transform="translate(-222,-38) scale(1,1)"><path fill="none" stroke="#000000" d="M 309 576 L 497 576 Q 507 576 507 586 L 507 629 Q 507 639 497 639 L 309 639 Q 299 639 299 629 L 299 586 Q 299 576 309 576 Z" stroke-miterlimit="10"/></g><g transform="translate(-222,-38) scale(1,1)"><g><path fill="none" stroke="none"/><text fill="#000000" stroke="none" font-family="Arial" font-size="13px" font-style="normal" font-weight="bold" text-decoration="none" x="321.69921875" y="595.5">Sistema valida que la nueva</text><text fill="#000000" stroke="none" font-family="Arial" font-size="13px" font-style="normal" font-weight="bold" text-decoration="none" x="320.2646484375" y="608.5">contraseña y la confirmación</text><text fill="#000000" stroke="none" font-family="Arial" font-size="13px" font-style="normal" font-weight="bold" text-decoration="none" x="366.5009765625" y="621.5">sean iguales</text></g></g><g transform="translate(-222,-38) scale(1,1)"><path fill="#C0C0C0" stroke="none" d="M 374 402.5 L 411 373 L 447 402.5 L 411 431 L 374 402.5" opacity="0.2"/></g><g transform="translate(-222,-38) scale(1,1)"><path fill="#ffffff" stroke="none" d="M 367 395 L 403.5 366 L 440 395 L 403.5 424 L 367 395"/></g><g transform="translate(-222,-38) scale(1,1)"><path fill="none" stroke="#000000" d="M 367 395 L 403.5 366 L 440 395 L 403.5 424 L 367 395 L 367 395" stroke-miterlimit="10"/></g><g transform="translate(-222,-38) scale(1,1)"><path fill="#C0C0C0" stroke="none" d="M 374 534.5 L 410.5 510 L 446 534.5 L 410.5 558 L 374 534.5" opacity="0.2"/></g><g transform="translate(-222,-38) scale(1,1)"><path fill="#ffffff" stroke="none" d="M 367 527 L 403 503 L 439 527 L 403 551 L 367 527"/></g><g transform="translate(-222,-38) scale(1,1)"><path fill="none" stroke="#000000" d="M 367 527 L 403 503 L 439 527 L 403 551 L 367 527 L 367 527" stroke-miterlimit="10"/></g><g transform="translate(-222,-38) scale(1,1)"><path fill="#C0C0C0" stroke="none" d="M 366 706.5 L 410.5 670 L 454 706.5 L 410.5 742 L 366 706.5" opacity="0.2"/></g><g transform="translate(-222,-38) scale(1,1)"><path fill="#ffffff" stroke="none" d="M 359 699 L 403 663 L 447 699 L 403 735 L 359 699"/></g><g transform="translate(-222,-38) scale(1,1)"><path fill="none" stroke="#000000" d="M 359 699 L 403 663 L 447 699 L 403 735 L 359 699 L 359 699" stroke-miterlimit="10"/></g><g transform="translate(-222,-38) scale(1,1)"><path fill="#C0C0C0" stroke="none" d="M 322 767 L 499.55078125 767 Q 509.55078125 767 509.55078125 777 L 509.55078125 796 Q 509.55078125 806 499.55078125 806 L 322 806 Q 312 806 312 796 L 312 777 Q 312 767 322 767 Z" opacity="0.2"/></g><g transform="translate(-222,-38) scale(1,1)"><path fill="#ffffff" stroke="none" d="M 315 760 L 492.55078125 760 Q 502.55078125 760 502.55078125 770 L 502.55078125 789 Q 502.55078125 799 492.55078125 799 L 315 799 Q 305 799 305 789 L 305 770 Q 305 760 315 760 Z"/></g><g transform="translate(-222,-38) scale(1,1)"><path fill="none" stroke="#000000" d="M 315 760 L 492.55078125 760 Q 502.55078125 760 502.55078125 770 L 502.55078125 789 Q 502.55078125 799 492.55078125 799 L 315 799 Q 305 799 305 789 L 305 770 Q 305 760 315 760 Z" stroke-miterlimit="10"/></g><g transform="translate(-222,-38) scale(1,1)"><g><path fill="none" stroke="none"/><text fill="#000000" stroke="none" font-family="Arial" font-size="13px" font-style="normal" font-weight="bold" text-decoration="none" x="338.37548828125" y="779.5">Cambio de contraseña</text><text fill="#000000" stroke="none" font-family="Arial" font-size="13px" font-style="normal" font-weight="bold" text-decoration="none" x="383.180419921875" y="792.5">exitoso</text></g></g><g transform="translate(-222,-38) scale(1,1)"><path fill="#C0C0C0" stroke="none" d="M 398 851.5 C 398 844.59644 403.59644 839 410.5 839 C 417.40356 839 423 844.59644 423 851.5 C 423 858.40356 417.40356 864 410.5 864 C 403.59644 864 398 858.40356 398 851.5 Z" opacity="0.2"/></g><g transform="translate(-222,-38) scale(1,1)"><path fill="none" stroke="#000000" d="M 391 844.5 C 391 837.59644 396.59644 832 403.5 832 C 410.40356 832 416 837.59644 416 844.5 C 416 851.40356 410.40356 857 403.5 857 C 396.59644 857 391 851.40356 391 844.5 Z" stroke-miterlimit="10"/></g><g transform="translate(-222,-38) scale(1,1)"><path fill="#000000" stroke="none" d="M 396 844.5 C 396 840.357864 399.357864 837 403.5 837 C 407.642136 837 411 840.357864 411 844.5 C 411 848.642136 407.642136 852 403.5 852 C 399.357864 852 396 848.642136 396 844.5 Z"/></g><g transform="translate(-222,-38) scale(1,1)"><path fill="#C0C0C0" stroke="none" d="M 589 383 L 715.99169921875 383 Q 725.99169921875 383 725.99169921875 393 L 725.99169921875 412 Q 725.99169921875 422 715.99169921875 422 L 589 422 Q 579 422 579 412 L 579 393 Q 579 383 589 383 Z" opacity="0.2"/></g><g transform="translate(-222,-38) scale(1,1)"><path fill="#ffffff" stroke="none" d="M 582 376 L 708.99169921875 376 Q 718.99169921875 376 718.99169921875 386 L 718.99169921875 405 Q 718.99169921875 415 708.99169921875 415 L 582 415 Q 572 415 572 405 L 572 386 Q 572 376 582 376 Z"/></g><g transform="translate(-222,-38) scale(1,1)"><path fill="none" stroke="#000000" d="M 582 376 L 708.99169921875 376 Q 718.99169921875 376 718.99169921875 386 L 718.99169921875 405 Q 718.99169921875 415 708.99169921875 415 L 582 415 Q 572 415 572 405 L 572 386 Q 572 376 582 376 Z" stroke-miterlimit="10"/></g><g transform="translate(-222,-38) scale(1,1)"><g><path fill="none" stroke="none"/><text fill="#000000" stroke="none" font-family="Arial" font-size="13px" font-style="normal" font-weight="bold" text-decoration="none" x="611.891357421875" y="395.5">Contraseña</text><text fill="#000000" stroke="none" font-family="Arial" font-size="13px" font-style="normal" font-weight="bold" text-decoration="none" x="616.956787109375" y="408.5">incorrecta</text></g></g><g transform="translate(-222,-38) scale(1,1)"><path fill="#C0C0C0" stroke="none" d="M 568 515 L 736.181640625 515 Q 746.181640625 515 746.181640625 525 L 746.181640625 544 Q 746.181640625 554 736.181640625 554 L 568 554 Q 558 554 558 544 L 558 525 Q 558 515 568 515 Z" opacity="0.2"/></g><g transform="translate(-222,-38) scale(1,1)"><path fill="#ffffff" stroke="none" d="M 561 508 L 729.181640625 508 Q 739.181640625 508 739.181640625 518 L 739.181640625 537 Q 739.181640625 547 729.181640625 547 L 561 547 Q 551 547 551 537 L 551 518 Q 551 508 561 508 Z"/></g><g transform="translate(-222,-38) scale(1,1)"><path fill="none" stroke="#000000" d="M 561 508 L 729.181640625 508 Q 739.181640625 508 739.181640625 518 L 739.181640625 537 Q 739.181640625 547 729.181640625 547 L 561 547 Q 551 547 551 537 L 551 518 Q 551 508 561 508 Z" stroke-miterlimit="10"/></g><g transform="translate(-222,-38) scale(1,1)"><g><path fill="none" stroke="none"/><text fill="#000000" stroke="none" font-family="Arial" font-size="13px" font-style="normal" font-weight="bold" text-decoration="none" x="580.049560546875" y="527.5">Nueva constraseña no</text><text fill="#000000" stroke="none" font-family="Arial" font-size="13px" font-style="normal" font-weight="bold" text-decoration="none" x="628.107666015625" y="540.5">valida</text></g></g><g transform="translate(-222,-38) scale(1,1)"><path fill="#C0C0C0" stroke="none" d="M 612 687 L 693.4599609375 687 Q 703.4599609375 687 703.4599609375 697 L 703.4599609375 716 Q 703.4599609375 726 693.4599609375 726 L 612 726 Q 602 726 602 716 L 602 697 Q 602 687 612 687 Z" opacity="0.2"/></g><g transform="translate(-222,-38) scale(1,1)"><path fill="#ffffff" stroke="none" d="M 605 680 L 686.4599609375 680 Q 696.4599609375 680 696.4599609375 690 L 696.4599609375 709 Q 696.4599609375 719 686.4599609375 719 L 605 719 Q 595 719 595 709 L 595 690 Q 595 680 605 680 Z"/></g><g transform="translate(-222,-38) scale(1,1)"><path fill="none" stroke="#000000" d="M 605 680 L 686.4599609375 680 Q 696.4599609375 680 696.4599609375 690 L 696.4599609375 709 Q 696.4599609375 719 686.4599609375 719 L 605 719 Q 595 719 595 709 L 595 690 Q 595 680 605 680 Z" stroke-miterlimit="10"/></g><g transform="translate(-222,-38) scale(1,1)"><g><path fill="none" stroke="none"/><text fill="#000000" stroke="none" font-family="Arial" font-size="13px" font-style="normal" font-weight="bold" text-decoration="none" x="625.135009765625" y="699.5">No son</text><text fill="#000000" stroke="none" font-family="Arial" font-size="13px" font-style="normal" font-weight="bold" text-decoration="none" x="625.1318359375" y="712.5">iguales</text></g></g><g transform="translate(-222,-38) scale(1,1)"><path fill="none" stroke="#000000" d="M 403 68 L 403 95" stroke-miterlimit="10"/></g><g transform="translate(-222,-38) scale(1,1)"><path fill="none" stroke="#000000" d="M 398.790482243984 84.83732514237585 L 403 95 L 407.209517756016 84.83732514237585" stroke-miterlimit="10"/></g><g transform="translate(-222,-38) scale(1,1)"><path fill="none" stroke="#000000" d="M 403 136 L 403 175" stroke-miterlimit="10"/></g><g transform="translate(-222,-38) scale(1,1)"><path fill="none" stroke="#000000" d="M 398.790482243984 164.83732514237585 L 403 175 L 407.209517756016 164.83732514237585" stroke-miterlimit="10"/></g><g transform="translate(-222,-38) scale(1,1)"><path fill="none" stroke="#000000" d="M 403 216 L 403 239" stroke-miterlimit="10"/></g><g transform="translate(-222,-38) scale(1,1)"><path fill="none" stroke="#000000" d="M 398.790482243984 228.83732514237585 L 403 239 L 407.209517756016 228.83732514237585" stroke-miterlimit="10"/></g><g transform="translate(-222,-38) scale(1,1)"><path fill="none" stroke="#000000" d="M 403 280 L 403 303" stroke-miterlimit="10"/></g><g transform="translate(-222,-38) scale(1,1)"><path fill="none" stroke="#000000" d="M 398.790482243984 292.83732514237585 L 403 303 L 407.209517756016 292.83732514237585" stroke-miterlimit="10"/></g><g transform="translate(-222,-38) scale(1,1)"><path fill="none" stroke="#000000" d="M 403 344 L 403 365" stroke-miterlimit="10"/></g><g transform="translate(-222,-38) scale(1,1)"><path fill="none" stroke="#000000" d="M 398.790482243984 354.83732514237585 L 403 365 L 407.209517756016 354.83732514237585" stroke-miterlimit="10"/></g><g transform="translate(-222,-38) scale(1,1)"><path fill="none" stroke="#000000" d="M 403 425 L 403 439" stroke-miterlimit="10"/></g><g transform="translate(-222,-38) scale(1,1)"><path fill="none" stroke="#000000" d="M 398.790482243984 428.83732514237585 L 403 439 L 407.209517756016 428.83732514237585" stroke-miterlimit="10"/></g><g transform="translate(-222,-38) scale(1,1)"><path fill="none" stroke="#000000" d="M 403 480 L 403 502" stroke-miterlimit="10"/></g><g transform="translate(-222,-38) scale(1,1)"><path fill="none" stroke="#000000" d="M 398.790482243984 491.83732514237585 L 403 502 L 407.209517756016 491.83732514237585" stroke-miterlimit="10"/></g><g transform="translate(-222,-38) scale(1,1)"><path fill="none" stroke="#000000" d="M 403 552 L 403 575" stroke-miterlimit="10"/></g><g transform="translate(-222,-38) scale(1,1)"><path fill="none" stroke="#000000" d="M 398.790482243984 564.8373251423759 L 403 575 L 407.209517756016 564.8373251423759" stroke-miterlimit="10"/></g><g transform="translate(-222,-38) scale(1,1)"><path fill="none" stroke="#000000" d="M 403 640 L 403 662" stroke-miterlimit="10"/></g><g transform="translate(-222,-38) scale(1,1)"><path fill="none" stroke="#000000" d="M 398.790482243984 651.8373251423759 L 403 662 L 407.209517756016 651.8373251423759" stroke-miterlimit="10"/></g><g transform="translate(-222,-38) scale(1,1)"><path fill="none" stroke="#000000" d="M 403 736 L 403 759" stroke-miterlimit="10"/></g><g transform="translate(-222,-38) scale(1,1)"><path fill="none" stroke="#000000" d="M 398.790482243984 748.8373251423759 L 403 759 L 407.209517756016 748.8373251423759" stroke-miterlimit="10"/></g><g transform="translate(-222,-38) scale(1,1)"><path fill="none" stroke="#000000" d="M 403 800 L 403 831" stroke-miterlimit="10"/></g><g transform="translate(-222,-38) scale(1,1)"><path fill="none" stroke="#000000" d="M 398.790482243984 820.8373251423759 L 403 831 L 407.209517756016 820.8373251423759" stroke-miterlimit="10"/></g><g transform="translate(-222,-38) scale(1,1)"><path fill="none" stroke="#000000" d="M 448 699 L 594 699" stroke-miterlimit="10"/></g><g transform="translate(-222,-38) scale(1,1)"><path fill="none" stroke="#000000" d="M 583.8373251423759 703.209517756016 L 594 699 L 583.8373251423758 694.790482243984" stroke-miterlimit="10"/></g><g transform="translate(-222,-38) scale(1,1)"><path fill="none" stroke="#000000" d="M 696 699 L 840 699 L 840 192 L 567 192" stroke-miterlimit="10"/></g><g transform="translate(-222,-38) scale(1,1)"><path fill="none" stroke="#000000" d="M 577.1626748576241 187.790482243984 L 567 192 L 577.1626748576241 196.209517756016" stroke-miterlimit="10"/></g><g transform="translate(-222,-38) scale(1,1)"><path fill="none" stroke="#000000" d="M 440 527 L 550 527" stroke-miterlimit="10"/></g><g transform="translate(-222,-38) scale(1,1)"><path fill="none" stroke="#000000" d="M 539.8373251423759 531.209517756016 L 550 527 L 539.8373251423758 522.790482243984" stroke-miterlimit="10"/></g><g transform="translate(-222,-38) scale(1,1)"><path fill="none" stroke="#000000" d="M 739 527 L 816 527 L 816 192 L 567 192" stroke-miterlimit="10"/></g><g transform="translate(-222,-38) scale(1,1)"><path fill="none" stroke="#000000" d="M 577.1626748576241 187.790482243984 L 567 192 L 577.1626748576241 196.209517756016" stroke-miterlimit="10"/></g><g transform="translate(-222,-38) scale(1,1)"><path fill="none" stroke="#000000" d="M 441 395 L 571 395" stroke-miterlimit="10"/></g><g transform="translate(-222,-38) scale(1,1)"><path fill="none" stroke="#000000" d="M 560.8373251423759 399.209517756016 L 571 395 L 560.8373251423758 390.790482243984" stroke-miterlimit="10"/></g><g transform="translate(-222,-38) scale(1,1)"><path fill="none" stroke="#000000" d="M 719 395 L 792 395 L 792 192 L 567 192" stroke-miterlimit="10"/></g><g transform="translate(-222,-38) scale(1,1)"><path fill="none" stroke="#000000" d="M 577.1626748576241 187.790482243984 L 567 192 L 577.1626748576241 196.209517756016" stroke-miterlimit="10"/></g></g></svg>