<?xml version="1.0" encoding="UTF-8" standalone="no"?>
<svg
   xmlns:dc="http://purl.org/dc/elements/1.1/"
   xmlns:cc="http://creativecommons.org/ns#"
   xmlns:rdf="http://www.w3.org/1999/02/22-rdf-syntax-ns#"
   xmlns:svg="http://www.w3.org/2000/svg"
   xmlns="http://www.w3.org/2000/svg"
   xmlns:sodipodi="http://sodipodi.sourceforge.net/DTD/sodipodi-0.dtd"
   xmlns:inkscape="http://www.inkscape.org/namespaces/inkscape"
   version="1.1"
   width="684"
   height="444"
   id="svg1184"
   sodipodi:docname="UseCaseDiagram1.svg"
   inkscape:version="1.0.1 (3bc2e813f5, 2020-09-07, custom)"
   inkscape:export-filename="/home/luisbarrera/SextoTrimestre/Sistemas/petcare/casos-de-uso/admin-sesion.png"
   inkscape:export-xdpi="182.81361"
   inkscape:export-ydpi="182.81361">
  <metadata
     id="metadata1188">
    <rdf:RDF>
      <cc:Work
         rdf:about="">
        <dc:format>image/svg+xml</dc:format>
        <dc:type
           rdf:resource="http://purl.org/dc/dcmitype/StillImage" />
      </cc:Work>
    </rdf:RDF>
  </metadata>
  <sodipodi:namedview
     pagecolor="#ffffff"
     bordercolor="#666666"
     borderopacity="1"
     objecttolerance="10"
     gridtolerance="10"
     guidetolerance="10"
     inkscape:pageopacity="0"
     inkscape:pageshadow="2"
     inkscape:window-width="1572"
     inkscape:window-height="842"
     id="namedview1186"
     showgrid="false"
     inkscape:zoom="1.4385965"
     inkscape:cx="342"
     inkscape:cy="222"
     inkscape:window-x="14"
     inkscape:window-y="14"
     inkscape:window-maximized="0"
     inkscape:current-layer="g1182" />
  <defs
     id="defs808" />
  <g
     id="g1182">
    <g
       transform="translate(-54,-222) scale(1,1)"
       id="g932">
      <rect
         fill="#C0C0C0"
         stroke="none"
         x="343"
         y="263"
         width="392"
         height="296"
         opacity="0.2"
         id="rect930" />
    </g>
    <g
       transform="translate(-54,-222) scale(1,1)"
       id="g936">
      <rect
         fill="#ffffff"
         stroke="none"
         x="336"
         y="256"
         width="392"
         height="296"
         id="rect934" />
    </g>
    <g
       transform="translate(-54,-222) scale(1,1)"
       id="g940">
      <path
         fill="none"
         stroke="#000000"
         d="M 336 256 L 728 256 L 728 552 L 336 552 L 336 256 Z Z"
         stroke-miterlimit="10"
         id="path938" />
    </g>
    <g
       transform="translate(-54,-222) scale(1,1)"
       id="g948">
      <g
         id="g946">
        <path
           fill="none"
           stroke="none"
           id="path942" />
        <text
           fill="#000000"
           stroke="none"
           font-family="Arial"
           font-size="13px"
           font-style="normal"
           font-weight="bold"
           text-decoration="none"
           x="479.965087890625"
           y="275.5"
           id="text944">Manejo de Sesión</text>
      </g>
    </g>
    <g
       transform="translate(-54,-222) scale(1,1)"
       id="g952">
      <path
         fill="#ffffff"
         stroke="none"
         d="M 215.90313654119316 407.45 C 215.90313654119316 395.05120624 225.61774235355682 385 237.601318359375 385 C 249.58489436519318 385 259.2995001775568 395.05120624 259.2995001775568 407.45 C 259.2995001775568 419.84879376 249.58489436519318 429.9 237.601318359375 429.9 C 225.61774235355682 429.9 215.90313654119316 419.84879376 215.90313654119316 407.45 Z"
         id="path950" />
    </g>
    <g
       transform="translate(-54,-222) scale(1,1)"
       id="g956">
      <path
         fill="none"
         stroke="#000000"
         d="M 215.90313654119316 407.45 C 215.90313654119316 395.05120624 225.61774235355682 385 237.601318359375 385 C 249.58489436519318 385 259.2995001775568 395.05120624 259.2995001775568 407.45 C 259.2995001775568 419.84879376 249.58489436519318 429.9 237.601318359375 429.9 C 225.61774235355682 429.9 215.90313654119316 419.84879376 215.90313654119316 407.45 Z"
         stroke-miterlimit="10"
         id="path954" />
    </g>
    <g
       transform="translate(-54,-222) scale(1,1)"
       id="g960">
      <path
         fill="none"
         stroke="#000000"
         d="M 237.601318359375 429.9 L 237.601318359375 473.1"
         stroke-miterlimit="10"
         id="path958" />
    </g>
    <g
       transform="translate(-54,-222) scale(1,1)"
       id="g964">
      <path
         fill="none"
         stroke="#000000"
         d="M 214.62677290482952 446.1 L 260.5758638139205 446.1"
         stroke-miterlimit="10"
         id="path962" />
    </g>
    <g
       transform="translate(-54,-222) scale(1,1)"
       id="g968">
      <path
         fill="none"
         stroke="#000000"
         d="M 237.601318359375 473.1 L 205.69222745028407 518"
         stroke-miterlimit="10"
         id="path966" />
    </g>
    <g
       transform="translate(-54,-222) scale(1,1)"
       id="g972">
      <path
         fill="none"
         stroke="#000000"
         d="M 237.601318359375 473.1 L 269.51040926846593 518"
         stroke-miterlimit="10"
         id="path970" />
    </g>
    <g
       transform="translate(-54,-222) scale(1,1)"
       id="g980">
      <g
         id="g978">
        <path
           fill="none"
           stroke="none"
           id="path974" />
        <text
           fill="#000000"
           stroke="none"
           font-family="Arial"
           font-size="13px"
           font-style="normal"
           font-weight="bold"
           text-decoration="none"
           x="212.318603515625"
           y="538.5"
           id="text976">Miembro</text>
      </g>
    </g>
    <g
       transform="translate(-54,-222) scale(1,1)"
       id="g984">
      <path
         fill="#C0C0C0"
         stroke="none"
         d="M 471 320 C 471 310.6111584 500.5492032 303 537 303 C 573.4507968 303 603 310.6111584 603 320 C 603 329.3888416 573.4507968 337 537 337 C 500.5492032 337 471 329.3888416 471 320 Z"
         opacity="0.2"
         id="path982" />
    </g>
    <g
       transform="translate(-54,-222) scale(1,1)"
       id="g988">
      <path
         fill="#ffffff"
         stroke="none"
         d="M 464 313 C 464 303.6111584 493.5492032 296 530 296 C 566.4507968 296 596 303.6111584 596 313 C 596 322.3888416 566.4507968 330 530 330 C 493.5492032 330 464 322.3888416 464 313 Z"
         id="path986" />
    </g>
    <g
       transform="translate(-54,-222) scale(1,1)"
       id="g992">
      <path
         fill="none"
         stroke="#000000"
         d="M 464 313 C 464 303.6111584 493.5492032 296 530 296 C 566.4507968 296 596 303.6111584 596 313 C 596 322.3888416 566.4507968 330 530 330 C 493.5492032 330 464 322.3888416 464 313 Z"
         stroke-miterlimit="10"
         id="path990" />
    </g>
    <g
       transform="translate(-54,-222) scale(1,1)"
       id="g1000">
      <g
         id="g998">
        <path
           fill="none"
           stroke="none"
           id="path994" />
        <text
           fill="#000000"
           stroke="none"
           font-family="Arial"
           font-size="13px"
           font-style="normal"
           font-weight="bold"
           text-decoration="none"
           x="490.98095703125"
           y="320"
           id="text996">Iniciar Sesión</text>
      </g>
    </g>
    <g
       transform="translate(-54,-222) scale(1,1)"
       id="g1004">
      <path
         fill="#C0C0C0"
         stroke="none"
         d="M 463 392 C 463 382.6111584 497.697928 375 540.5 375 C 583.302072 375 618 382.6111584 618 392 C 618 401.3888416 583.302072 409 540.5 409 C 497.697928 409 463 401.3888416 463 392 Z"
         opacity="0.2"
         id="path1002" />
    </g>
    <g
       transform="translate(-54,-222) scale(1,1)"
       id="g1008">
      <path
         fill="#ffffff"
         stroke="none"
         d="M 456 385 C 456 375.6111584 490.697928 368 533.5 368 C 576.302072 368 611 375.6111584 611 385 C 611 394.3888416 576.302072 402 533.5 402 C 490.697928 402 456 394.3888416 456 385 Z"
         id="path1006" />
    </g>
    <g
       transform="translate(-54,-222) scale(1,1)"
       id="g1012">
      <path
         fill="none"
         stroke="#000000"
         d="M 456 385 C 456 375.6111584 490.697928 368 533.5 368 C 576.302072 368 611 375.6111584 611 385 C 611 394.3888416 576.302072 402 533.5 402 C 490.697928 402 456 394.3888416 456 385 Z"
         stroke-miterlimit="10"
         id="path1010" />
    </g>
    <g
       transform="translate(-54,-222) scale(1,1)"
       id="g1020">
      <g
         id="g1018">
        <path
           fill="none"
           stroke="none"
           id="path1014" />
        <text
           fill="#000000"
           stroke="none"
           font-family="Arial"
           font-size="13px"
           font-style="normal"
           font-weight="bold"
           text-decoration="none"
           x="493.40185546875"
           y="392"
           id="text1016">Cerrar Sesión</text>
      </g>
    </g>
    <g
       transform="translate(-54,-222) scale(1,1)"
       id="g1024">
      <path
         fill="#C0C0C0"
         stroke="none"
         d="M 431 456 C 431 446.6111584 480.9202448 439 542.5 439 C 604.0797552 439 654 446.6111584 654 456 C 654 465.3888416 604.0797552 473 542.5 473 C 480.9202448 473 431 465.3888416 431 456 Z"
         opacity="0.2"
         id="path1022" />
    </g>
    <g
       transform="translate(-54,-222) scale(1,1)"
       id="g1028">
      <path
         fill="#ffffff"
         stroke="none"
         d="M 424 449 C 424 439.6111584 473.9202448 432 535.5 432 C 597.0797552 432 647 439.6111584 647 449 C 647 458.3888416 597.0797552 466 535.5 466 C 473.9202448 466 424 458.3888416 424 449 Z"
         id="path1026" />
    </g>
    <g
       transform="translate(-54,-222) scale(1,1)"
       id="g1032">
      <path
         fill="none"
         stroke="#000000"
         d="M 424 449 C 424 439.6111584 473.9202448 432 535.5 432 C 597.0797552 432 647 439.6111584 647 449 C 647 458.3888416 597.0797552 466 535.5 466 C 473.9202448 466 424 458.3888416 424 449 Z"
         stroke-miterlimit="10"
         id="path1030" />
    </g>
    <g
       transform="translate(-54,-222) scale(1,1)"
       id="g1040">
      <g
         id="g1038">
        <path
           fill="none"
           stroke="none"
           id="path1034" />
        <text
           fill="#000000"
           stroke="none"
           font-family="Arial"
           font-size="13px"
           font-style="normal"
           font-weight="bold"
           text-decoration="none"
           x="465.406005859375"
           y="456"
           id="text1036">Restablecer Contraseña</text>
      </g>
    </g>
    <g
       transform="translate(-54,-222) scale(1,1)"
       id="g1044">
      <path
         fill="none"
         stroke="#000000"
         d="M 599 431 L 680 408 L 558 331"
         stroke-miterlimit="10"
         stroke-dasharray="3"
         id="path1042" />
    </g>
    <g
       transform="translate(-54,-222) scale(1,1)"
       id="g1048">
      <path
         fill="none"
         stroke="#000000"
         d="M 568.8408573743102 332.86435280724044 L 558 331 L 564.347347250727 339.9839402757748"
         stroke-miterlimit="10"
         id="path1046" />
    </g>
    <g
       transform="translate(-54,-222) scale(1,1)"
       id="g1056">
      <g
         id="g1054">
        <path
           fill="none"
           stroke="none"
           id="path1050" />
        <text
           fill="#000000"
           stroke="none"
           font-family="Arial"
           font-size="13px"
           font-style="normal"
           font-weight="normal"
           text-decoration="none"
           x="618.5"
           y="439.5"
           id="text1052">«include»</text>
      </g>
    </g>
    <g
       transform="translate(-54,-222) scale(1,1)"
       id="g1060">
      <path
         fill="#ffffff"
         stroke="none"
         d="M 90.30181818181819 519.45 C 90.30181818181819 507.05120624000006 100.01642399418182 497 112 497 C 123.98357600581818 497 133.6981818181818 507.05120624000006 133.6981818181818 519.45 C 133.6981818181818 531.84879376 123.98357600581818 541.9 112 541.9 C 100.01642399418182 541.9 90.30181818181819 531.84879376 90.30181818181819 519.45 Z"
         id="path1058" />
    </g>
    <g
       transform="translate(-54,-222) scale(1,1)"
       id="g1064">
      <path
         fill="none"
         stroke="#000000"
         d="M 90.30181818181819 519.45 C 90.30181818181819 507.05120624000006 100.01642399418182 497 112 497 C 123.98357600581818 497 133.6981818181818 507.05120624000006 133.6981818181818 519.45 C 133.6981818181818 531.84879376 123.98357600581818 541.9 112 541.9 C 100.01642399418182 541.9 90.30181818181819 531.84879376 90.30181818181819 519.45 Z"
         stroke-miterlimit="10"
         id="path1062" />
    </g>
    <g
       transform="translate(-54,-222) scale(1,1)"
       id="g1068">
      <path
         fill="none"
         stroke="#000000"
         d="M 112 541.9 L 112 585.1"
         stroke-miterlimit="10"
         id="path1066" />
    </g>
    <g
       transform="translate(-54,-222) scale(1,1)"
       id="g1072">
      <path
         fill="none"
         stroke="#000000"
         d="M 89.02545454545455 558.1 L 134.97454545454545 558.1"
         stroke-miterlimit="10"
         id="path1070" />
    </g>
    <g
       transform="translate(-54,-222) scale(1,1)"
       id="g1076">
      <path
         fill="none"
         stroke="#000000"
         d="M 112 585.1 L 80.0909090909091 630"
         stroke-miterlimit="10"
         id="path1074" />
    </g>
    <g
       transform="translate(-54,-222) scale(1,1)"
       id="g1080">
      <path
         fill="none"
         stroke="#000000"
         d="M 112 585.1 L 143.9090909090909 630"
         stroke-miterlimit="10"
         id="path1078" />
    </g>
    <g
       transform="translate(-54,-222) scale(1,1)"
       id="g1088">
      <g
         id="g1086">
        <path
           fill="none"
           stroke="none"
           id="path1082" />
        <text
           fill="#000000"
           stroke="none"
           font-family="Arial"
           font-size="13px"
           font-style="normal"
           font-weight="bold"
           text-decoration="none"
           x="84.168701171875"
           y="650.5"
           id="text1084">Vendedor</text>
      </g>
    </g>
    <g
       transform="translate(-54,-222) scale(1,1)"
       id="g1092">
      <path
         fill="#ffffff"
         stroke="none"
         d="M 90.30181818181819 255.45 C 90.30181818181819 243.05120624 100.01642399418182 233 112 233 C 123.98357600581818 233 133.6981818181818 243.05120624 133.6981818181818 255.45 C 133.6981818181818 267.84879376 123.98357600581818 277.9 112 277.9 C 100.01642399418182 277.9 90.30181818181819 267.84879376 90.30181818181819 255.45 Z"
         id="path1090" />
    </g>
    <g
       transform="translate(-54,-222) scale(1,1)"
       id="g1096">
      <path
         fill="none"
         stroke="#000000"
         d="M 90.30181818181819 255.45 C 90.30181818181819 243.05120624 100.01642399418182 233 112 233 C 123.98357600581818 233 133.6981818181818 243.05120624 133.6981818181818 255.45 C 133.6981818181818 267.84879376 123.98357600581818 277.9 112 277.9 C 100.01642399418182 277.9 90.30181818181819 267.84879376 90.30181818181819 255.45 Z"
         stroke-miterlimit="10"
         id="path1094" />
    </g>
    <g
       transform="translate(-54,-222) scale(1,1)"
       id="g1100">
      <path
         fill="none"
         stroke="#000000"
         d="M 112 277.9 L 112 321.1"
         stroke-miterlimit="10"
         id="path1098" />
    </g>
    <g
       transform="translate(-54,-222) scale(1,1)"
       id="g1104">
      <path
         fill="none"
         stroke="#000000"
         d="M 89.02545454545455 294.1 L 134.97454545454545 294.1"
         stroke-miterlimit="10"
         id="path1102" />
    </g>
    <g
       transform="translate(-54,-222) scale(1,1)"
       id="g1108">
      <path
         fill="none"
         stroke="#000000"
         d="M 112 321.1 L 80.0909090909091 366"
         stroke-miterlimit="10"
         id="path1106" />
    </g>
    <g
       transform="translate(-54,-222) scale(1,1)"
       id="g1112">
      <path
         fill="none"
         stroke="#000000"
         d="M 112 321.1 L 143.9090909090909 366"
         stroke-miterlimit="10"
         id="path1110" />
    </g>
    <g
       transform="translate(-54,-222) scale(1,1)"
       id="g1120">
      <g
         id="g1118">
        <path
           fill="none"
           stroke="none"
           id="path1114" />
        <text
           fill="#000000"
           stroke="none"
           font-family="Arial"
           font-size="13px"
           font-style="normal"
           font-weight="bold"
           text-decoration="none"
           x="79.4873046875"
           y="386.5"
           id="text1116">Comprador</text>
      </g>
    </g>
    <g
       transform="translate(-54,-222) scale(1,1)"
       id="g1124">
      <path
         fill="none"
         stroke="#000000"
         d="M 161 372 L 199 418"
         stroke-miterlimit="10"
         id="path1122" />
    </g>
    <g
       transform="translate(-54,-222) scale(1,1)"
       id="g1128">
      <path
         fill="#FFFFFF"
         stroke="none"
         d="M 179.56440749728014 407.6918603003151 L 199 418 L 192.54591622801382 396.9680052618829"
         id="path1126" />
    </g>
    <g
       transform="translate(-54,-222) scale(1,1)"
       id="g1132">
      <path
         fill="none"
         stroke="#000000"
         d="M 179.56440749728014 407.6918603003151 L 199 418 L 192.54591622801382 396.9680052618829 L 179.56440749728014 407.6918603003151"
         stroke-miterlimit="10"
         id="path1130" />
    </g>
    <g
       transform="translate(-54,-222) scale(1,1)"
       id="g1136">
      <path
         fill="none"
         stroke="#000000"
         d="M 153 539 L 199 498"
         stroke-miterlimit="10"
         id="path1134" />
    </g>
    <g
       transform="translate(-54,-222) scale(1,1)"
       id="g1140">
      <path
         fill="#FFFFFF"
         stroke="none"
         d="M 189.42863476268383 517.8088103502935 L 199 498 L 178.22507860954974 505.23896686141137"
         id="path1138" />
    </g>
    <g
       transform="translate(-54,-222) scale(1,1)"
       id="g1144">
      <path
         fill="none"
         stroke="#000000"
         d="M 189.42863476268383 517.8088103502935 L 199 498 L 178.22507860954974 505.23896686141137 L 189.42863476268383 517.8088103502935"
         stroke-miterlimit="10"
         id="path1142" />
    </g>
    <g
       transform="translate(-54,-222) scale(1,1)"
       id="g1148">
      <path
         fill="none"
         stroke="#000000"
         d="M 276 444 L 495 331"
         stroke-miterlimit="10"
         id="path1146" />
    </g>
    <g
       transform="translate(-54,-222) scale(1,1)"
       id="g1152">
      <path
         fill="none"
         stroke="#000000"
         d="M 276 454 L 466 403"
         stroke-miterlimit="10"
         id="path1150" />
    </g>
    <g
       transform="translate(-54,-222) scale(1,1)"
       id="g1156">
      <path
         fill="none"
         stroke="#000000"
         d="M 276 462 L 423 455"
         stroke-miterlimit="10"
         id="path1154" />
    </g>
    <g
       transform="translate(-54,-222) scale(1,1)"
       id="g1160">
      <path
         fill="#C0C0C0"
         stroke="none"
         d="M 447 512 C 447 502.6111584 489.9806592 495 543 495 C 596.0193408 495 639 502.6111584 639 512 C 639 521.3888416 596.0193408 529 543 529 C 489.9806592 529 447 521.3888416 447 512 Z"
         opacity="0.2"
         id="path1158" />
    </g>
    <g
       transform="translate(-54,-222) scale(1,1)"
       id="g1164">
      <path
         fill="#ffffff"
         stroke="none"
         d="M 440 505 C 440 495.6111584 482.9806592 488 536 488 C 589.0193408 488 632 495.6111584 632 505 C 632 514.3888416 589.0193408 522 536 522 C 482.9806592 522 440 514.3888416 440 505 Z"
         id="path1162" />
    </g>
    <g
       transform="translate(-54,-222) scale(1,1)"
       id="g1168">
      <path
         fill="none"
         stroke="#000000"
         d="M 440 505 C 440 495.6111584 482.9806592 488 536 488 C 589.0193408 488 632 495.6111584 632 505 C 632 514.3888416 589.0193408 522 536 522 C 482.9806592 522 440 514.3888416 440 505 Z"
         stroke-miterlimit="10"
         id="path1166" />
    </g>
    <g
       transform="translate(-54,-222) scale(1,1)"
       id="g1176">
      <g
         id="g1174">
        <path
           fill="none"
           stroke="none"
           id="path1170" />
        <text
           fill="#000000"
           stroke="none"
           font-family="Arial"
           font-size="13px"
           font-style="normal"
           font-weight="bold"
           text-decoration="none"
           x="476.02734375"
           y="512"
           id="text1172">Cambiar Contraseña</text>
      </g>
    </g>
    <g
       transform="translate(-54,-222) scale(1,1)"
       id="g1180">
      <path
         fill="none"
         stroke="#000000"
         d="M 276 469 L 439 492"
         stroke-miterlimit="10"
         id="path1178" />
    </g>
  </g>
</svg>
